<?xml version="1.0" encoding="utf-8"?>
<svg width="270px" height="270px" viewBox="0 0 270 270" version="1.1" xmlns:xlink="http://www.w3.org/1999/xlink" xmlns="http://www.w3.org/2000/svg">
  <defs>
    <path d="M270 0L270 0L270 270L0 270L0 0L270 0Z" id="path_1" />
    <clipPath id="clip_1">
      <use xlink:href="#path_1" clip-rule="evenodd" fill-rule="evenodd" />
    </clipPath>
  </defs>
  <g id="3x3Grid">
    <path d="M270 0L270 0L270 270L0 270L0 0L270 0Z" id="3x3Grid" fill="transparent" stroke="none" />
    <path d="M75 10C80.5236 10 85 14.4764 85 20L85 75C85 80.5236 80.5236 85 75 85L20 85C14.4764 85 10 80.5236 10 75L10 20C10 14.4764 14.4764 10 20 10L75 10Z" id="Rectangle" stroke="none" clip-path="url(#clip_1)" />
    <path d="M250 10C255.524 10 260 14.4764 260 20L260 75C260 80.5236 255.524 85 250 85L195 85C189.476 85 185 80.5236 185 75L185 20C185 14.4764 189.476 10 195 10L250 10Z" id="Rectangle" stroke="none" clip-path="url(#clip_1)" />
    <path d="M163 11C168.524 11 173 15.4764 173 21L173 76C173 81.5236 168.524 86 163 86L108 86C102.476 86 98 81.5236 98 76L98 21C98 15.4764 102.476 11 108 11L163 11Z" id="Rectangle" stroke="none" clip-path="url(#clip_1)" />
    <path d="M75 96C80.5236 96 85 100.476 85 106L85 161C85 166.524 80.5236 171 75 171L20 171C14.4764 171 10 166.524 10 161L10 106C10 100.476 14.4764 96 20 96L75 96Z" id="Rectangle" stroke="none" clip-path="url(#clip_1)" />
    <path d="M250 96C255.524 96 260 100.476 260 106L260 161C260 166.524 255.524 171 250 171L195 171C189.476 171 185 166.524 185 161L185 106C185 100.476 189.476 96 195 96L250 96Z" id="Rectangle" stroke="none" clip-path="url(#clip_1)" />
    <path d="M163 97C168.524 97 173 101.476 173 107L173 162C173 167.524 168.524 172 163 172L108 172C102.476 172 98 167.524 98 162L98 107C98 101.476 102.476 97 108 97L163 97Z" id="Rectangle" stroke="none" clip-path="url(#clip_1)" />
    <path d="M75 182C80.5236 182 85 186.476 85 192L85 247C85 252.524 80.5236 257 75 257L20 257C14.4764 257 10 252.524 10 247L10 192C10 186.476 14.4764 182 20 182L75 182Z" id="Rectangle" stroke="none" clip-path="url(#clip_1)" />
    <path d="M250 182C255.524 182 260 186.476 260 192L260 247C260 252.524 255.524 257 250 257L195 257C189.476 257 185 252.524 185 247L185 192C185 186.476 189.476 182 195 182L250 182Z" id="Rectangle" stroke="none" clip-path="url(#clip_1)" />
    <path d="M163 183C168.524 183 173 187.476 173 193L173 248C173 253.524 168.524 258 163 258L108 258C102.476 258 98 253.524 98 248L98 193C98 187.476 102.476 183 108 183L163 183Z" id="Rectangle" stroke="none" clip-path="url(#clip_1)" />
  </g>
</svg>