<?xml version="1.0" encoding="utf-8"?>
<svg width="270.0001px" height="270.0001px" viewBox="0 0 270.0001 270.0001" version="1.1" xmlns:xlink="http://www.w3.org/1999/xlink" xmlns="http://www.w3.org/2000/svg">
  <defs>
    <path d="M270 0L270 0L270 270L0 270L0 0L270 0Z" id="path_1" />
    <clipPath id="clip_1">
      <use xlink:href="#path_1" clip-rule="evenodd" fill-rule="evenodd" />
    </clipPath>
  </defs>
  <g id="horizontalBars">
    <path d="M270 0L270 0L270 270L0 270L0 0L270 0Z" id="horizontalBars" fill="transparent" stroke="none" transform="scale(1.0000004 1.0000004)" />
    <path d="M34.9999 65.0001L34.9999 -5.00002Q34.9999 -5.24551 35.012 -5.4907Q35.024 -5.73589 35.0481 -5.98019Q35.0721 -6.2245 35.1082 -6.46733Q35.1442 -6.71016 35.1921 -6.95092Q35.24 -7.19169 35.2996 -7.42982Q35.3593 -7.66795 35.4305 -7.90287Q35.5018 -8.13779 35.5845 -8.36892Q35.6672 -8.60006 35.7611 -8.82686Q35.8551 -9.05366 35.96 -9.27557Q36.065 -9.49749 36.1807 -9.71399Q36.2964 -9.93049 36.4226 -10.1411Q36.5488 -10.3516 36.6852 -10.5557Q36.8216 -10.7598 36.9679 -10.957Q37.1141 -11.1542 37.2698 -11.344Q37.4256 -11.5337 37.5904 -11.7156Q37.7553 -11.8975 37.9289 -12.0711Q38.1024 -12.2447 38.2843 -12.4095Q38.4662 -12.5744 38.656 -12.7301Q38.8458 -12.8859 39.0429 -13.0321Q39.2401 -13.1783 39.4442 -13.3147Q39.6483 -13.4511 39.8589 -13.5773Q40.0695 -13.7035 40.286 -13.8192Q40.5025 -13.935 40.7244 -14.0399Q40.9463 -14.1449 41.1731 -14.2388Q41.3999 -14.3328 41.631 -14.4155Q41.8622 -14.4982 42.0971 -14.5694Q42.332 -14.6407 42.5701 -14.7003Q42.8083 -14.76 43.049 -14.8079Q43.2898 -14.8558 43.5326 -14.8918Q43.7755 -14.9278 44.0198 -14.9519Q44.2641 -14.9759 44.5093 -14.988Q44.7545 -15 44.9999 -15L65 -15Q65.2454 -15 65.4906 -14.988Q65.7358 -14.9759 65.9801 -14.9519Q66.2244 -14.9278 66.4673 -14.8918Q66.7101 -14.8558 66.9509 -14.8079Q67.1916 -14.76 67.4298 -14.7003Q67.6679 -14.6407 67.9028 -14.5694Q68.1377 -14.4982 68.3689 -14.4155Q68.6 -14.3328 68.8268 -14.2388Q69.0536 -14.1449 69.2755 -14.0399Q69.4974 -13.935 69.7139 -13.8192Q69.9304 -13.7035 70.141 -13.5773Q70.3515 -13.4511 70.5557 -13.3147Q70.7598 -13.1783 70.9569 -13.0321Q71.1541 -12.8859 71.3439 -12.7301Q71.5337 -12.5744 71.7156 -12.4095Q71.8974 -12.2447 72.071 -12.0711Q72.2446 -11.8975 72.4095 -11.7156Q72.5743 -11.5337 72.7301 -11.344Q72.8858 -11.1542 73.032 -10.957Q73.1783 -10.7598 73.3147 -10.5557Q73.451 -10.3516 73.5773 -10.1411Q73.7035 -9.93049 73.8192 -9.71399Q73.9349 -9.49749 74.0399 -9.27557Q74.1448 -9.05366 74.2388 -8.82686Q74.3327 -8.60006 74.4154 -8.36892Q74.4981 -8.13778 74.5694 -7.90287Q74.6406 -7.66795 74.7003 -7.42982Q74.7599 -7.19169 74.8078 -6.95092Q74.8557 -6.71016 74.8917 -6.46733Q74.9278 -6.2245 74.9518 -5.98019Q74.9759 -5.73589 74.9879 -5.4907Q75 -5.24551 75 -5.00002L75 65.0001Q75 65.2455 74.9879 65.4907Q74.9759 65.7359 74.9518 65.9802Q74.9278 66.2245 74.8917 66.4674Q74.8557 66.7102 74.8078 66.951Q74.7599 67.1917 74.7003 67.4299Q74.6406 67.668 74.5694 67.9029Q74.4981 68.1378 74.4154 68.3689Q74.3327 68.6001 74.2388 68.8269Q74.1448 69.0537 74.0399 69.2756Q73.9349 69.4975 73.8192 69.714Q73.7035 69.9305 73.5773 70.1411Q73.451 70.3516 73.3147 70.5558Q73.1783 70.7599 73.0321 70.9571Q72.8858 71.1542 72.7301 71.344Q72.5743 71.5338 72.4095 71.7156Q72.2446 71.8975 72.071 72.0711Q71.8975 72.2447 71.7156 72.4096Q71.5337 72.5744 71.3439 72.7302Q71.1541 72.8859 70.957 73.0321Q70.7598 73.1784 70.5557 73.3148Q70.3515 73.4511 70.141 73.5773Q69.9304 73.7036 69.7139 73.8193Q69.4974 73.935 69.2755 74.0399Q69.0536 74.1449 68.8268 74.2388Q68.6 74.3328 68.3689 74.4155Q68.1377 74.4982 67.9028 74.5695Q67.6679 74.6407 67.4298 74.7004Q67.1916 74.76 66.9509 74.8079Q66.7101 74.8558 66.4673 74.8918Q66.2244 74.9278 65.9801 74.9519Q65.7358 74.976 65.4906 74.988Q65.2454 75.0001 65 75.0001L44.9999 75.0001Q44.7545 75.0001 44.5093 74.988Q44.2641 74.976 44.0198 74.9519Q43.7755 74.9278 43.5326 74.8918Q43.2898 74.8558 43.049 74.8079Q42.8083 74.76 42.5701 74.7004Q42.332 74.6407 42.0971 74.5695Q41.8622 74.4982 41.631 74.4155Q41.3999 74.3328 41.1731 74.2389Q40.9463 74.1449 40.7244 74.0399Q40.5025 73.935 40.286 73.8193Q40.0695 73.7036 39.8589 73.5773Q39.6483 73.4511 39.4442 73.3148Q39.2401 73.1784 39.0429 73.0321Q38.8458 72.8859 38.656 72.7302Q38.4662 72.5744 38.2843 72.4096Q38.1024 72.2447 37.9289 72.0711Q37.7553 71.8975 37.5904 71.7156Q37.4256 71.5338 37.2698 71.344Q37.1141 71.1542 36.9679 70.9571Q36.8216 70.7599 36.6852 70.5558Q36.5488 70.3516 36.4226 70.1411Q36.2964 69.9305 36.1807 69.714Q36.065 69.4975 35.96 69.2756Q35.8551 69.0537 35.7611 68.8269Q35.6672 68.6001 35.5845 68.3689Q35.5018 68.1378 35.4305 67.9029Q35.3593 67.668 35.2996 67.4299Q35.24 67.1917 35.1921 66.951Q35.1442 66.7102 35.1082 66.4674Q35.0721 66.2245 35.0481 65.9802Q35.024 65.7359 35.012 65.4907Q34.9999 65.2455 34.9999 65.0001Z" id="Rectangle" fill="#757575" stroke="none" clip-path="url(#clip_1)" transform="scale(1.0000004 1.0000004), rotate(90 55 30)" />
    <path d="M49.9999 130L49.9999 30Q49.9999 29.7545 50.012 29.5093Q50.024 29.2641 50.0481 29.0198Q50.0721 28.7755 50.1081 28.5327Q50.1442 28.2898 50.1921 28.0491Q50.24 27.8083 50.2996 27.5702Q50.3592 27.332 50.4305 27.0971Q50.5018 26.8622 50.5845 26.6311Q50.6672 26.3999 50.7611 26.1731Q50.8551 25.9463 50.96 25.7244Q51.065 25.5025 51.1807 25.286Q51.2964 25.0695 51.4226 24.8589Q51.5488 24.6484 51.6852 24.4443Q51.8216 24.2402 51.9678 24.043Q52.1141 23.8458 52.2698 23.656Q52.4255 23.4663 52.5904 23.2844Q52.7553 23.1025 52.9288 22.9289Q53.1024 22.7553 53.2843 22.5905Q53.4662 22.4256 53.656 22.2699Q53.8457 22.1141 54.0429 21.9679Q54.2401 21.8217 54.4442 21.6853Q54.6483 21.5489 54.8589 21.4227Q55.0695 21.2965 55.286 21.1808Q55.5024 21.065 55.7244 20.9601Q55.9463 20.8551 56.1731 20.7612Q56.3999 20.6672 56.631 20.5845Q56.8622 20.5018 57.0971 20.4306Q57.332 20.3593 57.5701 20.2997Q57.8082 20.24 58.049 20.1921Q58.2898 20.1442 58.5326 20.1082Q58.7755 20.0722 59.0198 20.0481Q59.2641 20.0241 59.5093 20.012Q59.7544 20 59.9999 20L79.9999 20Q80.2454 20 80.4906 20.012Q80.7358 20.0241 80.9801 20.0481Q81.2244 20.0722 81.4672 20.1082Q81.7101 20.1442 81.9508 20.1921Q82.1916 20.24 82.4297 20.2997Q82.6679 20.3593 82.9028 20.4306Q83.1377 20.5018 83.3688 20.5845Q83.6 20.6672 83.8268 20.7612Q84.0536 20.8551 84.2755 20.9601Q84.4974 21.065 84.7139 21.1808Q84.9304 21.2965 85.141 21.4227Q85.3515 21.5489 85.5556 21.6853Q85.7598 21.8217 85.9569 21.9679Q86.1541 22.1141 86.3439 22.2699Q86.5336 22.4256 86.7155 22.5905Q86.8974 22.7553 87.071 22.9289Q87.2446 23.1025 87.4095 23.2844Q87.5743 23.4663 87.7301 23.656Q87.8858 23.8458 88.032 24.043Q88.1783 24.2402 88.3146 24.4443Q88.451 24.6484 88.5772 24.8589Q88.7034 25.0695 88.8192 25.286Q88.9349 25.5025 89.0398 25.7244Q89.1448 25.9463 89.2387 26.1731Q89.3327 26.3999 89.4154 26.6311Q89.4981 26.8622 89.5694 27.0971Q89.6406 27.332 89.7003 27.5702Q89.7599 27.8083 89.8078 28.0491Q89.8557 28.2898 89.8917 28.5327Q89.9277 28.7755 89.9518 29.0198Q89.9759 29.2641 89.9879 29.5093Q90 29.7545 90 30L90 130Q90 130.246 89.9879 130.491Q89.9759 130.736 89.9518 130.98Q89.9277 131.225 89.8917 131.467Q89.8557 131.71 89.8078 131.951Q89.7599 132.192 89.7002 132.43Q89.6406 132.668 89.5693 132.903Q89.4981 133.138 89.4154 133.369Q89.3327 133.6 89.2387 133.827Q89.1448 134.054 89.0398 134.276Q88.9349 134.498 88.8192 134.714Q88.7034 134.931 88.5772 135.141Q88.451 135.352 88.3146 135.556Q88.1783 135.76 88.032 135.957Q87.8858 136.154 87.7301 136.344Q87.5743 136.534 87.4095 136.716Q87.2446 136.898 87.071 137.071Q86.8974 137.245 86.7155 137.41Q86.5336 137.574 86.3439 137.73Q86.1541 137.886 85.9569 138.032Q85.7598 138.178 85.5556 138.315Q85.3515 138.451 85.141 138.577Q84.9304 138.704 84.7139 138.819Q84.4974 138.935 84.2755 139.04Q84.0536 139.145 83.8268 139.239Q83.6 139.333 83.3688 139.416Q83.1377 139.498 82.9028 139.569Q82.6679 139.641 82.4297 139.7Q82.1916 139.76 81.9508 139.808Q81.7101 139.856 81.4672 139.892Q81.2244 139.928 80.9801 139.952Q80.7358 139.976 80.4906 139.988Q80.2454 140 79.9999 140L59.9999 140Q59.7544 140 59.5093 139.988Q59.2641 139.976 59.0198 139.952Q58.7755 139.928 58.5326 139.892Q58.2898 139.856 58.049 139.808Q57.8082 139.76 57.5701 139.7Q57.332 139.641 57.0971 139.57Q56.8622 139.498 56.631 139.416Q56.3999 139.333 56.1731 139.239Q55.9463 139.145 55.7244 139.04Q55.5024 138.935 55.286 138.819Q55.0695 138.704 54.8589 138.577Q54.6483 138.451 54.4442 138.315Q54.2401 138.178 54.0429 138.032Q53.8457 137.886 53.656 137.73Q53.4662 137.574 53.2843 137.41Q53.1024 137.245 52.9288 137.071Q52.7553 136.898 52.5904 136.716Q52.4255 136.534 52.2698 136.344Q52.1141 136.154 51.9678 135.957Q51.8216 135.76 51.6852 135.556Q51.5488 135.352 51.4226 135.141Q51.2964 134.931 51.1807 134.714Q51.065 134.498 50.96 134.276Q50.8551 134.054 50.7611 133.827Q50.6672 133.6 50.5845 133.369Q50.5018 133.138 50.4305 132.903Q50.3592 132.668 50.2996 132.43Q50.24 132.192 50.1921 131.951Q50.1442 131.71 50.1081 131.467Q50.0721 131.225 50.0481 130.98Q50.024 130.736 50.012 130.491Q49.9999 130.246 49.9999 130Z" id="Rectangle" fill="#757575" stroke="none" clip-path="url(#clip_1)" transform="scale(1.0000004 1.0000004), rotate(90 70 80)" />
    <path d="M64.9999 195L64.9999 64.9999Q64.9999 64.7545 65.0119 64.5093Q65.024 64.2641 65.048 64.0198Q65.0721 63.7755 65.1081 63.5326Q65.1441 63.2898 65.192 63.049Q65.2399 62.8083 65.2996 62.5701Q65.3592 62.332 65.4305 62.0971Q65.5017 61.8622 65.5844 61.631Q65.6671 61.3999 65.7611 61.1731Q65.855 60.9463 65.96 60.7244Q66.0649 60.5025 66.1807 60.286Q66.2964 60.0695 66.4226 59.8589Q66.5488 59.6483 66.6852 59.4442Q66.8216 59.2401 66.9678 59.0429Q67.114 58.8458 67.2698 58.656Q67.4255 58.4662 67.5904 58.2843Q67.7552 58.1025 67.9288 57.9289Q68.1024 57.7553 68.2843 57.5904Q68.4662 57.4256 68.656 57.2698Q68.8457 57.1141 69.0429 56.9679Q69.2401 56.8216 69.4442 56.6852Q69.6483 56.5489 69.8589 56.4226Q70.0694 56.2964 70.2859 56.1807Q70.5024 56.065 70.7243 55.96Q70.9462 55.8551 71.173 55.7611Q71.3998 55.6672 71.631 55.5845Q71.8621 55.5018 72.097 55.4305Q72.332 55.3593 72.5701 55.2996Q72.8082 55.24 73.049 55.1921Q73.2898 55.1442 73.5326 55.1082Q73.7754 55.0722 74.0197 55.0481Q74.264 55.024 74.5092 55.012Q74.7544 54.9999 74.9999 54.9999L94.9999 54.9999Q95.2454 54.9999 95.4906 55.012Q95.7358 55.024 95.9801 55.0481Q96.2244 55.0722 96.4672 55.1082Q96.71 55.1442 96.9508 55.1921Q97.1916 55.24 97.4297 55.2996Q97.6678 55.3593 97.9028 55.4305Q98.1377 55.5018 98.3688 55.5845Q98.5999 55.6672 98.8267 55.7611Q99.0535 55.8551 99.2755 55.96Q99.4974 56.065 99.7139 56.1807Q99.9304 56.2964 100.141 56.4226Q100.351 56.5489 100.556 56.6852Q100.76 56.8216 100.957 56.9679Q101.154 57.1141 101.344 57.2698Q101.534 57.4256 101.715 57.5904Q101.897 57.7553 102.071 57.9289Q102.245 58.1025 102.409 58.2843Q102.574 58.4662 102.73 58.656Q102.886 58.8458 103.032 59.0429Q103.178 59.2401 103.315 59.4442Q103.451 59.6483 103.577 59.8589Q103.703 60.0695 103.819 60.286Q103.935 60.5025 104.04 60.7244Q104.145 60.9463 104.239 61.1731Q104.333 61.3999 104.415 61.631Q104.498 61.8622 104.569 62.0971Q104.641 62.332 104.7 62.5701Q104.76 62.8083 104.808 63.049Q104.856 63.2898 104.892 63.5326Q104.928 63.7755 104.952 64.0198Q104.976 64.2641 104.988 64.5093Q105 64.7545 105 64.9999L105 195Q105 195.246 104.988 195.491Q104.976 195.736 104.952 195.98Q104.928 196.225 104.892 196.467Q104.856 196.71 104.808 196.951Q104.76 197.192 104.7 197.43Q104.641 197.668 104.569 197.903Q104.498 198.138 104.415 198.369Q104.333 198.6 104.239 198.827Q104.145 199.054 104.04 199.276Q103.935 199.498 103.819 199.714Q103.703 199.931 103.577 200.141Q103.451 200.352 103.315 200.556Q103.178 200.76 103.032 200.957Q102.886 201.154 102.73 201.344Q102.574 201.534 102.409 201.716Q102.245 201.898 102.071 202.071Q101.897 202.245 101.715 202.41Q101.534 202.574 101.344 202.73Q101.154 202.886 100.957 203.032Q100.76 203.178 100.556 203.315Q100.351 203.451 100.141 203.577Q99.9304 203.704 99.7139 203.819Q99.4974 203.935 99.2755 204.04Q99.0535 204.145 98.8267 204.239Q98.5999 204.333 98.3688 204.416Q98.1377 204.498 97.9028 204.57Q97.6678 204.641 97.4297 204.7Q97.1916 204.76 96.9508 204.808Q96.71 204.856 96.4672 204.892Q96.2244 204.928 95.9801 204.952Q95.7358 204.976 95.4906 204.988Q95.2454 205 94.9999 205L74.9999 205Q74.7544 205 74.5092 204.988Q74.264 204.976 74.0197 204.952Q73.7754 204.928 73.5326 204.892Q73.2898 204.856 73.049 204.808Q72.8082 204.76 72.5701 204.7Q72.332 204.641 72.097 204.57Q71.8621 204.498 71.631 204.416Q71.3998 204.333 71.173 204.239Q70.9462 204.145 70.7243 204.04Q70.5024 203.935 70.2859 203.819Q70.0694 203.704 69.8589 203.577Q69.6483 203.451 69.4442 203.315Q69.2401 203.178 69.0429 203.032Q68.8457 202.886 68.656 202.73Q68.4662 202.574 68.2843 202.41Q68.1024 202.245 67.9288 202.071Q67.7552 201.898 67.5904 201.716Q67.4255 201.534 67.2698 201.344Q67.114 201.154 66.9678 200.957Q66.8216 200.76 66.6852 200.556Q66.5488 200.352 66.4226 200.141Q66.2964 199.931 66.1807 199.714Q66.0649 199.498 65.96 199.276Q65.855 199.054 65.7611 198.827Q65.6671 198.6 65.5844 198.369Q65.5017 198.138 65.4305 197.903Q65.3592 197.668 65.2996 197.43Q65.2399 197.192 65.192 196.951Q65.1441 196.71 65.1081 196.467Q65.0721 196.225 65.048 195.98Q65.024 195.736 65.0119 195.491Q64.9999 195.246 64.9999 195Z" id="Rectangle" fill="#757575" stroke="none" clip-path="url(#clip_1)" transform="scale(1.0000004 1.0000004), rotate(90 85 130)" />
    <path d="M14.9999 195L14.9999 165Q14.9999 164.755 15.012 164.509Q15.024 164.264 15.0481 164.02Q15.0722 163.776 15.1082 163.533Q15.1442 163.29 15.1921 163.049Q15.24 162.808 15.2996 162.57Q15.3593 162.332 15.4305 162.097Q15.5018 161.862 15.5845 161.631Q15.6672 161.4 15.7611 161.173Q15.8551 160.946 15.96 160.724Q16.065 160.503 16.1807 160.286Q16.2964 160.07 16.4227 159.859Q16.5489 159.648 16.6852 159.444Q16.8216 159.24 16.9679 159.043Q17.1141 158.846 17.2698 158.656Q17.4256 158.466 17.5904 158.284Q17.7553 158.103 17.9289 157.929Q18.1025 157.755 18.2844 157.59Q18.4662 157.426 18.656 157.27Q18.8458 157.114 19.043 156.968Q19.2401 156.822 19.4442 156.685Q19.6484 156.549 19.8589 156.423Q20.0695 156.296 20.286 156.181Q20.5025 156.065 20.7244 155.96Q20.9463 155.855 21.1731 155.761Q21.3999 155.667 21.631 155.585Q21.8622 155.502 22.0971 155.431Q22.332 155.359 22.5701 155.3Q22.8083 155.24 23.049 155.192Q23.2898 155.144 23.5326 155.108Q23.7755 155.072 24.0198 155.048Q24.2641 155.024 24.5093 155.012Q24.7545 155 25 155L45 155Q45.2454 155 45.4906 155.012Q45.7358 155.024 45.9801 155.048Q46.2244 155.072 46.4673 155.108Q46.7101 155.144 46.9509 155.192Q47.1916 155.24 47.4298 155.3Q47.6679 155.359 47.9028 155.431Q48.1377 155.502 48.3689 155.585Q48.6 155.667 48.8268 155.761Q49.0536 155.855 49.2755 155.96Q49.4974 156.065 49.7139 156.181Q49.9304 156.296 50.141 156.423Q50.3516 156.549 50.5557 156.685Q50.7598 156.822 50.957 156.968Q51.1541 157.114 51.3439 157.27Q51.5337 157.426 51.7156 157.59Q51.8975 157.755 52.071 157.929Q52.2446 158.103 52.4095 158.284Q52.5743 158.466 52.7301 158.656Q52.8858 158.846 53.032 159.043Q53.1783 159.24 53.3147 159.444Q53.4511 159.648 53.5773 159.859Q53.7035 160.07 53.8192 160.286Q53.9349 160.503 54.0399 160.724Q54.1448 160.946 54.2388 161.173Q54.3327 161.4 54.4154 161.631Q54.4981 161.862 54.5694 162.097Q54.6406 162.332 54.7003 162.57Q54.7599 162.808 54.8078 163.049Q54.8557 163.29 54.8917 163.533Q54.9278 163.776 54.9518 164.02Q54.9759 164.264 54.9879 164.509Q55 164.755 55 165L55 195Q55 195.246 54.9879 195.491Q54.9759 195.736 54.9518 195.98Q54.9278 196.225 54.8917 196.467Q54.8557 196.71 54.8078 196.951Q54.7599 197.192 54.7003 197.43Q54.6406 197.668 54.5694 197.903Q54.4981 198.138 54.4154 198.369Q54.3327 198.6 54.2388 198.827Q54.1448 199.054 54.0399 199.276Q53.9349 199.497 53.8192 199.714Q53.7035 199.93 53.5773 200.141Q53.4511 200.352 53.3147 200.556Q53.1783 200.76 53.0321 200.957Q52.8858 201.154 52.7301 201.344Q52.5743 201.534 52.4095 201.716Q52.2446 201.898 52.071 202.071Q51.8975 202.245 51.7156 202.41Q51.5337 202.574 51.3439 202.73Q51.1541 202.886 50.957 203.032Q50.7598 203.178 50.5557 203.315Q50.3516 203.451 50.141 203.577Q49.9304 203.704 49.7139 203.819Q49.4974 203.935 49.2755 204.04Q49.0536 204.145 48.8268 204.239Q48.6 204.333 48.3689 204.415Q48.1377 204.498 47.9028 204.569Q47.6679 204.641 47.4298 204.7Q47.1916 204.76 46.9509 204.808Q46.7101 204.856 46.4673 204.892Q46.2244 204.928 45.9801 204.952Q45.7358 204.976 45.4906 204.988Q45.2454 205 45 205L25 205Q24.7545 205 24.5093 204.988Q24.2641 204.976 24.0198 204.952Q23.7755 204.928 23.5326 204.892Q23.2898 204.856 23.049 204.808Q22.8083 204.76 22.5701 204.7Q22.332 204.641 22.0971 204.569Q21.8622 204.498 21.631 204.415Q21.3999 204.333 21.1731 204.239Q20.9463 204.145 20.7244 204.04Q20.5025 203.935 20.286 203.819Q20.0695 203.704 19.8589 203.577Q19.6484 203.451 19.4442 203.315Q19.2401 203.178 19.0429 203.032Q18.8458 202.886 18.656 202.73Q18.4662 202.574 18.2844 202.41Q18.1025 202.245 17.9289 202.071Q17.7553 201.898 17.5904 201.716Q17.4256 201.534 17.2698 201.344Q17.1141 201.154 16.9679 200.957Q16.8216 200.76 16.6852 200.556Q16.5489 200.352 16.4227 200.141Q16.2964 199.93 16.1807 199.714Q16.065 199.497 15.96 199.276Q15.8551 199.054 15.7611 198.827Q15.6672 198.6 15.5845 198.369Q15.5018 198.138 15.4305 197.903Q15.3593 197.668 15.2996 197.43Q15.24 197.192 15.1921 196.951Q15.1442 196.71 15.1082 196.467Q15.0722 196.225 15.0481 195.98Q15.024 195.736 15.012 195.491Q14.9999 195.246 14.9999 195Z" id="Rectangle" fill="#757575" stroke="none" clip-path="url(#clip_1)" transform="scale(1.0000004 1.0000004), rotate(90 35 180)" />
    <path d="M24.9999 256L24.9999 206Q24.9999 205.755 25.012 205.509Q25.024 205.264 25.0481 205.02Q25.0722 204.776 25.1082 204.533Q25.1442 204.29 25.1921 204.049Q25.24 203.808 25.2996 203.57Q25.3593 203.332 25.4305 203.097Q25.5018 202.862 25.5845 202.631Q25.6672 202.4 25.7611 202.173Q25.8551 201.946 25.96 201.724Q26.065 201.503 26.1807 201.286Q26.2964 201.07 26.4227 200.859Q26.5489 200.648 26.6852 200.444Q26.8216 200.24 26.9679 200.043Q27.1141 199.846 27.2698 199.656Q27.4256 199.466 27.5904 199.284Q27.7553 199.103 27.9289 198.929Q28.1025 198.755 28.2844 198.59Q28.4662 198.426 28.656 198.27Q28.8458 198.114 29.0429 197.968Q29.2401 197.822 29.4442 197.685Q29.6484 197.549 29.8589 197.423Q30.0695 197.296 30.286 197.181Q30.5025 197.065 30.7244 196.96Q30.9463 196.855 31.1731 196.761Q31.3999 196.667 31.631 196.585Q31.8622 196.502 32.0971 196.431Q32.332 196.359 32.5701 196.3Q32.8083 196.24 33.049 196.192Q33.2898 196.144 33.5326 196.108Q33.7755 196.072 34.0198 196.048Q34.2641 196.024 34.5093 196.012Q34.7545 196 35 196L55 196Q55.2455 196 55.4906 196.012Q55.7358 196.024 55.9801 196.048Q56.2244 196.072 56.4673 196.108Q56.7101 196.144 56.9509 196.192Q57.1916 196.24 57.4298 196.3Q57.6679 196.359 57.9028 196.431Q58.1377 196.502 58.3689 196.585Q58.6 196.667 58.8268 196.761Q59.0536 196.855 59.2755 196.96Q59.4974 197.065 59.7139 197.181Q59.9304 197.296 60.141 197.423Q60.3516 197.549 60.5557 197.685Q60.7598 197.822 60.957 197.968Q61.1541 198.114 61.3439 198.27Q61.5337 198.426 61.7156 198.59Q61.8975 198.755 62.071 198.929Q62.2446 199.103 62.4095 199.284Q62.5743 199.466 62.7301 199.656Q62.8858 199.846 63.0321 200.043Q63.1783 200.24 63.3147 200.444Q63.4511 200.648 63.5773 200.859Q63.7035 201.07 63.8192 201.286Q63.9349 201.503 64.0399 201.724Q64.1448 201.946 64.2388 202.173Q64.3327 202.4 64.4154 202.631Q64.4981 202.862 64.5694 203.097Q64.6406 203.332 64.7003 203.57Q64.7599 203.808 64.8078 204.049Q64.8557 204.29 64.8917 204.533Q64.9278 204.776 64.9518 205.02Q64.9759 205.264 64.9879 205.509Q65 205.755 65 206L65 256Q65 256.246 64.9879 256.491Q64.9759 256.736 64.9518 256.98Q64.9278 257.225 64.8917 257.467Q64.8557 257.71 64.8078 257.951Q64.7599 258.192 64.7003 258.43Q64.6406 258.668 64.5694 258.903Q64.4981 259.138 64.4154 259.369Q64.3327 259.6 64.2388 259.827Q64.1448 260.054 64.0399 260.276Q63.9349 260.497 63.8192 260.714Q63.7035 260.93 63.5773 261.141Q63.4511 261.352 63.3147 261.556Q63.1783 261.76 63.0321 261.957Q62.8858 262.154 62.7301 262.344Q62.5743 262.534 62.4095 262.716Q62.2446 262.898 62.071 263.071Q61.8975 263.245 61.7156 263.41Q61.5337 263.574 61.3439 263.73Q61.1541 263.886 60.957 264.032Q60.7598 264.178 60.5557 264.315Q60.3516 264.451 60.141 264.577Q59.9304 264.704 59.7139 264.819Q59.4974 264.935 59.2755 265.04Q59.0536 265.145 58.8268 265.239Q58.6 265.333 58.3689 265.415Q58.1377 265.498 57.9028 265.569Q57.6679 265.641 57.4298 265.7Q57.1916 265.76 56.9509 265.808Q56.7101 265.856 56.4673 265.892Q56.2244 265.928 55.9801 265.952Q55.7358 265.976 55.4906 265.988Q55.2455 266 55 266L35 266Q34.7545 266 34.5093 265.988Q34.2641 265.976 34.0198 265.952Q33.7755 265.928 33.5326 265.892Q33.2898 265.856 33.049 265.808Q32.8083 265.76 32.5701 265.7Q32.332 265.641 32.0971 265.569Q31.8622 265.498 31.631 265.415Q31.3999 265.333 31.1731 265.239Q30.9463 265.145 30.7244 265.04Q30.5025 264.935 30.286 264.819Q30.0695 264.704 29.8589 264.577Q29.6484 264.451 29.4442 264.315Q29.2401 264.178 29.0429 264.032Q28.8458 263.886 28.656 263.73Q28.4662 263.574 28.2844 263.41Q28.1025 263.245 27.9289 263.071Q27.7553 262.898 27.5904 262.716Q27.4256 262.534 27.2698 262.344Q27.1141 262.154 26.9679 261.957Q26.8216 261.76 26.6852 261.556Q26.5489 261.352 26.4227 261.141Q26.2964 260.93 26.1807 260.714Q26.065 260.497 25.96 260.276Q25.8551 260.054 25.7611 259.827Q25.6672 259.6 25.5845 259.369Q25.5018 259.138 25.4305 258.903Q25.3593 258.668 25.2996 258.43Q25.24 258.192 25.1921 257.951Q25.1442 257.71 25.1082 257.467Q25.0722 257.225 25.0481 256.98Q25.024 256.736 25.012 256.491Q24.9999 256.246 24.9999 256Z" id="Rectangle" fill="#757575" stroke="none" clip-path="url(#clip_1)" transform="scale(1.0000004 1.0000004), rotate(90 45 231)" />
  </g>
</svg>