<?xml version="1.0" encoding="utf-8"?>
<svg width="270" height="270" viewBox="0 0 270 270" fill="none" xmlns="http://www.w3.org/2000/svg">
  <g>
    <rect width="270" height="270" fill="none" />
    <path id="Rectangle" d="M82 0C86.4189 0 90 3.58112 90 8L90 62C90 66.4189 86.4189 70 82 70L8 70C3.58112 70 0 66.4189 0 62L0 8C0 3.58112 3.58112 0 8 0L82 0Z" transform="translate(13 15)" />
    <path id="Rectangle" d="M82 0C86.4189 0 90 3.58112 90 8L90 62C90 66.4189 86.4189 70 82 70L8 70C3.58112 70 0 66.4189 0 62L0 8C0 3.58112 3.58112 0 8 0L82 0Z" transform="translate(93 100)" />
    <path id="Rectangle" d="M82 0C86.4189 0 90 3.58112 90 8L90 62C90 66.4189 86.4189 70 82 70L8 70C3.58112 70 0 66.4189 0 62L0 8C0 3.58112 3.58112 0 8 0L82 0Z" transform="translate(13 185)" />
    <path id="Rectangle" d="M67 0C71.4189 0 75 3.58112 75 8L75 62C75 66.4189 71.4189 70 67 70L8 70C3.58112 70 0 66.4189 0 62L0 8C0 3.58112 3.58112 0 8 0L67 0Z" transform="translate(118 185)" />
    <path id="Rectangle" d="M42 0C46.4189 0 50 3.58112 50 8L50 62C50 66.4189 46.4189 70 42 70L8 70C3.58112 70 0 66.4189 0 62L0 8C0 3.58112 3.58112 0 8 0L42 0Z" transform="translate(208 185)" />
    <path id="Rectangle" d="M52 0C56.4189 0 60 3.58112 60 8L60 62C60 66.4189 56.4189 70 52 70L8 70C3.58112 70 0 66.4189 0 62L0 8C0 3.58112 3.58112 0 8 0L52 0Z" transform="translate(198 100)" />
    <path id="Rectangle" d="M57 0C61.4189 0 65 3.58112 65 8L65 62C65 66.4189 61.4189 70 57 70L8 70C3.58112 70 0 66.4189 0 62L0 8C0 3.58112 3.58112 0 8 0L57 0Z" transform="translate(13 100)" />
    <path id="Rectangle" d="M72 0C76.4189 0 80 3.58112 80 8L80 62C80 66.4189 76.4189 70 72 70L8 70C3.58112 70 0 66.4189 0 62L0 8C0 3.58112 3.58112 0 8 0L72 0Z" transform="translate(118 15)" />
    <path id="Rectangle" d="M37 0C41.4189 0 45 3.58112 45 8L45 62C45 66.4189 41.4189 70 37 70L8 70C3.58112 70 0 66.4189 0 62L0 8C0 3.58112 3.58112 0 8 0L37 0Z" transform="translate(213 15)" />
  </g>
</svg>