<?xml version="1.0" encoding="utf-8"?>
<svg width="270px" height="270px" viewBox="0 0 270 270" version="1.1" xmlns:xlink="http://www.w3.org/1999/xlink" xmlns="http://www.w3.org/2000/svg">
  <defs>
    <path d="M270 0L270 0L270 270L0 270L0 0L270 0Z" id="path_1" />
    <clipPath id="clip_1">
      <use xlink:href="#path_1" clip-rule="evenodd" fill-rule="evenodd" />
    </clipPath>
  </defs>
  <g id="rowWrap">
    <path d="M270 0L270 0L270 270L0 270L0 0L270 0Z" id="rowWrap" fill="transparent" stroke="none" />
    <path d="M55 10C60.5236 10 65 14.4764 65 20L65 55C65 60.5236 60.5236 65 55 65L20 65C14.4764 65 10 60.5236 10 55L10 20C10 14.4764 14.4764 10 20 10L55 10Z" id="Rectangle" stroke="none" clip-path="url(#clip_1)" />
    <path d="M120 10C125.524 10 130 14.4764 130 20L130 55C130 60.5236 125.524 65 120 65L85 65C79.4764 65 75 60.5236 75 55L75 20C75 14.4764 79.4764 10 85 10L120 10Z" id="Rectangle" stroke="none" clip-path="url(#clip_1)" />
    <path d="M185 10C190.524 10 195 14.4764 195 20L195 55C195 60.5236 190.524 65 185 65L150 65C144.476 65 140 60.5236 140 55L140 20C140 14.4764 144.476 10 150 10L185 10Z" id="Rectangle" stroke="none" clip-path="url(#clip_1)" />
    <path d="M250 10C255.524 10 260 14.4764 260 20L260 55C260 60.5236 255.524 65 250 65L215 65C209.476 65 205 60.5236 205 55L205 20C205 14.4764 209.476 10 215 10L250 10Z" id="Rectangle" stroke="none" clip-path="url(#clip_1)" />
    <path d="M55 75C60.5236 75 65 79.4764 65 85L65 120C65 125.524 60.5236 130 55 130L20 130C14.4764 130 10 125.524 10 120L10 85C10 79.4764 14.4764 75 20 75L55 75Z" id="Rectangle" stroke="none" clip-path="url(#clip_1)" />
    <path d="M120 75C125.524 75 130 79.4764 130 85L130 120C130 125.524 125.524 130 120 130L85 130C79.4764 130 75 125.524 75 120L75 85C75 79.4764 79.4764 75 85 75L120 75Z" id="Rectangle" stroke="none" clip-path="url(#clip_1)" />
    <path d="M185 75C190.524 75 195 79.4764 195 85L195 120C195 125.524 190.524 130 185 130L150 130C144.476 130 140 125.524 140 120L140 85C140 79.4764 144.476 75 150 75L185 75Z" id="Rectangle" stroke="none" clip-path="url(#clip_1)" />
    <path d="M250 75C255.524 75 260 79.4764 260 85L260 120C260 125.524 255.524 130 250 130L215 130C209.476 130 205 125.524 205 120L205 85C205 79.4764 209.476 75 215 75L250 75Z" id="Rectangle" stroke="none" clip-path="url(#clip_1)" />
    <path d="M55 140C60.5236 140 65 144.476 65 150L65 185C65 190.524 60.5236 195 55 195L20 195C14.4764 195 10 190.524 10 185L10 150C10 144.476 14.4764 140 20 140L55 140Z" id="Rectangle" stroke="none" clip-path="url(#clip_1)" />
    <path d="M120 140C125.524 140 130 144.476 130 150L130 185C130 190.524 125.524 195 120 195L85 195C79.4764 195 75 190.524 75 185L75 150C75 144.476 79.4764 140 85 140L120 140Z" id="Rectangle" stroke="none" clip-path="url(#clip_1)" />
    <path d="M185 140C190.524 140 195 144.476 195 150L195 185C195 190.524 190.524 195 185 195L150 195C144.476 195 140 190.524 140 185L140 150C140 144.476 144.476 140 150 140L185 140Z" id="Rectangle" stroke="none" clip-path="url(#clip_1)" />
    <path d="M250 140C255.524 140 260 144.476 260 150L260 185C260 190.524 255.524 195 250 195L215 195C209.476 195 205 190.524 205 185L205 150C205 144.476 209.476 140 215 140L250 140Z" id="Rectangle" stroke="none" clip-path="url(#clip_1)" />
    <path d="M55 205C60.5236 205 65 209.476 65 215L65 250C65 255.524 60.5236 260 55 260L20 260C14.4764 260 10 255.524 10 250L10 215C10 209.476 14.4764 205 20 205L55 205Z" id="Rectangle" stroke="none" clip-path="url(#clip_1)" />
    <path d="M120 205C125.524 205 130 209.476 130 215L130 250C130 255.524 125.524 260 120 260L85 260C79.4764 260 75 255.524 75 250L75 215C75 209.476 79.4764 205 85 205L120 205Z" id="Rectangle" stroke="none" clip-path="url(#clip_1)" />
  </g>
</svg>