<?xml version="1.0" encoding="utf-8"?>
<svg viewBox="0 0 270 270" fill="none" xmlns="http://www.w3.org/2000/svg">
  <g>
    <rect />
    <path id="Rectangle" d="M92 0C96.4189 0 100 3.58112 100 8L100 42C100 46.4189 96.4189 50 92 50L8 50C3.58112 50 0 46.4189 0 42L0 8C0 3.58112 3.58112 0 8 0L92 0Z"  transform="translate(10 10)" />
    <path id="Rectangle" d="M52 0C56.4189 0 60 3.58112 60 8L60 62C60 66.4189 56.4189 70 52 70L8 70C3.58112 70 0 66.4189 0 62L0 8C0 3.58112 3.58112 0 8 0L52 0Z"  transform="translate(10 70)" />
    <path id="Rectangle" d="M102 0C106.419 0 110 3.58112 110 8L110 123C110 127.419 106.419 131 102 131L8 131C3.58112 131 0 127.419 0 123L0 8C0 3.58112 3.58112 0 8 0L102 0Z"  transform="translate(80 70)" />
    <path id="Rectangle" d="M52 0C56.4189 0 60 3.58112 60 8L60 62C60 66.4189 56.4189 70 52 70L8 70C3.58112 70 0 66.4189 0 62L0 8C0 3.58112 3.58112 0 8 0L52 0Z"  transform="translate(200 130)" />
    <path id="Rectangle" d="M62 0C66.4189 0 70 3.58112 70 8L70 42C70 46.4189 66.4189 50 62 50L8 50C3.58112 50 0 46.4189 0 42L0 8C0 3.58112 3.58112 0 8 0L62 0Z"  transform="translate(120 10)" />
    <path id="Rectangle" d="M62 0C66.4189 0 70 3.58112 70 8L70 43C70 47.4189 66.4189 51 62 51L8 51C3.58112 51 0 47.4189 0 43L0 8C0 3.58112 3.58112 0 8 0L62 0Z"  transform="translate(80 210)" />
    <path id="Rectangle" d="M92 0C96.4189 0 100 3.58112 100 8L100 41C100 45.4189 96.4189 49 92 49L8 49C3.58112 49 0 45.4189 0 41L0 8C0 3.58112 3.58112 0 8 0L92 0Z"  transform="translate(160 211)" />
    <path id="Rectangle" d="M52 0C56.4189 0 60 3.58112 60 8L60 102C60 106.419 56.4189 110 52 110L8 110C3.58112 110 0 106.419 0 102L0 8C0 3.58112 3.58112 0 8 0L52 0Z"  transform="translate(10 150)" />
    <path id="Rectangle" d="M52 0C56.4189 0 60 3.58112 60 8L60 102C60 106.419 56.4189 110 52 110L8 110C3.58112 110 0 106.419 0 102L0 8C0 3.58112 3.58112 0 8 0L52 0Z"  transform="translate(200 10)" />
  </g>
</svg>