<?xml version="1.0" encoding="utf-8"?>
<svg viewBox="0 0 270 270" version="1.1" xmlns:xlink="http://www.w3.org/1999/xlink" xmlns="http://www.w3.org/2000/svg">
  <defs>
    <path d="M270 0L270 0L270 270L0 270L0 0L270 0Z" id="path_1" />
    <clipPath id="clip_1">
      <use xlink:href="#path_1" clip-rule="evenodd" fill-rule="evenodd" />
    </clipPath>
  </defs>
  <g id="grid4x4">
    <path d="M270 0L270 0L270 270L0 270L0 0L270 0Z" id="grid4x4" fill="none" stroke="none" />
    <path d="M57 10C61.4189 10 65 13.5811 65 18L65 57C65 61.4189 61.4189 65 57 65L18 65C13.5811 65 10 61.4189 10 57L10 18C10 13.5811 13.5811 10 18 10L57 10Z" id="Rectangle"  stroke="none" clip-path="url(#clip_1)" />
    <path d="M122 10C126.419 10 130 13.5811 130 18L130 57C130 61.4189 126.419 65 122 65L83 65C78.5811 65 75 61.4189 75 57L75 18C75 13.5811 78.5811 10 83 10L122 10Z" id="Rectangle"  stroke="none" clip-path="url(#clip_1)" />
    <path d="M187 10C191.419 10 195 13.5811 195 18L195 57C195 61.4189 191.419 65 187 65L148 65C143.581 65 140 61.4189 140 57L140 18C140 13.5811 143.581 10 148 10L187 10Z" id="Rectangle"  stroke="none" clip-path="url(#clip_1)" />
    <path d="M252 10C256.419 10 260 13.5811 260 18L260 57C260 61.4189 256.419 65 252 65L213 65C208.581 65 205 61.4189 205 57L205 18C205 13.5811 208.581 10 213 10L252 10Z" id="Rectangle"  stroke="none" clip-path="url(#clip_1)" />
    <path d="M57 75C61.4189 75 65 78.5811 65 83L65 122C65 126.419 61.4189 130 57 130L18 130C13.5811 130 10 126.419 10 122L10 83C10 78.5811 13.5811 75 18 75L57 75Z" id="Rectangle"  stroke="none" clip-path="url(#clip_1)" />
    <path d="M122 75C126.419 75 130 78.5811 130 83L130 122C130 126.419 126.419 130 122 130L83 130C78.5811 130 75 126.419 75 122L75 83C75 78.5811 78.5811 75 83 75L122 75Z" id="Rectangle"  stroke="none" clip-path="url(#clip_1)" />
    <path d="M187 75C191.419 75 195 78.5811 195 83L195 122C195 126.419 191.419 130 187 130L148 130C143.581 130 140 126.419 140 122L140 83C140 78.5811 143.581 75 148 75L187 75Z" id="Rectangle"  stroke="none" clip-path="url(#clip_1)" />
    <path d="M252 75C256.419 75 260 78.5811 260 83L260 122C260 126.419 256.419 130 252 130L213 130C208.581 130 205 126.419 205 122L205 83C205 78.5811 208.581 75 213 75L252 75Z" id="Rectangle"  stroke="none" clip-path="url(#clip_1)" />
    <path d="M57 140C61.4189 140 65 143.581 65 148L65 187C65 191.419 61.4189 195 57 195L18 195C13.5811 195 10 191.419 10 187L10 148C10 143.581 13.5811 140 18 140L57 140Z" id="Rectangle"  stroke="none" clip-path="url(#clip_1)" />
    <path d="M122 140C126.419 140 130 143.581 130 148L130 187C130 191.419 126.419 195 122 195L83 195C78.5811 195 75 191.419 75 187L75 148C75 143.581 78.5811 140 83 140L122 140Z" id="Rectangle"  stroke="none" clip-path="url(#clip_1)" />
    <path d="M187 140C191.419 140 195 143.581 195 148L195 187C195 191.419 191.419 195 187 195L148 195C143.581 195 140 191.419 140 187L140 148C140 143.581 143.581 140 148 140L187 140Z" id="Rectangle"  stroke="none" clip-path="url(#clip_1)" />
    <path d="M252 140C256.419 140 260 143.581 260 148L260 187C260 191.419 256.419 195 252 195L213 195C208.581 195 205 191.419 205 187L205 148C205 143.581 208.581 140 213 140L252 140Z" id="Rectangle"  stroke="none" clip-path="url(#clip_1)" />
    <path d="M57 205C61.4189 205 65 208.581 65 213L65 252C65 256.419 61.4189 260 57 260L18 260C13.5811 260 10 256.419 10 252L10 213C10 208.581 13.5811 205 18 205L57 205Z" id="Rectangle"  stroke="none" clip-path="url(#clip_1)" />
    <path d="M122 205C126.419 205 130 208.581 130 213L130 252C130 256.419 126.419 260 122 260L83 260C78.5811 260 75 256.419 75 252L75 213C75 208.581 78.5811 205 83 205L122 205Z" id="Rectangle"  stroke="none" clip-path="url(#clip_1)" />
    <path d="M187 205C191.419 205 195 208.581 195 213L195 252C195 256.419 191.419 260 187 260L148 260C143.581 260 140 256.419 140 252L140 213C140 208.581 143.581 205 148 205L187 205Z" id="Rectangle"  stroke="none" clip-path="url(#clip_1)" />
    <path d="M252 205C256.419 205 260 208.581 260 213L260 252C260 256.419 256.419 260 252 260L213 260C208.581 260 205 256.419 205 252L205 213C205 208.581 208.581 205 213 205L252 205Z" id="Rectangle"  stroke="none" clip-path="url(#clip_1)" />
  </g>
</svg>