<?xml version="1.0" encoding="utf-8"?>
<svg viewBox="0 0 270 270" version="1.1" xmlns:xlink="http://www.w3.org/1999/xlink" xmlns="http://www.w3.org/2000/svg">
  <defs>
    <path d="M270 0L270 0L270 270L0 270L0 0L270 0Z" id="path_1" />
    <clipPath id="clip_1">
      <use xlink:href="#path_1" clip-rule="evenodd" fill-rule="evenodd" />
    </clipPath>
  </defs>
  <g id="HTML5">
    <path d="M270 0L270 0L270 270L0 270L0 0L270 0Z" id="HTML5" fill="none" stroke="none" />
    <path d="M252 10C256.419 10 260 13.5811 260 18L260 32C260 36.4189 256.419 40 252 40L18 40C13.5811 40 10 36.4189 10 32L10 18C10 13.5811 13.5811 10 18 10L252 10Z" id="Rectangle" stroke="none" clip-path="url(#clip_1)" />
    <path d="M52 50C56.4189 50 60 53.5811 60 58L60 212C60 216.419 56.4189 220 52 220L18 220C13.5811 220 10 216.419 10 212L10 58C10 53.5811 13.5811 50 18 50L52 50Z" id="Rectangle" stroke="none" clip-path="url(#clip_1)" />
    <path d="M252 230C256.419 230 260 233.581 260 238L260 252C260 256.419 256.419 260 252 260L18 260C13.5811 260 10 256.419 10 252L10 238C10 233.581 13.5811 230 18 230L252 230Z" id="Rectangle" stroke="none" clip-path="url(#clip_1)" />
    <path d="M252 50C256.419 50 260 53.5811 260 58L260 212C260 216.419 256.419 220 252 220L78 220C73.5811 220 70 216.419 70 212L70 58C70 53.5811 73.5811 50 78 50L252 50Z" id="Rectangle" stroke="none" clip-path="url(#clip_1)" />
  </g>
</svg>