<?xml version="1.0" encoding="utf-8"?>
<svg viewBox="0 0 270 270" fill="none" xmlns="http://www.w3.org/2000/svg">
  <defs>
    <clipPath id="clip_path_1">
      <rect width="270" height="270" />
    </clipPath>
  </defs>
  <g clip-path="url(#clip_path_1)">
    <rect />
    <path id="Rectangle" d="M7.89844 0L62.1016 0Q62.2955 0 62.4891 0.00951401Q62.6828 0.019028 62.8757 0.0380331Q63.0687 0.0570382 63.2605 0.0854886Q63.4523 0.113939 63.6425 0.151766Q63.8326 0.189593 64.0207 0.236706Q64.2088 0.283819 64.3944 0.340104Q64.5799 0.396389 64.7625 0.46171Q64.945 0.527032 65.1242 0.601233Q65.3033 0.675433 65.4786 0.758334Q65.6539 0.841236 65.8249 0.932637Q65.9959 1.02404 66.1622 1.12372Q66.3285 1.2234 66.4897 1.33113Q66.6509 1.43885 66.8066 1.55435Q66.9624 1.66986 67.1123 1.79286Q67.2622 1.91587 67.4058 2.04608Q67.5495 2.17629 67.6866 2.3134Q67.8237 2.4505 67.9539 2.59417Q68.0841 2.73784 68.2071 2.88772Q68.3301 3.0376 68.4456 3.19334Q68.5611 3.34908 68.6689 3.5103Q68.7766 3.67152 68.8763 3.83783Q68.976 4.00414 69.0674 4.17514Q69.1588 4.34614 69.2417 4.52142Q69.3246 4.6967 69.3988 4.87584Q69.473 5.05497 69.5383 5.23753Q69.6036 5.4201 69.6599 5.60564Q69.7162 5.79119 69.7633 5.97927Q69.8104 6.16736 69.8482 6.35753Q69.8861 6.5477 69.9145 6.7395Q69.943 6.93129 69.962 7.12426Q69.981 7.31722 69.9905 7.51088Q70 7.70454 70 7.89844L70 70.1016Q70 70.2955 69.9905 70.4891Q69.981 70.6828 69.962 70.8757Q69.943 71.0687 69.9145 71.2605Q69.8861 71.4523 69.8482 71.6425Q69.8104 71.8326 69.7633 72.0207Q69.7162 72.2088 69.6599 72.3943Q69.6036 72.5799 69.5383 72.7625Q69.473 72.945 69.3988 73.1242Q69.3246 73.3033 69.2417 73.4786Q69.1588 73.6539 69.0674 73.8249Q68.976 73.9958 68.8763 74.1622Q68.7766 74.3285 68.6689 74.4897Q68.5611 74.6509 68.4456 74.8066Q68.3301 74.9624 68.2071 75.1123Q68.0841 75.2622 67.9539 75.4058Q67.8237 75.5495 67.6866 75.6866Q67.5495 75.8237 67.4058 75.9539Q67.2622 76.0841 67.1123 76.2071Q66.9624 76.3301 66.8067 76.4456Q66.6509 76.5611 66.4897 76.6689Q66.3285 76.7766 66.1622 76.8763Q65.9959 76.976 65.8249 77.0674Q65.6539 77.1588 65.4786 77.2417Q65.3033 77.3246 65.1242 77.3988Q64.945 77.473 64.7625 77.5383Q64.5799 77.6036 64.3944 77.6599Q64.2088 77.7162 64.0207 77.7633Q63.8326 77.8104 63.6425 77.8482Q63.4523 77.8861 63.2605 77.9145Q63.0687 77.943 62.8757 77.962Q62.6828 77.981 62.4891 77.9905Q62.2955 78 62.1016 78L28.2573 78L7.89844 78Q7.70454 78 7.51088 77.9905Q7.31722 77.981 7.12426 77.962Q6.93129 77.943 6.7395 77.9145Q6.5477 77.8861 6.35753 77.8482Q6.16736 77.8104 5.97927 77.7633Q5.79119 77.7162 5.60564 77.6599Q5.42009 77.6036 5.23753 77.5383Q5.05497 77.473 4.87584 77.3988Q4.6967 77.3246 4.52142 77.2417Q4.34614 77.1588 4.17514 77.0674Q4.00414 76.976 3.83783 76.8763Q3.67152 76.7766 3.5103 76.6689Q3.34908 76.5611 3.19334 76.4456Q3.0376 76.3301 2.88772 76.2071Q2.73784 76.0841 2.59417 75.9539Q2.4505 75.8237 2.3134 75.6866Q2.17629 75.5495 2.04608 75.4058Q1.91587 75.2622 1.79286 75.1123Q1.66986 74.9624 1.55435 74.8066Q1.43885 74.6509 1.33113 74.4897Q1.2234 74.3285 1.12372 74.1622Q1.02404 73.9958 0.932637 73.8249Q0.841236 73.6539 0.758334 73.4786Q0.675433 73.3033 0.601233 73.1242Q0.527032 72.945 0.46171 72.7625Q0.396389 72.5799 0.340104 72.3944Q0.283819 72.2088 0.236706 72.0207Q0.189593 71.8326 0.151766 71.6425Q0.113939 71.4523 0.0854886 71.2605Q0.0570382 71.0687 0.0380331 70.8757Q0.019028 70.6828 0.00951401 70.4891Q0 70.2955 0 70.1016L0 7.89844Q0 7.70454 0.00951401 7.51088Q0.019028 7.31722 0.0380331 7.12426Q0.0570382 6.93129 0.0854886 6.7395Q0.113939 6.5477 0.151766 6.35753Q0.189593 6.16736 0.236706 5.97927Q0.283819 5.79119 0.340104 5.60564Q0.396389 5.42009 0.46171 5.23753Q0.527032 5.05497 0.601233 4.87584Q0.675433 4.6967 0.758334 4.52142Q0.841236 4.34614 0.932637 4.17514Q1.02404 4.00414 1.12372 3.83783Q1.2234 3.67152 1.33113 3.5103Q1.43885 3.34908 1.55435 3.19334Q1.66986 3.0376 1.79286 2.88772Q1.91587 2.73784 2.04608 2.59417Q2.17629 2.4505 2.3134 2.3134Q2.4505 2.17629 2.59417 2.04608Q2.73784 1.91587 2.88772 1.79286Q3.0376 1.66986 3.19334 1.55435Q3.34908 1.43885 3.5103 1.33113Q3.67152 1.2234 3.83783 1.12372Q4.00414 1.02404 4.17514 0.932637Q4.34614 0.841236 4.52142 0.758334Q4.6967 0.675433 4.87584 0.601233Q5.05497 0.527032 5.23753 0.46171Q5.4201 0.396389 5.60564 0.340104Q5.79119 0.283819 5.97927 0.236706Q6.16736 0.189593 6.35753 0.151766Q6.5477 0.113939 6.7395 0.0854886Q6.93129 0.0570382 7.12426 0.0380331Q7.31722 0.019028 7.51088 0.00951401Q7.70454 0 7.89844 0Z" fill-rule="evenodd" transform="translate(10 10)" />
    <path id="Rectangle" d="M7.89844 0L62.1016 0Q62.2955 0 62.4891 0.00951401Q62.6828 0.019028 62.8757 0.0380331Q63.0687 0.0570382 63.2605 0.0854886Q63.4523 0.113939 63.6425 0.151766Q63.8326 0.189593 64.0207 0.236706Q64.2088 0.283819 64.3944 0.340104Q64.5799 0.396389 64.7625 0.46171Q64.945 0.527032 65.1242 0.601233Q65.3033 0.675433 65.4786 0.758334Q65.6539 0.841236 65.8249 0.932637Q65.9959 1.02404 66.1622 1.12372Q66.3285 1.2234 66.4897 1.33113Q66.6509 1.43885 66.8066 1.55435Q66.9624 1.66986 67.1123 1.79286Q67.2622 1.91587 67.4058 2.04608Q67.5495 2.17629 67.6866 2.3134Q67.8237 2.4505 67.9539 2.59417Q68.0841 2.73784 68.2071 2.88772Q68.3301 3.0376 68.4456 3.19334Q68.5611 3.34908 68.6689 3.5103Q68.7766 3.67152 68.8763 3.83783Q68.976 4.00414 69.0674 4.17514Q69.1588 4.34614 69.2417 4.52142Q69.3246 4.6967 69.3988 4.87584Q69.473 5.05497 69.5383 5.23753Q69.6036 5.4201 69.6599 5.60564Q69.7162 5.79119 69.7633 5.97927Q69.8104 6.16736 69.8482 6.35753Q69.8861 6.5477 69.9145 6.7395Q69.943 6.93129 69.962 7.12426Q69.981 7.31722 69.9905 7.51088Q70 7.70454 70 7.89844L70 68.1016Q70 68.2955 69.9905 68.4891Q69.981 68.6828 69.962 68.8757Q69.943 69.0687 69.9145 69.2605Q69.8861 69.4523 69.8482 69.6425Q69.8104 69.8326 69.7633 70.0207Q69.7162 70.2088 69.6599 70.3944Q69.6036 70.5799 69.5383 70.7625Q69.473 70.945 69.3988 71.1242Q69.3246 71.3033 69.2417 71.4786Q69.1588 71.6539 69.0674 71.8249Q68.976 71.9958 68.8763 72.1622Q68.7766 72.3285 68.6689 72.4897Q68.5611 72.6509 68.4456 72.8067Q68.3301 72.9624 68.2071 73.1123Q68.0841 73.2622 67.9539 73.4058Q67.8237 73.5495 67.6866 73.6866Q67.5495 73.8237 67.4058 73.9539Q67.2622 74.0841 67.1123 74.2071Q66.9624 74.3301 66.8067 74.4456Q66.6509 74.5611 66.4897 74.6689Q66.3285 74.7766 66.1622 74.8763Q65.9959 74.976 65.8249 75.0674Q65.6539 75.1588 65.4786 75.2417Q65.3033 75.3246 65.1242 75.3988Q64.945 75.473 64.7625 75.5383Q64.5799 75.6036 64.3944 75.6599Q64.2088 75.7162 64.0207 75.7633Q63.8326 75.8104 63.6425 75.8482Q63.4523 75.8861 63.2605 75.9145Q63.0687 75.943 62.8757 75.962Q62.6828 75.981 62.4891 75.9905Q62.2955 76 62.1016 76L28.2573 76L7.89844 76Q7.70454 76 7.51088 75.9905Q7.31722 75.981 7.12426 75.962Q6.93129 75.943 6.7395 75.9145Q6.5477 75.8861 6.35753 75.8482Q6.16736 75.8104 5.97927 75.7633Q5.79119 75.7162 5.60564 75.6599Q5.42009 75.6036 5.23753 75.5383Q5.05497 75.473 4.87584 75.3988Q4.6967 75.3246 4.52142 75.2417Q4.34614 75.1588 4.17514 75.0674Q4.00414 74.976 3.83783 74.8763Q3.67152 74.7766 3.5103 74.6689Q3.34908 74.5611 3.19334 74.4456Q3.0376 74.3301 2.88772 74.2071Q2.73784 74.0841 2.59417 73.9539Q2.4505 73.8237 2.3134 73.6866Q2.17629 73.5495 2.04608 73.4058Q1.91587 73.2622 1.79286 73.1123Q1.66986 72.9624 1.55435 72.8067Q1.43885 72.6509 1.33113 72.4897Q1.2234 72.3285 1.12372 72.1622Q1.02404 71.9959 0.932637 71.8249Q0.841236 71.6539 0.758334 71.4786Q0.675433 71.3033 0.601233 71.1242Q0.527032 70.945 0.46171 70.7625Q0.396389 70.5799 0.340104 70.3944Q0.283819 70.2088 0.236706 70.0207Q0.189593 69.8326 0.151766 69.6425Q0.113939 69.4523 0.0854886 69.2605Q0.0570382 69.0687 0.0380331 68.8757Q0.019028 68.6828 0.00951401 68.4891Q0 68.2955 0 68.1016L0 7.89844Q0 7.70454 0.00951401 7.51088Q0.019028 7.31722 0.0380331 7.12426Q0.0570382 6.93129 0.0854886 6.7395Q0.113939 6.5477 0.151766 6.35753Q0.189593 6.16736 0.236706 5.97927Q0.283819 5.79119 0.340104 5.60564Q0.396389 5.42009 0.46171 5.23753Q0.527032 5.05497 0.601233 4.87584Q0.675433 4.6967 0.758334 4.52142Q0.841236 4.34614 0.932637 4.17514Q1.02404 4.00414 1.12372 3.83783Q1.2234 3.67152 1.33113 3.5103Q1.43885 3.34908 1.55435 3.19334Q1.66986 3.0376 1.79286 2.88772Q1.91587 2.73784 2.04608 2.59417Q2.17629 2.4505 2.3134 2.3134Q2.4505 2.17629 2.59417 2.04608Q2.73784 1.91587 2.88772 1.79286Q3.0376 1.66986 3.19334 1.55435Q3.34908 1.43885 3.5103 1.33113Q3.67152 1.2234 3.83783 1.12372Q4.00414 1.02404 4.17514 0.932637Q4.34614 0.841236 4.52142 0.758334Q4.6967 0.675433 4.87584 0.601233Q5.05497 0.527032 5.23753 0.46171Q5.4201 0.396389 5.60564 0.340104Q5.79119 0.283819 5.97927 0.236706Q6.16736 0.189593 6.35753 0.151766Q6.5477 0.113939 6.7395 0.0854886Q6.93129 0.0570382 7.12426 0.0380331Q7.31722 0.019028 7.51088 0.00951401Q7.70454 0 7.89844 0Z" fill-rule="evenodd" transform="translate(10 96)" />
    <path id="Rectangle" d="M7.89844 0L62.1016 0Q62.2955 0 62.4891 0.00951401Q62.6828 0.019028 62.8757 0.0380331Q63.0687 0.0570382 63.2605 0.0854886Q63.4523 0.113939 63.6425 0.151766Q63.8326 0.189593 64.0207 0.236706Q64.2088 0.283819 64.3944 0.340104Q64.5799 0.396389 64.7625 0.46171Q64.945 0.527032 65.1242 0.601233Q65.3033 0.675433 65.4786 0.758334Q65.6539 0.841236 65.8249 0.932637Q65.9959 1.02404 66.1622 1.12372Q66.3285 1.2234 66.4897 1.33113Q66.6509 1.43885 66.8066 1.55435Q66.9624 1.66986 67.1123 1.79286Q67.2622 1.91587 67.4058 2.04608Q67.5495 2.17629 67.6866 2.3134Q67.8237 2.4505 67.9539 2.59417Q68.0841 2.73784 68.2071 2.88772Q68.3301 3.0376 68.4456 3.19334Q68.5611 3.34908 68.6689 3.5103Q68.7766 3.67152 68.8763 3.83783Q68.976 4.00414 69.0674 4.17514Q69.1588 4.34614 69.2417 4.52142Q69.3246 4.6967 69.3988 4.87584Q69.473 5.05497 69.5383 5.23753Q69.6036 5.4201 69.6599 5.60564Q69.7162 5.79119 69.7633 5.97927Q69.8104 6.16736 69.8482 6.35753Q69.8861 6.5477 69.9145 6.7395Q69.943 6.93129 69.962 7.12426Q69.981 7.31722 69.9905 7.51088Q70 7.70454 70 7.89844L70 70.1016Q70 70.2955 69.9905 70.4891Q69.981 70.6828 69.962 70.8757Q69.943 71.0687 69.9145 71.2605Q69.8861 71.4523 69.8482 71.6425Q69.8104 71.8326 69.7633 72.0207Q69.7162 72.2088 69.6599 72.3943Q69.6036 72.5799 69.5383 72.7625Q69.473 72.945 69.3988 73.1242Q69.3246 73.3033 69.2417 73.4786Q69.1588 73.6538 69.0674 73.8249Q68.976 73.9958 68.8763 74.1622Q68.7766 74.3285 68.6689 74.4897Q68.5611 74.6509 68.4456 74.8066Q68.3301 74.9624 68.2071 75.1123Q68.0841 75.2622 67.9539 75.4058Q67.8237 75.5495 67.6866 75.6866Q67.5495 75.8237 67.4058 75.9539Q67.2622 76.0841 67.1123 76.2071Q66.9624 76.3301 66.8067 76.4456Q66.6509 76.5611 66.4897 76.6689Q66.3285 76.7766 66.1622 76.8763Q65.9959 76.976 65.8249 77.0674Q65.6539 77.1588 65.4786 77.2417Q65.3033 77.3246 65.1242 77.3988Q64.945 77.473 64.7625 77.5383Q64.5799 77.6036 64.3944 77.6599Q64.2088 77.7162 64.0207 77.7633Q63.8326 77.8104 63.6425 77.8482Q63.4523 77.8861 63.2605 77.9145Q63.0687 77.943 62.8757 77.962Q62.6828 77.981 62.4891 77.9905Q62.2955 78 62.1016 78L28.2573 78L7.89844 78Q7.70454 78 7.51088 77.9905Q7.31722 77.981 7.12426 77.962Q6.93129 77.943 6.7395 77.9145Q6.5477 77.8861 6.35753 77.8482Q6.16736 77.8104 5.97927 77.7633Q5.79119 77.7162 5.60564 77.6599Q5.42009 77.6036 5.23753 77.5383Q5.05497 77.473 4.87584 77.3988Q4.6967 77.3246 4.52142 77.2417Q4.34614 77.1588 4.17514 77.0674Q4.00414 76.976 3.83783 76.8763Q3.67152 76.7766 3.5103 76.6689Q3.34908 76.5611 3.19334 76.4456Q3.0376 76.3301 2.88772 76.2071Q2.73784 76.0841 2.59417 75.9539Q2.4505 75.8237 2.3134 75.6866Q2.17629 75.5495 2.04608 75.4058Q1.91587 75.2621 1.79286 75.1123Q1.66986 74.9624 1.55435 74.8066Q1.43885 74.6509 1.33113 74.4897Q1.2234 74.3285 1.12372 74.1622Q1.02404 73.9958 0.932637 73.8249Q0.841236 73.6538 0.758334 73.4786Q0.675433 73.3033 0.601233 73.1242Q0.527032 72.945 0.46171 72.7625Q0.396389 72.5799 0.340104 72.3943Q0.283819 72.2088 0.236706 72.0207Q0.189593 71.8326 0.151766 71.6425Q0.113939 71.4523 0.0854886 71.2605Q0.0570382 71.0687 0.0380331 70.8757Q0.019028 70.6828 0.00951401 70.4891Q0 70.2955 0 70.1016L0 7.89844Q0 7.70454 0.00951401 7.51088Q0.019028 7.31722 0.0380331 7.12426Q0.0570382 6.93129 0.0854886 6.7395Q0.113939 6.5477 0.151766 6.35753Q0.189593 6.16736 0.236706 5.97927Q0.283819 5.79119 0.340104 5.60564Q0.396389 5.42009 0.46171 5.23753Q0.527032 5.05497 0.601233 4.87584Q0.675433 4.6967 0.758334 4.52142Q0.841236 4.34614 0.932637 4.17514Q1.02404 4.00414 1.12372 3.83783Q1.2234 3.67152 1.33113 3.5103Q1.43885 3.34908 1.55435 3.19334Q1.66986 3.0376 1.79286 2.88772Q1.91587 2.73784 2.04608 2.59417Q2.17629 2.4505 2.3134 2.3134Q2.4505 2.17629 2.59417 2.04608Q2.73784 1.91587 2.88772 1.79286Q3.0376 1.66986 3.19334 1.55435Q3.34908 1.43885 3.5103 1.33113Q3.67152 1.2234 3.83783 1.12372Q4.00414 1.02404 4.17514 0.932637Q4.34614 0.841236 4.52142 0.758334Q4.6967 0.675433 4.87584 0.601233Q5.05497 0.527032 5.23753 0.46171Q5.4201 0.396389 5.60564 0.340104Q5.79119 0.283819 5.97927 0.236706Q6.16736 0.189593 6.35753 0.151766Q6.5477 0.113939 6.7395 0.0854886Q6.93129 0.0570382 7.12426 0.0380331Q7.31722 0.019028 7.51088 0.00951401Q7.70454 0 7.89844 0Z" fill-rule="evenodd" transform="translate(10 182)" />
    <path id="Rectangle" d="M7.89844 0L62.1016 0Q62.2955 0 62.4891 0.00951401Q62.6828 0.019028 62.8757 0.0380331Q63.0687 0.0570382 63.2605 0.0854886Q63.4523 0.113939 63.6425 0.151766Q63.8326 0.189593 64.0207 0.236706Q64.2088 0.283819 64.3944 0.340104Q64.5799 0.396389 64.7625 0.46171Q64.945 0.527032 65.1242 0.601233Q65.3033 0.675433 65.4786 0.758334Q65.6539 0.841236 65.8249 0.932637Q65.9959 1.02404 66.1622 1.12372Q66.3285 1.2234 66.4897 1.33113Q66.6509 1.43885 66.8066 1.55435Q66.9624 1.66986 67.1123 1.79286Q67.2622 1.91587 67.4058 2.04608Q67.5495 2.17629 67.6866 2.3134Q67.8237 2.4505 67.9539 2.59417Q68.0841 2.73784 68.2071 2.88772Q68.3301 3.0376 68.4456 3.19334Q68.5611 3.34908 68.6689 3.5103Q68.7766 3.67152 68.8763 3.83783Q68.976 4.00414 69.0674 4.17514Q69.1588 4.34614 69.2417 4.52142Q69.3246 4.6967 69.3988 4.87584Q69.473 5.05497 69.5383 5.23753Q69.6036 5.4201 69.6599 5.60564Q69.7162 5.79119 69.7633 5.97927Q69.8104 6.16736 69.8482 6.35753Q69.8861 6.5477 69.9145 6.7395Q69.943 6.93129 69.962 7.12426Q69.981 7.31722 69.9905 7.51088Q70 7.70454 70 7.89844L70 70.1016Q70 70.2955 69.9905 70.4891Q69.981 70.6828 69.962 70.8757Q69.943 71.0687 69.9145 71.2605Q69.8861 71.4523 69.8482 71.6425Q69.8104 71.8326 69.7633 72.0207Q69.7162 72.2088 69.6599 72.3943Q69.6036 72.5799 69.5383 72.7625Q69.473 72.945 69.3988 73.1242Q69.3246 73.3033 69.2417 73.4786Q69.1588 73.6539 69.0674 73.8249Q68.976 73.9958 68.8763 74.1622Q68.7766 74.3285 68.6689 74.4897Q68.5611 74.6509 68.4456 74.8066Q68.3301 74.9624 68.2071 75.1123Q68.0841 75.2622 67.9539 75.4058Q67.8237 75.5495 67.6866 75.6866Q67.5495 75.8237 67.4058 75.9539Q67.2622 76.0841 67.1123 76.2071Q66.9624 76.3301 66.8067 76.4456Q66.6509 76.5611 66.4897 76.6689Q66.3285 76.7766 66.1622 76.8763Q65.9959 76.976 65.8249 77.0674Q65.6539 77.1588 65.4786 77.2417Q65.3033 77.3246 65.1242 77.3988Q64.945 77.473 64.7625 77.5383Q64.5799 77.6036 64.3944 77.6599Q64.2088 77.7162 64.0207 77.7633Q63.8326 77.8104 63.6425 77.8482Q63.4523 77.8861 63.2605 77.9145Q63.0687 77.943 62.8757 77.962Q62.6828 77.981 62.4891 77.9905Q62.2955 78 62.1016 78L28.2573 78L7.89844 78Q7.70454 78 7.51088 77.9905Q7.31722 77.981 7.12426 77.962Q6.93129 77.943 6.7395 77.9145Q6.5477 77.8861 6.35753 77.8482Q6.16736 77.8104 5.97927 77.7633Q5.79119 77.7162 5.60564 77.6599Q5.42009 77.6036 5.23753 77.5383Q5.05497 77.473 4.87584 77.3988Q4.6967 77.3246 4.52142 77.2417Q4.34614 77.1588 4.17514 77.0674Q4.00414 76.976 3.83783 76.8763Q3.67152 76.7766 3.5103 76.6689Q3.34908 76.5611 3.19334 76.4456Q3.0376 76.3301 2.88772 76.2071Q2.73784 76.0841 2.59417 75.9539Q2.4505 75.8237 2.3134 75.6866Q2.17629 75.5495 2.04608 75.4058Q1.91587 75.2622 1.79286 75.1123Q1.66986 74.9624 1.55435 74.8066Q1.43885 74.6509 1.33113 74.4897Q1.2234 74.3285 1.12372 74.1622Q1.02404 73.9958 0.932637 73.8249Q0.841236 73.6539 0.758334 73.4786Q0.675433 73.3033 0.601233 73.1242Q0.527032 72.945 0.46171 72.7625Q0.396389 72.5799 0.340104 72.3944Q0.283819 72.2088 0.236706 72.0207Q0.189593 71.8326 0.151766 71.6425Q0.113939 71.4523 0.0854886 71.2605Q0.0570382 71.0687 0.0380331 70.8757Q0.019028 70.6828 0.00951401 70.4891Q0 70.2955 0 70.1016L0 7.89844Q0 7.70454 0.00951401 7.51088Q0.019028 7.31722 0.0380331 7.12426Q0.0570382 6.93129 0.0854886 6.7395Q0.113939 6.5477 0.151766 6.35753Q0.189593 6.16736 0.236706 5.97927Q0.283819 5.79119 0.340104 5.60564Q0.396389 5.42009 0.46171 5.23753Q0.527032 5.05497 0.601233 4.87584Q0.675433 4.6967 0.758334 4.52142Q0.841236 4.34614 0.932637 4.17514Q1.02404 4.00414 1.12372 3.83783Q1.2234 3.67152 1.33113 3.5103Q1.43885 3.34908 1.55435 3.19334Q1.66986 3.0376 1.79286 2.88772Q1.91587 2.73784 2.04608 2.59417Q2.17629 2.4505 2.3134 2.3134Q2.4505 2.17629 2.59417 2.04608Q2.73784 1.91587 2.88772 1.79286Q3.0376 1.66986 3.19334 1.55435Q3.34908 1.43885 3.5103 1.33113Q3.67152 1.2234 3.83783 1.12372Q4.00414 1.02404 4.17514 0.932637Q4.34614 0.841236 4.52142 0.758334Q4.6967 0.675433 4.87584 0.601233Q5.05497 0.527032 5.23753 0.46171Q5.4201 0.396389 5.60564 0.340104Q5.79119 0.283819 5.97927 0.236706Q6.16736 0.189593 6.35753 0.151766Q6.5477 0.113939 6.7395 0.0854886Q6.93129 0.0570382 7.12426 0.0380331Q7.31722 0.019028 7.51088 0.00951401Q7.70454 0 7.89844 0Z" fill-rule="evenodd" transform="translate(90 10)" />
    <path id="Rectangle" d="M7.89844 0L62.1016 0Q62.2955 0 62.4891 0.00951401Q62.6828 0.019028 62.8757 0.0380331Q63.0687 0.0570382 63.2605 0.0854886Q63.4523 0.113939 63.6425 0.151766Q63.8326 0.189593 64.0207 0.236706Q64.2088 0.283819 64.3944 0.340104Q64.5799 0.396389 64.7625 0.46171Q64.945 0.527032 65.1242 0.601233Q65.3033 0.675433 65.4786 0.758334Q65.6539 0.841236 65.8249 0.932637Q65.9959 1.02404 66.1622 1.12372Q66.3285 1.2234 66.4897 1.33113Q66.6509 1.43885 66.8066 1.55435Q66.9624 1.66986 67.1123 1.79286Q67.2622 1.91587 67.4058 2.04608Q67.5495 2.17629 67.6866 2.3134Q67.8237 2.4505 67.9539 2.59417Q68.0841 2.73784 68.2071 2.88772Q68.3301 3.0376 68.4456 3.19334Q68.5611 3.34908 68.6689 3.5103Q68.7766 3.67152 68.8763 3.83783Q68.976 4.00414 69.0674 4.17514Q69.1588 4.34614 69.2417 4.52142Q69.3246 4.6967 69.3988 4.87584Q69.473 5.05497 69.5383 5.23753Q69.6036 5.4201 69.6599 5.60564Q69.7162 5.79119 69.7633 5.97927Q69.8104 6.16736 69.8482 6.35753Q69.8861 6.5477 69.9145 6.7395Q69.943 6.93129 69.962 7.12426Q69.981 7.31722 69.9905 7.51088Q70 7.70454 70 7.89844L70 68.1016Q70 68.2955 69.9905 68.4891Q69.981 68.6828 69.962 68.8757Q69.943 69.0687 69.9145 69.2605Q69.8861 69.4523 69.8482 69.6425Q69.8104 69.8326 69.7633 70.0207Q69.7162 70.2088 69.6599 70.3944Q69.6036 70.5799 69.5383 70.7625Q69.473 70.945 69.3988 71.1242Q69.3246 71.3033 69.2417 71.4786Q69.1588 71.6539 69.0674 71.8249Q68.976 71.9958 68.8763 72.1622Q68.7766 72.3285 68.6689 72.4897Q68.5611 72.6509 68.4456 72.8067Q68.3301 72.9624 68.2071 73.1123Q68.0841 73.2622 67.9539 73.4058Q67.8237 73.5495 67.6866 73.6866Q67.5495 73.8237 67.4058 73.9539Q67.2622 74.0841 67.1123 74.2071Q66.9624 74.3301 66.8067 74.4456Q66.6509 74.5611 66.4897 74.6689Q66.3285 74.7766 66.1622 74.8763Q65.9959 74.976 65.8249 75.0674Q65.6539 75.1588 65.4786 75.2417Q65.3033 75.3246 65.1242 75.3988Q64.945 75.473 64.7625 75.5383Q64.5799 75.6036 64.3944 75.6599Q64.2088 75.7162 64.0207 75.7633Q63.8326 75.8104 63.6425 75.8482Q63.4523 75.8861 63.2605 75.9145Q63.0687 75.943 62.8757 75.962Q62.6828 75.981 62.4891 75.9905Q62.2955 76 62.1016 76L28.2573 76L7.89844 76Q7.70454 76 7.51088 75.9905Q7.31722 75.981 7.12426 75.962Q6.93129 75.943 6.7395 75.9145Q6.5477 75.8861 6.35753 75.8482Q6.16736 75.8104 5.97927 75.7633Q5.79119 75.7162 5.60564 75.6599Q5.42009 75.6036 5.23753 75.5383Q5.05497 75.473 4.87584 75.3988Q4.6967 75.3246 4.52142 75.2417Q4.34614 75.1588 4.17514 75.0674Q4.00414 74.976 3.83783 74.8763Q3.67152 74.7766 3.5103 74.6689Q3.34908 74.5611 3.19334 74.4456Q3.0376 74.3301 2.88772 74.2071Q2.73784 74.0841 2.59417 73.9539Q2.4505 73.8237 2.3134 73.6866Q2.17629 73.5495 2.04608 73.4058Q1.91587 73.2622 1.79286 73.1123Q1.66986 72.9624 1.55435 72.8067Q1.43885 72.6509 1.33113 72.4897Q1.2234 72.3285 1.12372 72.1622Q1.02404 71.9959 0.932637 71.8249Q0.841236 71.6539 0.758334 71.4786Q0.675433 71.3033 0.601233 71.1242Q0.527032 70.945 0.46171 70.7625Q0.396389 70.5799 0.340104 70.3944Q0.283819 70.2088 0.236706 70.0207Q0.189593 69.8326 0.151766 69.6425Q0.113939 69.4523 0.0854886 69.2605Q0.0570382 69.0687 0.0380331 68.8757Q0.019028 68.6828 0.00951401 68.4891Q0 68.2955 0 68.1016L0 7.89844Q0 7.70454 0.00951401 7.51088Q0.019028 7.31722 0.0380331 7.12426Q0.0570382 6.93129 0.0854886 6.7395Q0.113939 6.5477 0.151766 6.35753Q0.189593 6.16736 0.236706 5.97927Q0.283819 5.79119 0.340104 5.60564Q0.396389 5.42009 0.46171 5.23753Q0.527032 5.05497 0.601233 4.87584Q0.675433 4.6967 0.758334 4.52142Q0.841236 4.34614 0.932637 4.17514Q1.02404 4.00414 1.12372 3.83783Q1.2234 3.67152 1.33113 3.5103Q1.43885 3.34908 1.55435 3.19334Q1.66986 3.0376 1.79286 2.88772Q1.91587 2.73784 2.04608 2.59417Q2.17629 2.4505 2.3134 2.3134Q2.4505 2.17629 2.59417 2.04608Q2.73784 1.91587 2.88772 1.79286Q3.0376 1.66986 3.19334 1.55435Q3.34908 1.43885 3.5103 1.33113Q3.67152 1.2234 3.83783 1.12372Q4.00414 1.02404 4.17514 0.932637Q4.34614 0.841236 4.52142 0.758334Q4.6967 0.675433 4.87584 0.601233Q5.05497 0.527032 5.23753 0.46171Q5.4201 0.396389 5.60564 0.340104Q5.79119 0.283819 5.97927 0.236706Q6.16736 0.189593 6.35753 0.151766Q6.5477 0.113939 6.7395 0.0854886Q6.93129 0.0570382 7.12426 0.0380331Q7.31722 0.019028 7.51088 0.00951401Q7.70454 0 7.89844 0Z" fill-rule="evenodd" transform="translate(90 96)" />
    <path id="Rectangle" d="M7.89844 0L62.1016 0Q62.2955 0 62.4891 0.00951401Q62.6828 0.019028 62.8757 0.0380331Q63.0687 0.0570382 63.2605 0.0854886Q63.4523 0.113939 63.6425 0.151766Q63.8326 0.189593 64.0207 0.236706Q64.2088 0.283819 64.3944 0.340104Q64.5799 0.396389 64.7625 0.46171Q64.945 0.527032 65.1242 0.601233Q65.3033 0.675433 65.4786 0.758334Q65.6539 0.841236 65.8249 0.932637Q65.9959 1.02404 66.1622 1.12372Q66.3285 1.2234 66.4897 1.33113Q66.6509 1.43885 66.8066 1.55435Q66.9624 1.66986 67.1123 1.79286Q67.2622 1.91587 67.4058 2.04608Q67.5495 2.17629 67.6866 2.3134Q67.8237 2.4505 67.9539 2.59417Q68.0841 2.73784 68.2071 2.88772Q68.3301 3.0376 68.4456 3.19334Q68.5611 3.34908 68.6689 3.5103Q68.7766 3.67152 68.8763 3.83783Q68.976 4.00414 69.0674 4.17514Q69.1588 4.34614 69.2417 4.52142Q69.3246 4.6967 69.3988 4.87584Q69.473 5.05497 69.5383 5.23753Q69.6036 5.4201 69.6599 5.60564Q69.7162 5.79119 69.7633 5.97927Q69.8104 6.16736 69.8482 6.35753Q69.8861 6.5477 69.9145 6.7395Q69.943 6.93129 69.962 7.12426Q69.981 7.31722 69.9905 7.51088Q70 7.70454 70 7.89844L70 70.1016Q70 70.2955 69.9905 70.4891Q69.981 70.6828 69.962 70.8757Q69.943 71.0687 69.9145 71.2605Q69.8861 71.4523 69.8482 71.6425Q69.8104 71.8326 69.7633 72.0207Q69.7162 72.2088 69.6599 72.3943Q69.6036 72.5799 69.5383 72.7625Q69.473 72.945 69.3988 73.1242Q69.3246 73.3033 69.2417 73.4786Q69.1588 73.6538 69.0674 73.8249Q68.976 73.9958 68.8763 74.1622Q68.7766 74.3285 68.6689 74.4897Q68.5611 74.6509 68.4456 74.8066Q68.3301 74.9624 68.2071 75.1123Q68.0841 75.2622 67.9539 75.4058Q67.8237 75.5495 67.6866 75.6866Q67.5495 75.8237 67.4058 75.9539Q67.2622 76.0841 67.1123 76.2071Q66.9624 76.3301 66.8067 76.4456Q66.6509 76.5611 66.4897 76.6689Q66.3285 76.7766 66.1622 76.8763Q65.9959 76.976 65.8249 77.0674Q65.6539 77.1588 65.4786 77.2417Q65.3033 77.3246 65.1242 77.3988Q64.945 77.473 64.7625 77.5383Q64.5799 77.6036 64.3944 77.6599Q64.2088 77.7162 64.0207 77.7633Q63.8326 77.8104 63.6425 77.8482Q63.4523 77.8861 63.2605 77.9145Q63.0687 77.943 62.8757 77.962Q62.6828 77.981 62.4891 77.9905Q62.2955 78 62.1016 78L28.2573 78L7.89844 78Q7.70454 78 7.51088 77.9905Q7.31722 77.981 7.12426 77.962Q6.93129 77.943 6.7395 77.9145Q6.5477 77.8861 6.35753 77.8482Q6.16736 77.8104 5.97927 77.7633Q5.79119 77.7162 5.60564 77.6599Q5.42009 77.6036 5.23753 77.5383Q5.05497 77.473 4.87584 77.3988Q4.6967 77.3246 4.52142 77.2417Q4.34614 77.1588 4.17514 77.0674Q4.00414 76.976 3.83783 76.8763Q3.67152 76.7766 3.5103 76.6689Q3.34908 76.5611 3.19334 76.4456Q3.0376 76.3301 2.88772 76.2071Q2.73784 76.0841 2.59417 75.9539Q2.4505 75.8237 2.3134 75.6866Q2.17629 75.5495 2.04608 75.4058Q1.91587 75.2621 1.79286 75.1123Q1.66986 74.9624 1.55435 74.8066Q1.43885 74.6509 1.33113 74.4897Q1.2234 74.3285 1.12372 74.1622Q1.02404 73.9958 0.932637 73.8249Q0.841236 73.6538 0.758334 73.4786Q0.675433 73.3033 0.601233 73.1242Q0.527032 72.945 0.46171 72.7625Q0.396389 72.5799 0.340104 72.3943Q0.283819 72.2088 0.236706 72.0207Q0.189593 71.8326 0.151766 71.6425Q0.113939 71.4523 0.0854886 71.2605Q0.0570382 71.0687 0.0380331 70.8757Q0.019028 70.6828 0.00951401 70.4891Q0 70.2955 0 70.1016L0 7.89844Q0 7.70454 0.00951401 7.51088Q0.019028 7.31722 0.0380331 7.12426Q0.0570382 6.93129 0.0854886 6.7395Q0.113939 6.5477 0.151766 6.35753Q0.189593 6.16736 0.236706 5.97927Q0.283819 5.79119 0.340104 5.60564Q0.396389 5.42009 0.46171 5.23753Q0.527032 5.05497 0.601233 4.87584Q0.675433 4.6967 0.758334 4.52142Q0.841236 4.34614 0.932637 4.17514Q1.02404 4.00414 1.12372 3.83783Q1.2234 3.67152 1.33113 3.5103Q1.43885 3.34908 1.55435 3.19334Q1.66986 3.0376 1.79286 2.88772Q1.91587 2.73784 2.04608 2.59417Q2.17629 2.4505 2.3134 2.3134Q2.4505 2.17629 2.59417 2.04608Q2.73784 1.91587 2.88772 1.79286Q3.0376 1.66986 3.19334 1.55435Q3.34908 1.43885 3.5103 1.33113Q3.67152 1.2234 3.83783 1.12372Q4.00414 1.02404 4.17514 0.932637Q4.34614 0.841236 4.52142 0.758334Q4.6967 0.675433 4.87584 0.601233Q5.05497 0.527032 5.23753 0.46171Q5.4201 0.396389 5.60564 0.340104Q5.79119 0.283819 5.97927 0.236706Q6.16736 0.189593 6.35753 0.151766Q6.5477 0.113939 6.7395 0.0854886Q6.93129 0.0570382 7.12426 0.0380331Q7.31722 0.019028 7.51088 0.00951401Q7.70454 0 7.89844 0Z" fill-rule="evenodd" transform="translate(90 182)" />
    <path id="Rectangle" d="M7.89844 0L62.1016 0Q62.2955 0 62.4891 0.00951401Q62.6828 0.019028 62.8757 0.0380331Q63.0687 0.0570382 63.2605 0.0854886Q63.4523 0.113939 63.6425 0.151766Q63.8326 0.189593 64.0207 0.236706Q64.2088 0.283819 64.3944 0.340104Q64.5799 0.396389 64.7625 0.46171Q64.945 0.527032 65.1242 0.601233Q65.3033 0.675433 65.4786 0.758334Q65.6539 0.841236 65.8249 0.932637Q65.9959 1.02404 66.1622 1.12372Q66.3285 1.2234 66.4897 1.33113Q66.6509 1.43885 66.8066 1.55435Q66.9624 1.66986 67.1123 1.79286Q67.2622 1.91587 67.4058 2.04608Q67.5495 2.17629 67.6866 2.3134Q67.8237 2.4505 67.9539 2.59417Q68.0841 2.73784 68.2071 2.88772Q68.3301 3.0376 68.4456 3.19334Q68.5611 3.34908 68.6689 3.5103Q68.7766 3.67152 68.8763 3.83783Q68.976 4.00414 69.0674 4.17514Q69.1588 4.34614 69.2417 4.52142Q69.3246 4.6967 69.3988 4.87584Q69.473 5.05497 69.5383 5.23753Q69.6036 5.4201 69.6599 5.60564Q69.7162 5.79119 69.7633 5.97927Q69.8104 6.16736 69.8482 6.35753Q69.8861 6.5477 69.9145 6.7395Q69.943 6.93129 69.962 7.12426Q69.981 7.31722 69.9905 7.51088Q70 7.70454 70 7.89844L70 70.1016Q70 70.2955 69.9905 70.4891Q69.981 70.6828 69.962 70.8757Q69.943 71.0687 69.9145 71.2605Q69.8861 71.4523 69.8482 71.6425Q69.8104 71.8326 69.7633 72.0207Q69.7162 72.2088 69.6599 72.3943Q69.6036 72.5799 69.5383 72.7625Q69.473 72.945 69.3988 73.1242Q69.3246 73.3033 69.2417 73.4786Q69.1588 73.6539 69.0674 73.8249Q68.976 73.9958 68.8763 74.1622Q68.7766 74.3285 68.6689 74.4897Q68.5611 74.6509 68.4456 74.8066Q68.3301 74.9624 68.2071 75.1123Q68.0841 75.2622 67.9539 75.4058Q67.8237 75.5495 67.6866 75.6866Q67.5495 75.8237 67.4058 75.9539Q67.2622 76.0841 67.1123 76.2071Q66.9624 76.3301 66.8067 76.4456Q66.6509 76.5611 66.4897 76.6689Q66.3285 76.7766 66.1622 76.8763Q65.9959 76.976 65.8249 77.0674Q65.6539 77.1588 65.4786 77.2417Q65.3033 77.3246 65.1242 77.3988Q64.945 77.473 64.7625 77.5383Q64.5799 77.6036 64.3944 77.6599Q64.2088 77.7162 64.0207 77.7633Q63.8326 77.8104 63.6425 77.8482Q63.4523 77.8861 63.2605 77.9145Q63.0687 77.943 62.8757 77.962Q62.6828 77.981 62.4891 77.9905Q62.2955 78 62.1016 78L28.2573 78L7.89844 78Q7.70454 78 7.51088 77.9905Q7.31722 77.981 7.12426 77.962Q6.93129 77.943 6.7395 77.9145Q6.5477 77.8861 6.35753 77.8482Q6.16736 77.8104 5.97927 77.7633Q5.79119 77.7162 5.60564 77.6599Q5.42009 77.6036 5.23753 77.5383Q5.05497 77.473 4.87584 77.3988Q4.6967 77.3246 4.52142 77.2417Q4.34614 77.1588 4.17514 77.0674Q4.00414 76.976 3.83783 76.8763Q3.67152 76.7766 3.5103 76.6689Q3.34908 76.5611 3.19334 76.4456Q3.0376 76.3301 2.88772 76.2071Q2.73784 76.0841 2.59417 75.9539Q2.4505 75.8237 2.3134 75.6866Q2.17629 75.5495 2.04608 75.4058Q1.91587 75.2622 1.79286 75.1123Q1.66986 74.9624 1.55435 74.8066Q1.43885 74.6509 1.33113 74.4897Q1.2234 74.3285 1.12372 74.1622Q1.02404 73.9958 0.932637 73.8249Q0.841236 73.6539 0.758334 73.4786Q0.675433 73.3033 0.601233 73.1242Q0.527032 72.945 0.46171 72.7625Q0.396389 72.5799 0.340104 72.3944Q0.283819 72.2088 0.236706 72.0207Q0.189593 71.8326 0.151766 71.6425Q0.113939 71.4523 0.0854886 71.2605Q0.0570382 71.0687 0.0380331 70.8757Q0.019028 70.6828 0.00951401 70.4891Q0 70.2955 0 70.1016L0 7.89844Q0 7.70454 0.00951401 7.51088Q0.019028 7.31722 0.0380331 7.12426Q0.0570382 6.93129 0.0854886 6.7395Q0.113939 6.5477 0.151766 6.35753Q0.189593 6.16736 0.236706 5.97927Q0.283819 5.79119 0.340104 5.60564Q0.396389 5.42009 0.46171 5.23753Q0.527032 5.05497 0.601233 4.87584Q0.675433 4.6967 0.758334 4.52142Q0.841236 4.34614 0.932637 4.17514Q1.02404 4.00414 1.12372 3.83783Q1.2234 3.67152 1.33113 3.5103Q1.43885 3.34908 1.55435 3.19334Q1.66986 3.0376 1.79286 2.88772Q1.91587 2.73784 2.04608 2.59417Q2.17629 2.4505 2.3134 2.3134Q2.4505 2.17629 2.59417 2.04608Q2.73784 1.91587 2.88772 1.79286Q3.0376 1.66986 3.19334 1.55435Q3.34908 1.43885 3.5103 1.33113Q3.67152 1.2234 3.83783 1.12372Q4.00414 1.02404 4.17514 0.932637Q4.34614 0.841236 4.52142 0.758334Q4.6967 0.675433 4.87584 0.601233Q5.05497 0.527032 5.23753 0.46171Q5.4201 0.396389 5.60564 0.340104Q5.79119 0.283819 5.97927 0.236706Q6.16736 0.189593 6.35753 0.151766Q6.5477 0.113939 6.7395 0.0854886Q6.93129 0.0570382 7.12426 0.0380331Q7.31722 0.019028 7.51088 0.00951401Q7.70454 0 7.89844 0Z" fill-rule="evenodd" transform="translate(170 10)" />
    <path id="Rectangle" d="M7.89844 0L62.1016 0Q62.2955 0 62.4891 0.00951401Q62.6828 0.019028 62.8757 0.0380331Q63.0687 0.0570382 63.2605 0.0854886Q63.4523 0.113939 63.6425 0.151766Q63.8326 0.189593 64.0207 0.236706Q64.2088 0.283819 64.3944 0.340104Q64.5799 0.396389 64.7625 0.46171Q64.945 0.527032 65.1242 0.601233Q65.3033 0.675433 65.4786 0.758334Q65.6539 0.841236 65.8249 0.932637Q65.9959 1.02404 66.1622 1.12372Q66.3285 1.2234 66.4897 1.33113Q66.6509 1.43885 66.8066 1.55435Q66.9624 1.66986 67.1123 1.79286Q67.2622 1.91587 67.4058 2.04608Q67.5495 2.17629 67.6866 2.3134Q67.8237 2.4505 67.9539 2.59417Q68.0841 2.73784 68.2071 2.88772Q68.3301 3.0376 68.4456 3.19334Q68.5611 3.34908 68.6689 3.5103Q68.7766 3.67152 68.8763 3.83783Q68.976 4.00414 69.0674 4.17514Q69.1588 4.34614 69.2417 4.52142Q69.3246 4.6967 69.3988 4.87584Q69.473 5.05497 69.5383 5.23753Q69.6036 5.4201 69.6599 5.60564Q69.7162 5.79119 69.7633 5.97927Q69.8104 6.16736 69.8482 6.35753Q69.8861 6.5477 69.9145 6.7395Q69.943 6.93129 69.962 7.12426Q69.981 7.31722 69.9905 7.51088Q70 7.70454 70 7.89844L70 70.1016Q70 70.2955 69.9905 70.4891Q69.981 70.6828 69.962 70.8757Q69.943 71.0687 69.9145 71.2605Q69.8861 71.4523 69.8482 71.6425Q69.8104 71.8326 69.7633 72.0207Q69.7162 72.2088 69.6599 72.3943Q69.6036 72.5799 69.5383 72.7625Q69.473 72.945 69.3988 73.1242Q69.3246 73.3033 69.2417 73.4786Q69.1588 73.6539 69.0674 73.8249Q68.976 73.9958 68.8763 74.1622Q68.7766 74.3285 68.6689 74.4897Q68.5611 74.6509 68.4456 74.8066Q68.3301 74.9624 68.2071 75.1123Q68.0841 75.2622 67.9539 75.4058Q67.8237 75.5495 67.6866 75.6866Q67.5495 75.8237 67.4058 75.9539Q67.2622 76.0841 67.1123 76.2071Q66.9624 76.3301 66.8067 76.4456Q66.6509 76.5611 66.4897 76.6689Q66.3285 76.7766 66.1622 76.8763Q65.9959 76.976 65.8249 77.0674Q65.6539 77.1588 65.4786 77.2417Q65.3033 77.3246 65.1242 77.3988Q64.945 77.473 64.7625 77.5383Q64.5799 77.6036 64.3944 77.6599Q64.2088 77.7162 64.0207 77.7633Q63.8326 77.8104 63.6425 77.8482Q63.4523 77.8861 63.2605 77.9145Q63.0687 77.943 62.8757 77.962Q62.6828 77.981 62.4891 77.9905Q62.2955 78 62.1016 78L28.2573 78L7.89844 78Q7.70454 78 7.51088 77.9905Q7.31722 77.981 7.12426 77.962Q6.93129 77.943 6.7395 77.9145Q6.5477 77.8861 6.35753 77.8482Q6.16736 77.8104 5.97927 77.7633Q5.79119 77.7162 5.60564 77.6599Q5.42009 77.6036 5.23753 77.5383Q5.05497 77.473 4.87584 77.3988Q4.6967 77.3246 4.52142 77.2417Q4.34614 77.1588 4.17514 77.0674Q4.00414 76.976 3.83783 76.8763Q3.67152 76.7766 3.5103 76.6689Q3.34908 76.5611 3.19334 76.4456Q3.0376 76.3301 2.88772 76.2071Q2.73784 76.0841 2.59417 75.9539Q2.4505 75.8237 2.3134 75.6866Q2.17629 75.5495 2.04608 75.4058Q1.91587 75.2622 1.79286 75.1123Q1.66986 74.9624 1.55435 74.8066Q1.43885 74.6509 1.33113 74.4897Q1.2234 74.3285 1.12372 74.1622Q1.02404 73.9958 0.932637 73.8249Q0.841236 73.6539 0.758334 73.4786Q0.675433 73.3033 0.601233 73.1242Q0.527032 72.945 0.46171 72.7625Q0.396389 72.5799 0.340104 72.3944Q0.283819 72.2088 0.236706 72.0207Q0.189593 71.8326 0.151766 71.6425Q0.113939 71.4523 0.0854886 71.2605Q0.0570382 71.0687 0.0380331 70.8757Q0.019028 70.6828 0.00951401 70.4891Q0 70.2955 0 70.1016L0 7.89844Q0 7.70454 0.00951401 7.51088Q0.019028 7.31722 0.0380331 7.12426Q0.0570382 6.93129 0.0854886 6.7395Q0.113939 6.5477 0.151766 6.35753Q0.189593 6.16736 0.236706 5.97927Q0.283819 5.79119 0.340104 5.60564Q0.396389 5.42009 0.46171 5.23753Q0.527032 5.05497 0.601233 4.87584Q0.675433 4.6967 0.758334 4.52142Q0.841236 4.34614 0.932637 4.17514Q1.02404 4.00414 1.12372 3.83783Q1.2234 3.67152 1.33113 3.5103Q1.43885 3.34908 1.55435 3.19334Q1.66986 3.0376 1.79286 2.88772Q1.91587 2.73784 2.04608 2.59417Q2.17629 2.4505 2.3134 2.3134Q2.4505 2.17629 2.59417 2.04608Q2.73784 1.91587 2.88772 1.79286Q3.0376 1.66986 3.19334 1.55435Q3.34908 1.43885 3.5103 1.33113Q3.67152 1.2234 3.83783 1.12372Q4.00414 1.02404 4.17514 0.932637Q4.34614 0.841236 4.52142 0.758334Q4.6967 0.675433 4.87584 0.601233Q5.05497 0.527032 5.23753 0.46171Q5.4201 0.396389 5.60564 0.340104Q5.79119 0.283819 5.97927 0.236706Q6.16736 0.189593 6.35753 0.151766Q6.5477 0.113939 6.7395 0.0854886Q6.93129 0.0570382 7.12426 0.0380331Q7.31722 0.019028 7.51088 0.00951401Q7.70454 0 7.89844 0Z" fill-rule="evenodd" transform="translate(250 10)" />
    <path id="Rectangle" d="M7.89844 0L62.1016 0Q62.2955 0 62.4891 0.00951401Q62.6828 0.019028 62.8757 0.0380331Q63.0687 0.0570382 63.2605 0.0854886Q63.4523 0.113939 63.6425 0.151766Q63.8326 0.189593 64.0207 0.236706Q64.2088 0.283819 64.3944 0.340104Q64.5799 0.396389 64.7625 0.46171Q64.945 0.527032 65.1242 0.601233Q65.3033 0.675433 65.4786 0.758334Q65.6539 0.841236 65.8249 0.932637Q65.9959 1.02404 66.1622 1.12372Q66.3285 1.2234 66.4897 1.33113Q66.6509 1.43885 66.8066 1.55435Q66.9624 1.66986 67.1123 1.79286Q67.2622 1.91587 67.4058 2.04608Q67.5495 2.17629 67.6866 2.3134Q67.8237 2.4505 67.9539 2.59417Q68.0841 2.73784 68.2071 2.88772Q68.3301 3.0376 68.4456 3.19334Q68.5611 3.34908 68.6689 3.5103Q68.7766 3.67152 68.8763 3.83783Q68.976 4.00414 69.0674 4.17514Q69.1588 4.34614 69.2417 4.52142Q69.3246 4.6967 69.3988 4.87584Q69.473 5.05497 69.5383 5.23753Q69.6036 5.4201 69.6599 5.60564Q69.7162 5.79119 69.7633 5.97927Q69.8104 6.16736 69.8482 6.35753Q69.8861 6.5477 69.9145 6.7395Q69.943 6.93129 69.962 7.12426Q69.981 7.31722 69.9905 7.51088Q70 7.70454 70 7.89844L70 68.1016Q70 68.2955 69.9905 68.4891Q69.981 68.6828 69.962 68.8757Q69.943 69.0687 69.9145 69.2605Q69.8861 69.4523 69.8482 69.6425Q69.8104 69.8326 69.7633 70.0207Q69.7162 70.2088 69.6599 70.3944Q69.6036 70.5799 69.5383 70.7625Q69.473 70.945 69.3988 71.1242Q69.3246 71.3033 69.2417 71.4786Q69.1588 71.6539 69.0674 71.8249Q68.976 71.9958 68.8763 72.1622Q68.7766 72.3285 68.6689 72.4897Q68.5611 72.6509 68.4456 72.8067Q68.3301 72.9624 68.2071 73.1123Q68.0841 73.2622 67.9539 73.4058Q67.8237 73.5495 67.6866 73.6866Q67.5495 73.8237 67.4058 73.9539Q67.2622 74.0841 67.1123 74.2071Q66.9624 74.3301 66.8067 74.4456Q66.6509 74.5611 66.4897 74.6689Q66.3285 74.7766 66.1622 74.8763Q65.9959 74.976 65.8249 75.0674Q65.6539 75.1588 65.4786 75.2417Q65.3033 75.3246 65.1242 75.3988Q64.945 75.473 64.7625 75.5383Q64.5799 75.6036 64.3944 75.6599Q64.2088 75.7162 64.0207 75.7633Q63.8326 75.8104 63.6425 75.8482Q63.4523 75.8861 63.2605 75.9145Q63.0687 75.943 62.8757 75.962Q62.6828 75.981 62.4891 75.9905Q62.2955 76 62.1016 76L28.2573 76L7.89844 76Q7.70454 76 7.51088 75.9905Q7.31722 75.981 7.12426 75.962Q6.93129 75.943 6.7395 75.9145Q6.5477 75.8861 6.35753 75.8482Q6.16736 75.8104 5.97927 75.7633Q5.79119 75.7162 5.60564 75.6599Q5.42009 75.6036 5.23753 75.5383Q5.05497 75.473 4.87584 75.3988Q4.6967 75.3246 4.52142 75.2417Q4.34614 75.1588 4.17514 75.0674Q4.00414 74.976 3.83783 74.8763Q3.67152 74.7766 3.5103 74.6689Q3.34908 74.5611 3.19334 74.4456Q3.0376 74.3301 2.88772 74.2071Q2.73784 74.0841 2.59417 73.9539Q2.4505 73.8237 2.3134 73.6866Q2.17629 73.5495 2.04608 73.4058Q1.91587 73.2622 1.79286 73.1123Q1.66986 72.9624 1.55435 72.8067Q1.43885 72.6509 1.33113 72.4897Q1.2234 72.3285 1.12372 72.1622Q1.02404 71.9959 0.932637 71.8249Q0.841236 71.6539 0.758334 71.4786Q0.675433 71.3033 0.601233 71.1242Q0.527032 70.945 0.46171 70.7625Q0.396389 70.5799 0.340104 70.3944Q0.283819 70.2088 0.236706 70.0207Q0.189593 69.8326 0.151766 69.6425Q0.113939 69.4523 0.0854886 69.2605Q0.0570382 69.0687 0.0380331 68.8757Q0.019028 68.6828 0.00951401 68.4891Q0 68.2955 0 68.1016L0 7.89844Q0 7.70454 0.00951401 7.51088Q0.019028 7.31722 0.0380331 7.12426Q0.0570382 6.93129 0.0854886 6.7395Q0.113939 6.5477 0.151766 6.35753Q0.189593 6.16736 0.236706 5.97927Q0.283819 5.79119 0.340104 5.60564Q0.396389 5.42009 0.46171 5.23753Q0.527032 5.05497 0.601233 4.87584Q0.675433 4.6967 0.758334 4.52142Q0.841236 4.34614 0.932637 4.17514Q1.02404 4.00414 1.12372 3.83783Q1.2234 3.67152 1.33113 3.5103Q1.43885 3.34908 1.55435 3.19334Q1.66986 3.0376 1.79286 2.88772Q1.91587 2.73784 2.04608 2.59417Q2.17629 2.4505 2.3134 2.3134Q2.4505 2.17629 2.59417 2.04608Q2.73784 1.91587 2.88772 1.79286Q3.0376 1.66986 3.19334 1.55435Q3.34908 1.43885 3.5103 1.33113Q3.67152 1.2234 3.83783 1.12372Q4.00414 1.02404 4.17514 0.932637Q4.34614 0.841236 4.52142 0.758334Q4.6967 0.675433 4.87584 0.601233Q5.05497 0.527032 5.23753 0.46171Q5.4201 0.396389 5.60564 0.340104Q5.79119 0.283819 5.97927 0.236706Q6.16736 0.189593 6.35753 0.151766Q6.5477 0.113939 6.7395 0.0854886Q6.93129 0.0570382 7.12426 0.0380331Q7.31722 0.019028 7.51088 0.00951401Q7.70454 0 7.89844 0Z" fill-rule="evenodd" transform="translate(170 96)" />
    <path id="Rectangle" d="M7.89844 0L62.1016 0Q62.2955 0 62.4891 0.00951401Q62.6828 0.019028 62.8757 0.0380331Q63.0687 0.0570382 63.2605 0.0854886Q63.4523 0.113939 63.6425 0.151766Q63.8326 0.189593 64.0207 0.236706Q64.2088 0.283819 64.3944 0.340104Q64.5799 0.396389 64.7625 0.46171Q64.945 0.527032 65.1242 0.601233Q65.3033 0.675433 65.4786 0.758334Q65.6539 0.841236 65.8249 0.932637Q65.9959 1.02404 66.1622 1.12372Q66.3285 1.2234 66.4897 1.33113Q66.6509 1.43885 66.8066 1.55435Q66.9624 1.66986 67.1123 1.79286Q67.2622 1.91587 67.4058 2.04608Q67.5495 2.17629 67.6866 2.3134Q67.8237 2.4505 67.9539 2.59417Q68.0841 2.73784 68.2071 2.88772Q68.3301 3.0376 68.4456 3.19334Q68.5611 3.34908 68.6689 3.5103Q68.7766 3.67152 68.8763 3.83783Q68.976 4.00414 69.0674 4.17514Q69.1588 4.34614 69.2417 4.52142Q69.3246 4.6967 69.3988 4.87584Q69.473 5.05497 69.5383 5.23753Q69.6036 5.4201 69.6599 5.60564Q69.7162 5.79119 69.7633 5.97927Q69.8104 6.16736 69.8482 6.35753Q69.8861 6.5477 69.9145 6.7395Q69.943 6.93129 69.962 7.12426Q69.981 7.31722 69.9905 7.51088Q70 7.70454 70 7.89844L70 68.1016Q70 68.2955 69.9905 68.4891Q69.981 68.6828 69.962 68.8757Q69.943 69.0687 69.9145 69.2605Q69.8861 69.4523 69.8482 69.6425Q69.8104 69.8326 69.7633 70.0207Q69.7162 70.2088 69.6599 70.3944Q69.6036 70.5799 69.5383 70.7625Q69.473 70.945 69.3988 71.1242Q69.3246 71.3033 69.2417 71.4786Q69.1588 71.6539 69.0674 71.8249Q68.976 71.9958 68.8763 72.1622Q68.7766 72.3285 68.6689 72.4897Q68.5611 72.6509 68.4456 72.8067Q68.3301 72.9624 68.2071 73.1123Q68.0841 73.2622 67.9539 73.4058Q67.8237 73.5495 67.6866 73.6866Q67.5495 73.8237 67.4058 73.9539Q67.2622 74.0841 67.1123 74.2071Q66.9624 74.3301 66.8067 74.4456Q66.6509 74.5611 66.4897 74.6689Q66.3285 74.7766 66.1622 74.8763Q65.9959 74.976 65.8249 75.0674Q65.6539 75.1588 65.4786 75.2417Q65.3033 75.3246 65.1242 75.3988Q64.945 75.473 64.7625 75.5383Q64.5799 75.6036 64.3944 75.6599Q64.2088 75.7162 64.0207 75.7633Q63.8326 75.8104 63.6425 75.8482Q63.4523 75.8861 63.2605 75.9145Q63.0687 75.943 62.8757 75.962Q62.6828 75.981 62.4891 75.9905Q62.2955 76 62.1016 76L28.2573 76L7.89844 76Q7.70454 76 7.51088 75.9905Q7.31722 75.981 7.12426 75.962Q6.93129 75.943 6.7395 75.9145Q6.5477 75.8861 6.35753 75.8482Q6.16736 75.8104 5.97927 75.7633Q5.79119 75.7162 5.60564 75.6599Q5.42009 75.6036 5.23753 75.5383Q5.05497 75.473 4.87584 75.3988Q4.6967 75.3246 4.52142 75.2417Q4.34614 75.1588 4.17514 75.0674Q4.00414 74.976 3.83783 74.8763Q3.67152 74.7766 3.5103 74.6689Q3.34908 74.5611 3.19334 74.4456Q3.0376 74.3301 2.88772 74.2071Q2.73784 74.0841 2.59417 73.9539Q2.4505 73.8237 2.3134 73.6866Q2.17629 73.5495 2.04608 73.4058Q1.91587 73.2622 1.79286 73.1123Q1.66986 72.9624 1.55435 72.8067Q1.43885 72.6509 1.33113 72.4897Q1.2234 72.3285 1.12372 72.1622Q1.02404 71.9959 0.932637 71.8249Q0.841236 71.6539 0.758334 71.4786Q0.675433 71.3033 0.601233 71.1242Q0.527032 70.945 0.46171 70.7625Q0.396389 70.5799 0.340104 70.3944Q0.283819 70.2088 0.236706 70.0207Q0.189593 69.8326 0.151766 69.6425Q0.113939 69.4523 0.0854886 69.2605Q0.0570382 69.0687 0.0380331 68.8757Q0.019028 68.6828 0.00951401 68.4891Q0 68.2955 0 68.1016L0 7.89844Q0 7.70454 0.00951401 7.51088Q0.019028 7.31722 0.0380331 7.12426Q0.0570382 6.93129 0.0854886 6.7395Q0.113939 6.5477 0.151766 6.35753Q0.189593 6.16736 0.236706 5.97927Q0.283819 5.79119 0.340104 5.60564Q0.396389 5.42009 0.46171 5.23753Q0.527032 5.05497 0.601233 4.87584Q0.675433 4.6967 0.758334 4.52142Q0.841236 4.34614 0.932637 4.17514Q1.02404 4.00414 1.12372 3.83783Q1.2234 3.67152 1.33113 3.5103Q1.43885 3.34908 1.55435 3.19334Q1.66986 3.0376 1.79286 2.88772Q1.91587 2.73784 2.04608 2.59417Q2.17629 2.4505 2.3134 2.3134Q2.4505 2.17629 2.59417 2.04608Q2.73784 1.91587 2.88772 1.79286Q3.0376 1.66986 3.19334 1.55435Q3.34908 1.43885 3.5103 1.33113Q3.67152 1.2234 3.83783 1.12372Q4.00414 1.02404 4.17514 0.932637Q4.34614 0.841236 4.52142 0.758334Q4.6967 0.675433 4.87584 0.601233Q5.05497 0.527032 5.23753 0.46171Q5.4201 0.396389 5.60564 0.340104Q5.79119 0.283819 5.97927 0.236706Q6.16736 0.189593 6.35753 0.151766Q6.5477 0.113939 6.7395 0.0854886Q6.93129 0.0570382 7.12426 0.0380331Q7.31722 0.019028 7.51088 0.00951401Q7.70454 0 7.89844 0Z" fill-rule="evenodd" transform="translate(250 96)" />
    <path id="Rectangle" d="M7.89844 0L62.1016 0Q62.2955 0 62.4891 0.00951401Q62.6828 0.019028 62.8757 0.0380331Q63.0687 0.0570382 63.2605 0.0854886Q63.4523 0.113939 63.6425 0.151766Q63.8326 0.189593 64.0207 0.236706Q64.2088 0.283819 64.3944 0.340104Q64.5799 0.396389 64.7625 0.46171Q64.945 0.527032 65.1242 0.601233Q65.3033 0.675433 65.4786 0.758334Q65.6539 0.841236 65.8249 0.932637Q65.9959 1.02404 66.1622 1.12372Q66.3285 1.2234 66.4897 1.33113Q66.6509 1.43885 66.8066 1.55435Q66.9624 1.66986 67.1123 1.79286Q67.2622 1.91587 67.4058 2.04608Q67.5495 2.17629 67.6866 2.3134Q67.8237 2.4505 67.9539 2.59417Q68.0841 2.73784 68.2071 2.88772Q68.3301 3.0376 68.4456 3.19334Q68.5611 3.34908 68.6689 3.5103Q68.7766 3.67152 68.8763 3.83783Q68.976 4.00414 69.0674 4.17514Q69.1588 4.34614 69.2417 4.52142Q69.3246 4.6967 69.3988 4.87584Q69.473 5.05497 69.5383 5.23753Q69.6036 5.4201 69.6599 5.60564Q69.7162 5.79119 69.7633 5.97927Q69.8104 6.16736 69.8482 6.35753Q69.8861 6.5477 69.9145 6.7395Q69.943 6.93129 69.962 7.12426Q69.981 7.31722 69.9905 7.51088Q70 7.70454 70 7.89844L70 70.1016Q70 70.2955 69.9905 70.4891Q69.981 70.6828 69.962 70.8757Q69.943 71.0687 69.9145 71.2605Q69.8861 71.4523 69.8482 71.6425Q69.8104 71.8326 69.7633 72.0207Q69.7162 72.2088 69.6599 72.3943Q69.6036 72.5799 69.5383 72.7625Q69.473 72.945 69.3988 73.1242Q69.3246 73.3033 69.2417 73.4786Q69.1588 73.6538 69.0674 73.8249Q68.976 73.9958 68.8763 74.1622Q68.7766 74.3285 68.6689 74.4897Q68.5611 74.6509 68.4456 74.8066Q68.3301 74.9624 68.2071 75.1123Q68.0841 75.2622 67.9539 75.4058Q67.8237 75.5495 67.6866 75.6866Q67.5495 75.8237 67.4058 75.9539Q67.2622 76.0841 67.1123 76.2071Q66.9624 76.3301 66.8067 76.4456Q66.6509 76.5611 66.4897 76.6689Q66.3285 76.7766 66.1622 76.8763Q65.9959 76.976 65.8249 77.0674Q65.6539 77.1588 65.4786 77.2417Q65.3033 77.3246 65.1242 77.3988Q64.945 77.473 64.7625 77.5383Q64.5799 77.6036 64.3944 77.6599Q64.2088 77.7162 64.0207 77.7633Q63.8326 77.8104 63.6425 77.8482Q63.4523 77.8861 63.2605 77.9145Q63.0687 77.943 62.8757 77.962Q62.6828 77.981 62.4891 77.9905Q62.2955 78 62.1016 78L28.2573 78L7.89844 78Q7.70454 78 7.51088 77.9905Q7.31722 77.981 7.12426 77.962Q6.93129 77.943 6.7395 77.9145Q6.5477 77.8861 6.35753 77.8482Q6.16736 77.8104 5.97927 77.7633Q5.79119 77.7162 5.60564 77.6599Q5.42009 77.6036 5.23753 77.5383Q5.05497 77.473 4.87584 77.3988Q4.6967 77.3246 4.52142 77.2417Q4.34614 77.1588 4.17514 77.0674Q4.00414 76.976 3.83783 76.8763Q3.67152 76.7766 3.5103 76.6689Q3.34908 76.5611 3.19334 76.4456Q3.0376 76.3301 2.88772 76.2071Q2.73784 76.0841 2.59417 75.9539Q2.4505 75.8237 2.3134 75.6866Q2.17629 75.5495 2.04608 75.4058Q1.91587 75.2621 1.79286 75.1123Q1.66986 74.9624 1.55435 74.8066Q1.43885 74.6509 1.33113 74.4897Q1.2234 74.3285 1.12372 74.1622Q1.02404 73.9958 0.932637 73.8249Q0.841236 73.6538 0.758334 73.4786Q0.675433 73.3033 0.601233 73.1242Q0.527032 72.945 0.46171 72.7625Q0.396389 72.5799 0.340104 72.3943Q0.283819 72.2088 0.236706 72.0207Q0.189593 71.8326 0.151766 71.6425Q0.113939 71.4523 0.0854886 71.2605Q0.0570382 71.0687 0.0380331 70.8757Q0.019028 70.6828 0.00951401 70.4891Q0 70.2955 0 70.1016L0 7.89844Q0 7.70454 0.00951401 7.51088Q0.019028 7.31722 0.0380331 7.12426Q0.0570382 6.93129 0.0854886 6.7395Q0.113939 6.5477 0.151766 6.35753Q0.189593 6.16736 0.236706 5.97927Q0.283819 5.79119 0.340104 5.60564Q0.396389 5.42009 0.46171 5.23753Q0.527032 5.05497 0.601233 4.87584Q0.675433 4.6967 0.758334 4.52142Q0.841236 4.34614 0.932637 4.17514Q1.02404 4.00414 1.12372 3.83783Q1.2234 3.67152 1.33113 3.5103Q1.43885 3.34908 1.55435 3.19334Q1.66986 3.0376 1.79286 2.88772Q1.91587 2.73784 2.04608 2.59417Q2.17629 2.4505 2.3134 2.3134Q2.4505 2.17629 2.59417 2.04608Q2.73784 1.91587 2.88772 1.79286Q3.0376 1.66986 3.19334 1.55435Q3.34908 1.43885 3.5103 1.33113Q3.67152 1.2234 3.83783 1.12372Q4.00414 1.02404 4.17514 0.932637Q4.34614 0.841236 4.52142 0.758334Q4.6967 0.675433 4.87584 0.601233Q5.05497 0.527032 5.23753 0.46171Q5.4201 0.396389 5.60564 0.340104Q5.79119 0.283819 5.97927 0.236706Q6.16736 0.189593 6.35753 0.151766Q6.5477 0.113939 6.7395 0.0854886Q6.93129 0.0570382 7.12426 0.0380331Q7.31722 0.019028 7.51088 0.00951401Q7.70454 0 7.89844 0Z" fill-rule="evenodd" transform="translate(170 182)" />
    <path id="Rectangle" d="M7.89844 0L62.1016 0Q62.2955 0 62.4891 0.00951401Q62.6828 0.019028 62.8757 0.0380331Q63.0687 0.0570382 63.2605 0.0854886Q63.4523 0.113939 63.6425 0.151766Q63.8326 0.189593 64.0207 0.236706Q64.2088 0.283819 64.3944 0.340104Q64.5799 0.396389 64.7625 0.46171Q64.945 0.527032 65.1242 0.601233Q65.3033 0.675433 65.4786 0.758334Q65.6539 0.841236 65.8249 0.932637Q65.9959 1.02404 66.1622 1.12372Q66.3285 1.2234 66.4897 1.33113Q66.6509 1.43885 66.8066 1.55435Q66.9624 1.66986 67.1123 1.79286Q67.2622 1.91587 67.4058 2.04608Q67.5495 2.17629 67.6866 2.3134Q67.8237 2.4505 67.9539 2.59417Q68.0841 2.73784 68.2071 2.88772Q68.3301 3.0376 68.4456 3.19334Q68.5611 3.34908 68.6689 3.5103Q68.7766 3.67152 68.8763 3.83783Q68.976 4.00414 69.0674 4.17514Q69.1588 4.34614 69.2417 4.52142Q69.3246 4.6967 69.3988 4.87584Q69.473 5.05497 69.5383 5.23753Q69.6036 5.4201 69.6599 5.60564Q69.7162 5.79119 69.7633 5.97927Q69.8104 6.16736 69.8482 6.35753Q69.8861 6.5477 69.9145 6.7395Q69.943 6.93129 69.962 7.12426Q69.981 7.31722 69.9905 7.51088Q70 7.70454 70 7.89844L70 70.1016Q70 70.2955 69.9905 70.4891Q69.981 70.6828 69.962 70.8757Q69.943 71.0687 69.9145 71.2605Q69.8861 71.4523 69.8482 71.6425Q69.8104 71.8326 69.7633 72.0207Q69.7162 72.2088 69.6599 72.3943Q69.6036 72.5799 69.5383 72.7625Q69.473 72.945 69.3988 73.1242Q69.3246 73.3033 69.2417 73.4786Q69.1588 73.6538 69.0674 73.8249Q68.976 73.9958 68.8763 74.1622Q68.7766 74.3285 68.6689 74.4897Q68.5611 74.6509 68.4456 74.8066Q68.3301 74.9624 68.2071 75.1123Q68.0841 75.2622 67.9539 75.4058Q67.8237 75.5495 67.6866 75.6866Q67.5495 75.8237 67.4058 75.9539Q67.2622 76.0841 67.1123 76.2071Q66.9624 76.3301 66.8067 76.4456Q66.6509 76.5611 66.4897 76.6689Q66.3285 76.7766 66.1622 76.8763Q65.9959 76.976 65.8249 77.0674Q65.6539 77.1588 65.4786 77.2417Q65.3033 77.3246 65.1242 77.3988Q64.945 77.473 64.7625 77.5383Q64.5799 77.6036 64.3944 77.6599Q64.2088 77.7162 64.0207 77.7633Q63.8326 77.8104 63.6425 77.8482Q63.4523 77.8861 63.2605 77.9145Q63.0687 77.943 62.8757 77.962Q62.6828 77.981 62.4891 77.9905Q62.2955 78 62.1016 78L28.2573 78L7.89844 78Q7.70454 78 7.51088 77.9905Q7.31722 77.981 7.12426 77.962Q6.93129 77.943 6.7395 77.9145Q6.5477 77.8861 6.35753 77.8482Q6.16736 77.8104 5.97927 77.7633Q5.79119 77.7162 5.60564 77.6599Q5.42009 77.6036 5.23753 77.5383Q5.05497 77.473 4.87584 77.3988Q4.6967 77.3246 4.52142 77.2417Q4.34614 77.1588 4.17514 77.0674Q4.00414 76.976 3.83783 76.8763Q3.67152 76.7766 3.5103 76.6689Q3.34908 76.5611 3.19334 76.4456Q3.0376 76.3301 2.88772 76.2071Q2.73784 76.0841 2.59417 75.9539Q2.4505 75.8237 2.3134 75.6866Q2.17629 75.5495 2.04608 75.4058Q1.91587 75.2621 1.79286 75.1123Q1.66986 74.9624 1.55435 74.8066Q1.43885 74.6509 1.33113 74.4897Q1.2234 74.3285 1.12372 74.1622Q1.02404 73.9958 0.932637 73.8249Q0.841236 73.6538 0.758334 73.4786Q0.675433 73.3033 0.601233 73.1242Q0.527032 72.945 0.46171 72.7625Q0.396389 72.5799 0.340104 72.3943Q0.283819 72.2088 0.236706 72.0207Q0.189593 71.8326 0.151766 71.6425Q0.113939 71.4523 0.0854886 71.2605Q0.0570382 71.0687 0.0380331 70.8757Q0.019028 70.6828 0.00951401 70.4891Q0 70.2955 0 70.1016L0 7.89844Q0 7.70454 0.00951401 7.51088Q0.019028 7.31722 0.0380331 7.12426Q0.0570382 6.93129 0.0854886 6.7395Q0.113939 6.5477 0.151766 6.35753Q0.189593 6.16736 0.236706 5.97927Q0.283819 5.79119 0.340104 5.60564Q0.396389 5.42009 0.46171 5.23753Q0.527032 5.05497 0.601233 4.87584Q0.675433 4.6967 0.758334 4.52142Q0.841236 4.34614 0.932637 4.17514Q1.02404 4.00414 1.12372 3.83783Q1.2234 3.67152 1.33113 3.5103Q1.43885 3.34908 1.55435 3.19334Q1.66986 3.0376 1.79286 2.88772Q1.91587 2.73784 2.04608 2.59417Q2.17629 2.4505 2.3134 2.3134Q2.4505 2.17629 2.59417 2.04608Q2.73784 1.91587 2.88772 1.79286Q3.0376 1.66986 3.19334 1.55435Q3.34908 1.43885 3.5103 1.33113Q3.67152 1.2234 3.83783 1.12372Q4.00414 1.02404 4.17514 0.932637Q4.34614 0.841236 4.52142 0.758334Q4.6967 0.675433 4.87584 0.601233Q5.05497 0.527032 5.23753 0.46171Q5.4201 0.396389 5.60564 0.340104Q5.79119 0.283819 5.97927 0.236706Q6.16736 0.189593 6.35753 0.151766Q6.5477 0.113939 6.7395 0.0854886Q6.93129 0.0570382 7.12426 0.0380331Q7.31722 0.019028 7.51088 0.00951401Q7.70454 0 7.89844 0Z" fill-rule="evenodd" transform="translate(250 182)" />
  </g>
</svg>