<?xml version="1.0" encoding="utf-8"?>
<svg viewBox="0 0 270 270" fill="none" xmlns="http://www.w3.org/2000/svg">
  <defs>
    <clipPath id="clip_path_1">
      <rect width="270" height="270" />
    </clipPath>
  </defs>
  <g clip-path="url(#clip_path_1)">
    <rect />
    <path id="Rectangle" d="M7.89844 0L70.1016 0Q70.2955 0 70.4891 0.00951401Q70.6828 0.019028 70.8757 0.0380331Q71.0687 0.0570382 71.2605 0.0854886Q71.4523 0.113939 71.6425 0.151766Q71.8326 0.189593 72.0207 0.236706Q72.2088 0.283819 72.3943 0.340104Q72.5799 0.396389 72.7625 0.46171Q72.945 0.527032 73.1242 0.601233Q73.3033 0.675433 73.4786 0.758334Q73.6538 0.841236 73.8249 0.932637Q73.9958 1.02404 74.1622 1.12372Q74.3285 1.2234 74.4897 1.33113Q74.6509 1.43885 74.8066 1.55435Q74.9624 1.66986 75.1123 1.79286Q75.2622 1.91587 75.4058 2.04608Q75.5495 2.17629 75.6866 2.3134Q75.8237 2.4505 75.9539 2.59417Q76.0841 2.73784 76.2071 2.88772Q76.3301 3.0376 76.4456 3.19334Q76.5611 3.34908 76.6689 3.5103Q76.7766 3.67152 76.8763 3.83783Q76.976 4.00414 77.0674 4.17514Q77.1588 4.34614 77.2417 4.52142Q77.3246 4.6967 77.3988 4.87584Q77.473 5.05497 77.5383 5.23753Q77.6036 5.4201 77.6599 5.60564Q77.7162 5.79119 77.7633 5.97927Q77.8104 6.16736 77.8482 6.35753Q77.8861 6.5477 77.9145 6.7395Q77.943 6.93129 77.962 7.12426Q77.981 7.31722 77.9905 7.51088Q78 7.70454 78 7.89844L78 62.1016Q78 62.2955 77.9905 62.4891Q77.981 62.6828 77.962 62.8758Q77.943 63.0687 77.9145 63.2605Q77.8861 63.4523 77.8482 63.6425Q77.8104 63.8326 77.7633 64.0207Q77.7162 64.2088 77.6599 64.3944Q77.6036 64.5799 77.5383 64.7625Q77.473 64.945 77.3988 65.1242Q77.3246 65.3033 77.2417 65.4786Q77.1588 65.6539 77.0674 65.8249Q76.976 65.9959 76.8763 66.1622Q76.7766 66.3285 76.6689 66.4897Q76.5611 66.6509 76.4456 66.8067Q76.3301 66.9624 76.2071 67.1123Q76.0841 67.2622 75.9539 67.4058Q75.8237 67.5495 75.6866 67.6866Q75.5495 67.8237 75.4058 67.9539Q75.2621 68.0841 75.1123 68.2071Q74.9624 68.3301 74.8066 68.4457Q74.6509 68.5612 74.4897 68.6689Q74.3285 68.7766 74.1622 68.8763Q73.9958 68.976 73.8249 69.0674Q73.6538 69.1588 73.4786 69.2417Q73.3033 69.3246 73.1242 69.3988Q72.945 69.473 72.7625 69.5383Q72.5799 69.6036 72.3943 69.6599Q72.2088 69.7162 72.0207 69.7633Q71.8326 69.8104 71.6425 69.8482Q71.4523 69.8861 71.2605 69.9145Q71.0687 69.943 70.8757 69.962Q70.6828 69.981 70.4891 69.9905Q70.2955 70 70.1016 70L31.4867 70L7.89844 70Q7.70454 70 7.51088 69.9905Q7.31722 69.981 7.12426 69.962Q6.93129 69.943 6.7395 69.9145Q6.5477 69.8861 6.35753 69.8482Q6.16736 69.8104 5.97927 69.7633Q5.79119 69.7162 5.60564 69.6599Q5.42009 69.6036 5.23753 69.5383Q5.05497 69.473 4.87584 69.3988Q4.6967 69.3246 4.52142 69.2417Q4.34614 69.1588 4.17514 69.0674Q4.00414 68.976 3.83783 68.8763Q3.67152 68.7766 3.5103 68.6689Q3.34908 68.5612 3.19334 68.4456Q3.0376 68.3302 2.88772 68.2071Q2.73784 68.0841 2.59417 67.9539Q2.4505 67.8237 2.3134 67.6866Q2.17629 67.5495 2.04608 67.4058Q1.91587 67.2622 1.79286 67.1123Q1.66986 66.9624 1.55435 66.8067Q1.43885 66.6509 1.33113 66.4897Q1.2234 66.3285 1.12372 66.1622Q1.02404 65.9959 0.932637 65.8249Q0.841236 65.6539 0.758334 65.4786Q0.675433 65.3033 0.601233 65.1242Q0.527032 64.945 0.46171 64.7625Q0.396389 64.5799 0.340104 64.3944Q0.283819 64.2088 0.236706 64.0207Q0.189593 63.8326 0.151766 63.6425Q0.113939 63.4523 0.0854886 63.2605Q0.0570382 63.0687 0.0380331 62.8758Q0.019028 62.6828 0.00951401 62.4891Q0 62.2955 0 62.1016L0 7.89844Q0 7.70454 0.00951401 7.51088Q0.019028 7.31722 0.0380331 7.12426Q0.0570382 6.93129 0.0854886 6.7395Q0.113939 6.5477 0.151766 6.35753Q0.189593 6.16736 0.236706 5.97927Q0.283819 5.79119 0.340104 5.60564Q0.396389 5.42009 0.46171 5.23753Q0.527032 5.05497 0.601233 4.87584Q0.675433 4.6967 0.758334 4.52142Q0.841236 4.34614 0.932637 4.17514Q1.02404 4.00414 1.12372 3.83783Q1.2234 3.67152 1.33113 3.5103Q1.43885 3.34908 1.55435 3.19334Q1.66986 3.0376 1.79286 2.88772Q1.91587 2.73784 2.04608 2.59417Q2.17629 2.4505 2.3134 2.3134Q2.4505 2.17629 2.59417 2.04608Q2.73784 1.91587 2.88772 1.79286Q3.0376 1.66986 3.19334 1.55435Q3.34908 1.43885 3.5103 1.33113Q3.67152 1.2234 3.83783 1.12372Q4.00414 1.02404 4.17514 0.932637Q4.34614 0.841236 4.52142 0.758334Q4.6967 0.675433 4.87584 0.601233Q5.05497 0.527032 5.23753 0.46171Q5.4201 0.396389 5.60564 0.340104Q5.79119 0.283819 5.97927 0.236706Q6.16736 0.189593 6.35753 0.151766Q6.5477 0.113939 6.7395 0.0854886Q6.93129 0.0570382 7.12426 0.0380331Q7.31722 0.019028 7.51088 0.00951401Q7.70454 0 7.89844 0Z" fill-rule="evenodd" transform="translate(10 10)" />
    <path id="Rectangle" d="M7.89844 0L70.1016 0Q70.2955 0 70.4891 0.00951401Q70.6828 0.019028 70.8757 0.0380331Q71.0687 0.0570382 71.2605 0.0854886Q71.4523 0.113939 71.6425 0.151766Q71.8326 0.189593 72.0207 0.236706Q72.2088 0.283819 72.3943 0.340104Q72.5799 0.396389 72.7625 0.46171Q72.945 0.527032 73.1242 0.601233Q73.3033 0.675433 73.4786 0.758334Q73.6538 0.841236 73.8249 0.932637Q73.9958 1.02404 74.1622 1.12372Q74.3285 1.2234 74.4897 1.33113Q74.6509 1.43885 74.8066 1.55435Q74.9624 1.66986 75.1123 1.79286Q75.2622 1.91587 75.4058 2.04608Q75.5495 2.17629 75.6866 2.3134Q75.8237 2.4505 75.9539 2.59417Q76.0841 2.73784 76.2071 2.88772Q76.3301 3.0376 76.4456 3.19334Q76.5611 3.34908 76.6689 3.5103Q76.7766 3.67152 76.8763 3.83783Q76.976 4.00414 77.0674 4.17514Q77.1588 4.34614 77.2417 4.52142Q77.3246 4.6967 77.3988 4.87584Q77.473 5.05497 77.5383 5.23753Q77.6036 5.4201 77.6599 5.60564Q77.7162 5.79119 77.7633 5.97927Q77.8104 6.16736 77.8482 6.35753Q77.8861 6.5477 77.9145 6.7395Q77.943 6.93129 77.962 7.12426Q77.981 7.31722 77.9905 7.51088Q78 7.70454 78 7.89844L78 62.1016Q78 62.2955 77.9905 62.4891Q77.981 62.6828 77.962 62.8758Q77.943 63.0687 77.9145 63.2605Q77.8861 63.4523 77.8482 63.6425Q77.8104 63.8326 77.7633 64.0207Q77.7162 64.2088 77.6599 64.3944Q77.6036 64.5799 77.5383 64.7625Q77.473 64.945 77.3988 65.1242Q77.3246 65.3033 77.2417 65.4786Q77.1588 65.6539 77.0674 65.8249Q76.976 65.9959 76.8763 66.1622Q76.7766 66.3285 76.6689 66.4897Q76.5611 66.6509 76.4456 66.8067Q76.3301 66.9624 76.2071 67.1123Q76.0841 67.2622 75.9539 67.4058Q75.8237 67.5495 75.6866 67.6866Q75.5495 67.8237 75.4058 67.9539Q75.2621 68.0841 75.1123 68.2071Q74.9624 68.3301 74.8066 68.4457Q74.6509 68.5612 74.4897 68.6689Q74.3285 68.7766 74.1622 68.8763Q73.9958 68.976 73.8249 69.0674Q73.6538 69.1588 73.4786 69.2417Q73.3033 69.3246 73.1242 69.3988Q72.945 69.473 72.7625 69.5383Q72.5799 69.6036 72.3943 69.6599Q72.2088 69.7162 72.0207 69.7633Q71.8326 69.8104 71.6425 69.8482Q71.4523 69.8861 71.2605 69.9145Q71.0687 69.943 70.8757 69.962Q70.6828 69.981 70.4891 69.9905Q70.2955 70 70.1016 70L31.4867 70L7.89844 70Q7.70454 70 7.51088 69.9905Q7.31722 69.981 7.12426 69.962Q6.93129 69.943 6.7395 69.9145Q6.5477 69.8861 6.35753 69.8482Q6.16736 69.8104 5.97927 69.7633Q5.79119 69.7162 5.60564 69.6599Q5.42009 69.6036 5.23753 69.5383Q5.05497 69.473 4.87584 69.3988Q4.6967 69.3246 4.52142 69.2417Q4.34614 69.1588 4.17514 69.0674Q4.00414 68.976 3.83783 68.8763Q3.67152 68.7766 3.5103 68.6689Q3.34908 68.5612 3.19334 68.4456Q3.0376 68.3302 2.88772 68.2071Q2.73784 68.0841 2.59417 67.9539Q2.4505 67.8237 2.3134 67.6866Q2.17629 67.5495 2.04608 67.4058Q1.91587 67.2622 1.79286 67.1123Q1.66986 66.9624 1.55435 66.8067Q1.43885 66.6509 1.33113 66.4897Q1.2234 66.3285 1.12372 66.1622Q1.02404 65.9959 0.932637 65.8249Q0.841236 65.6539 0.758334 65.4786Q0.675433 65.3033 0.601233 65.1242Q0.527032 64.945 0.46171 64.7625Q0.396389 64.5799 0.340104 64.3944Q0.283819 64.2088 0.236706 64.0207Q0.189593 63.8326 0.151766 63.6425Q0.113939 63.4523 0.0854886 63.2605Q0.0570382 63.0687 0.0380331 62.8758Q0.019028 62.6828 0.00951401 62.4891Q0 62.2955 0 62.1016L0 7.89844Q0 7.70454 0.00951401 7.51088Q0.019028 7.31722 0.0380331 7.12426Q0.0570382 6.93129 0.0854886 6.7395Q0.113939 6.5477 0.151766 6.35753Q0.189593 6.16736 0.236706 5.97927Q0.283819 5.79119 0.340104 5.60564Q0.396389 5.42009 0.46171 5.23753Q0.527032 5.05497 0.601233 4.87584Q0.675433 4.6967 0.758334 4.52142Q0.841236 4.34614 0.932637 4.17514Q1.02404 4.00414 1.12372 3.83783Q1.2234 3.67152 1.33113 3.5103Q1.43885 3.34908 1.55435 3.19334Q1.66986 3.0376 1.79286 2.88772Q1.91587 2.73784 2.04608 2.59417Q2.17629 2.4505 2.3134 2.3134Q2.4505 2.17629 2.59417 2.04608Q2.73784 1.91587 2.88772 1.79286Q3.0376 1.66986 3.19334 1.55435Q3.34908 1.43885 3.5103 1.33113Q3.67152 1.2234 3.83783 1.12372Q4.00414 1.02404 4.17514 0.932637Q4.34614 0.841236 4.52142 0.758334Q4.6967 0.675433 4.87584 0.601233Q5.05497 0.527032 5.23753 0.46171Q5.4201 0.396389 5.60564 0.340104Q5.79119 0.283819 5.97927 0.236706Q6.16736 0.189593 6.35753 0.151766Q6.5477 0.113939 6.7395 0.0854886Q6.93129 0.0570382 7.12426 0.0380331Q7.31722 0.019028 7.51088 0.00951401Q7.70454 0 7.89844 0Z" fill-rule="evenodd" transform="translate(98 10)" />
    <path id="Rectangle" d="M7.89844 0L70.1016 0Q70.2955 0 70.4891 0.00951401Q70.6828 0.019028 70.8757 0.0380331Q71.0687 0.0570382 71.2605 0.0854886Q71.4523 0.113939 71.6425 0.151766Q71.8326 0.189593 72.0207 0.236706Q72.2088 0.283819 72.3943 0.340104Q72.5799 0.396389 72.7625 0.46171Q72.945 0.527032 73.1242 0.601233Q73.3033 0.675433 73.4786 0.758334Q73.6538 0.841236 73.8249 0.932637Q73.9958 1.02404 74.1622 1.12372Q74.3285 1.2234 74.4897 1.33113Q74.6509 1.43885 74.8066 1.55435Q74.9624 1.66986 75.1123 1.79286Q75.2622 1.91587 75.4058 2.04608Q75.5495 2.17629 75.6866 2.3134Q75.8237 2.4505 75.9539 2.59417Q76.0841 2.73784 76.2071 2.88772Q76.3301 3.0376 76.4456 3.19334Q76.5611 3.34908 76.6689 3.5103Q76.7766 3.67152 76.8763 3.83783Q76.976 4.00414 77.0674 4.17514Q77.1588 4.34614 77.2417 4.52142Q77.3246 4.6967 77.3988 4.87584Q77.473 5.05497 77.5383 5.23753Q77.6036 5.4201 77.6599 5.60564Q77.7162 5.79119 77.7633 5.97927Q77.8104 6.16736 77.8482 6.35753Q77.8861 6.5477 77.9145 6.7395Q77.943 6.93129 77.962 7.12426Q77.981 7.31722 77.9905 7.51088Q78 7.70454 78 7.89844L78 62.1016Q78 62.2955 77.9905 62.4891Q77.981 62.6828 77.962 62.8758Q77.943 63.0687 77.9145 63.2605Q77.8861 63.4523 77.8482 63.6425Q77.8104 63.8326 77.7633 64.0207Q77.7162 64.2088 77.6599 64.3944Q77.6036 64.5799 77.5383 64.7625Q77.473 64.945 77.3988 65.1242Q77.3246 65.3033 77.2417 65.4786Q77.1588 65.6539 77.0674 65.8249Q76.976 65.9959 76.8763 66.1622Q76.7766 66.3285 76.6689 66.4897Q76.5611 66.6509 76.4456 66.8067Q76.3301 66.9624 76.2071 67.1123Q76.0841 67.2622 75.9539 67.4058Q75.8237 67.5495 75.6866 67.6866Q75.5495 67.8237 75.4058 67.9539Q75.2621 68.0841 75.1123 68.2071Q74.9624 68.3301 74.8066 68.4457Q74.6509 68.5612 74.4897 68.6689Q74.3285 68.7766 74.1622 68.8763Q73.9958 68.976 73.8249 69.0674Q73.6538 69.1588 73.4786 69.2417Q73.3033 69.3246 73.1242 69.3988Q72.945 69.473 72.7625 69.5383Q72.5799 69.6036 72.3943 69.6599Q72.2088 69.7162 72.0207 69.7633Q71.8326 69.8104 71.6425 69.8482Q71.4523 69.8861 71.2605 69.9145Q71.0687 69.943 70.8757 69.962Q70.6828 69.981 70.4891 69.9905Q70.2955 70 70.1016 70L31.4867 70L7.89844 70Q7.70454 70 7.51088 69.9905Q7.31722 69.981 7.12426 69.962Q6.93129 69.943 6.7395 69.9145Q6.5477 69.8861 6.35753 69.8482Q6.16736 69.8104 5.97927 69.7633Q5.79119 69.7162 5.60564 69.6599Q5.42009 69.6036 5.23753 69.5383Q5.05497 69.473 4.87584 69.3988Q4.6967 69.3246 4.52142 69.2417Q4.34614 69.1588 4.17514 69.0674Q4.00414 68.976 3.83783 68.8763Q3.67152 68.7766 3.5103 68.6689Q3.34908 68.5612 3.19334 68.4456Q3.0376 68.3302 2.88772 68.2071Q2.73784 68.0841 2.59417 67.9539Q2.4505 67.8237 2.3134 67.6866Q2.17629 67.5495 2.04608 67.4058Q1.91587 67.2622 1.79286 67.1123Q1.66986 66.9624 1.55435 66.8067Q1.43885 66.6509 1.33113 66.4897Q1.2234 66.3285 1.12372 66.1622Q1.02404 65.9959 0.932637 65.8249Q0.841236 65.6539 0.758334 65.4786Q0.675433 65.3033 0.601233 65.1242Q0.527032 64.945 0.46171 64.7625Q0.396389 64.5799 0.340104 64.3944Q0.283819 64.2088 0.236706 64.0207Q0.189593 63.8326 0.151766 63.6425Q0.113939 63.4523 0.0854886 63.2605Q0.0570382 63.0687 0.0380331 62.8758Q0.019028 62.6828 0.00951401 62.4891Q0 62.2955 0 62.1016L0 7.89844Q0 7.70454 0.00951401 7.51088Q0.019028 7.31722 0.0380331 7.12426Q0.0570382 6.93129 0.0854886 6.7395Q0.113939 6.5477 0.151766 6.35753Q0.189593 6.16736 0.236706 5.97927Q0.283819 5.79119 0.340104 5.60564Q0.396389 5.42009 0.46171 5.23753Q0.527032 5.05497 0.601233 4.87584Q0.675433 4.6967 0.758334 4.52142Q0.841236 4.34614 0.932637 4.17514Q1.02404 4.00414 1.12372 3.83783Q1.2234 3.67152 1.33113 3.5103Q1.43885 3.34908 1.55435 3.19334Q1.66986 3.0376 1.79286 2.88772Q1.91587 2.73784 2.04608 2.59417Q2.17629 2.4505 2.3134 2.3134Q2.4505 2.17629 2.59417 2.04608Q2.73784 1.91587 2.88772 1.79286Q3.0376 1.66986 3.19334 1.55435Q3.34908 1.43885 3.5103 1.33113Q3.67152 1.2234 3.83783 1.12372Q4.00414 1.02404 4.17514 0.932637Q4.34614 0.841236 4.52142 0.758334Q4.6967 0.675433 4.87584 0.601233Q5.05497 0.527032 5.23753 0.46171Q5.4201 0.396389 5.60564 0.340104Q5.79119 0.283819 5.97927 0.236706Q6.16736 0.189593 6.35753 0.151766Q6.5477 0.113939 6.7395 0.0854886Q6.93129 0.0570382 7.12426 0.0380331Q7.31722 0.019028 7.51088 0.00951401Q7.70454 0 7.89844 0Z" fill-rule="evenodd" transform="translate(186 10)" />
    <path id="Rectangle" d="M7.89844 0L70.1016 0Q70.2955 0 70.4891 0.00951401Q70.6828 0.019028 70.8757 0.0380331Q71.0687 0.0570382 71.2605 0.0854886Q71.4523 0.113939 71.6425 0.151766Q71.8326 0.189593 72.0207 0.236706Q72.2088 0.283819 72.3943 0.340104Q72.5799 0.396389 72.7625 0.46171Q72.945 0.527032 73.1242 0.601233Q73.3033 0.675433 73.4786 0.758334Q73.6538 0.841236 73.8249 0.932637Q73.9958 1.02404 74.1622 1.12372Q74.3285 1.2234 74.4897 1.33113Q74.6509 1.43885 74.8066 1.55435Q74.9624 1.66986 75.1123 1.79286Q75.2622 1.91587 75.4058 2.04608Q75.5495 2.17629 75.6866 2.3134Q75.8237 2.4505 75.9539 2.59417Q76.0841 2.73784 76.2071 2.88772Q76.3301 3.0376 76.4456 3.19334Q76.5611 3.34908 76.6689 3.5103Q76.7766 3.67152 76.8763 3.83783Q76.976 4.00414 77.0674 4.17514Q77.1588 4.34614 77.2417 4.52142Q77.3246 4.6967 77.3988 4.87584Q77.473 5.05497 77.5383 5.23753Q77.6036 5.4201 77.6599 5.60564Q77.7162 5.79119 77.7633 5.97927Q77.8104 6.16736 77.8482 6.35753Q77.8861 6.5477 77.9145 6.7395Q77.943 6.93129 77.962 7.12426Q77.981 7.31722 77.9905 7.51088Q78 7.70454 78 7.89844L78 62.1016Q78 62.2955 77.9905 62.4891Q77.981 62.6828 77.962 62.8757Q77.943 63.0687 77.9145 63.2605Q77.8861 63.4523 77.8482 63.6425Q77.8104 63.8326 77.7633 64.0207Q77.7162 64.2088 77.6599 64.3944Q77.6036 64.5799 77.5383 64.7625Q77.473 64.945 77.3988 65.1242Q77.3246 65.3033 77.2417 65.4786Q77.1588 65.6539 77.0674 65.8249Q76.976 65.9959 76.8763 66.1622Q76.7766 66.3285 76.6689 66.4897Q76.5611 66.6509 76.4456 66.8066Q76.3301 66.9624 76.2071 67.1123Q76.0841 67.2622 75.9539 67.4058Q75.8237 67.5495 75.6866 67.6866Q75.5495 67.8237 75.4058 67.9539Q75.2621 68.0841 75.1123 68.2071Q74.9624 68.3301 74.8066 68.4456Q74.6509 68.5611 74.4897 68.6689Q74.3285 68.7766 74.1622 68.8763Q73.9958 68.976 73.8249 69.0674Q73.6538 69.1588 73.4786 69.2417Q73.3033 69.3246 73.1242 69.3988Q72.945 69.473 72.7625 69.5383Q72.5799 69.6036 72.3943 69.6599Q72.2088 69.7162 72.0207 69.7633Q71.8326 69.8104 71.6425 69.8482Q71.4523 69.8861 71.2605 69.9145Q71.0687 69.943 70.8757 69.962Q70.6828 69.981 70.4891 69.9905Q70.2955 70 70.1016 70L31.4867 70L7.89844 70Q7.70454 70 7.51088 69.9905Q7.31722 69.981 7.12426 69.962Q6.93129 69.943 6.7395 69.9145Q6.5477 69.8861 6.35753 69.8482Q6.16736 69.8104 5.97927 69.7633Q5.79119 69.7162 5.60564 69.6599Q5.42009 69.6036 5.23753 69.5383Q5.05497 69.473 4.87584 69.3988Q4.6967 69.3246 4.52142 69.2417Q4.34614 69.1588 4.17514 69.0674Q4.00414 68.976 3.83783 68.8763Q3.67152 68.7766 3.5103 68.6689Q3.34908 68.5611 3.19334 68.4456Q3.0376 68.3301 2.88772 68.2071Q2.73784 68.0841 2.59417 67.9539Q2.4505 67.8237 2.3134 67.6866Q2.17629 67.5495 2.04608 67.4058Q1.91587 67.2622 1.79286 67.1123Q1.66986 66.9624 1.55435 66.8067Q1.43885 66.6509 1.33113 66.4897Q1.2234 66.3285 1.12372 66.1622Q1.02404 65.9959 0.932637 65.8249Q0.841236 65.6539 0.758334 65.4786Q0.675433 65.3033 0.601233 65.1242Q0.527032 64.945 0.46171 64.7625Q0.396389 64.5799 0.340104 64.3944Q0.283819 64.2088 0.236706 64.0207Q0.189593 63.8326 0.151766 63.6425Q0.113939 63.4523 0.0854886 63.2605Q0.0570382 63.0687 0.0380331 62.8757Q0.019028 62.6828 0.00951401 62.4891Q0 62.2955 0 62.1016L0 7.89844Q0 7.70454 0.00951401 7.51088Q0.019028 7.31722 0.0380331 7.12426Q0.0570382 6.93129 0.0854886 6.7395Q0.113939 6.5477 0.151766 6.35753Q0.189593 6.16736 0.236706 5.97927Q0.283819 5.79119 0.340104 5.60564Q0.396389 5.42009 0.46171 5.23753Q0.527032 5.05497 0.601233 4.87584Q0.675433 4.6967 0.758334 4.52142Q0.841236 4.34614 0.932637 4.17514Q1.02404 4.00414 1.12372 3.83783Q1.2234 3.67152 1.33113 3.5103Q1.43885 3.34908 1.55435 3.19334Q1.66986 3.0376 1.79286 2.88772Q1.91587 2.73784 2.04608 2.59417Q2.17629 2.4505 2.3134 2.3134Q2.4505 2.17629 2.59417 2.04608Q2.73784 1.91587 2.88772 1.79286Q3.0376 1.66986 3.19334 1.55435Q3.34908 1.43885 3.5103 1.33113Q3.67152 1.2234 3.83783 1.12372Q4.00414 1.02404 4.17514 0.932637Q4.34614 0.841236 4.52142 0.758334Q4.6967 0.675433 4.87584 0.601233Q5.05497 0.527032 5.23753 0.46171Q5.4201 0.396389 5.60564 0.340104Q5.79119 0.283819 5.97927 0.236706Q6.16736 0.189593 6.35753 0.151766Q6.5477 0.113939 6.7395 0.0854886Q6.93129 0.0570382 7.12426 0.0380331Q7.31722 0.019028 7.51088 0.00951401Q7.70454 0 7.89844 0Z" fill-rule="evenodd" transform="translate(10 90)" />
    <path id="Rectangle" d="M7.89844 0L70.1016 0Q70.2955 0 70.4891 0.00951401Q70.6828 0.019028 70.8757 0.0380331Q71.0687 0.0570382 71.2605 0.0854886Q71.4523 0.113939 71.6425 0.151766Q71.8326 0.189593 72.0207 0.236706Q72.2088 0.283819 72.3943 0.340104Q72.5799 0.396389 72.7625 0.46171Q72.945 0.527032 73.1242 0.601233Q73.3033 0.675433 73.4786 0.758334Q73.6538 0.841236 73.8249 0.932637Q73.9958 1.02404 74.1622 1.12372Q74.3285 1.2234 74.4897 1.33113Q74.6509 1.43885 74.8066 1.55435Q74.9624 1.66986 75.1123 1.79286Q75.2622 1.91587 75.4058 2.04608Q75.5495 2.17629 75.6866 2.3134Q75.8237 2.4505 75.9539 2.59417Q76.0841 2.73784 76.2071 2.88772Q76.3301 3.0376 76.4456 3.19334Q76.5611 3.34908 76.6689 3.5103Q76.7766 3.67152 76.8763 3.83783Q76.976 4.00414 77.0674 4.17514Q77.1588 4.34614 77.2417 4.52142Q77.3246 4.6967 77.3988 4.87584Q77.473 5.05497 77.5383 5.23753Q77.6036 5.4201 77.6599 5.60564Q77.7162 5.79119 77.7633 5.97927Q77.8104 6.16736 77.8482 6.35753Q77.8861 6.5477 77.9145 6.7395Q77.943 6.93129 77.962 7.12426Q77.981 7.31722 77.9905 7.51088Q78 7.70454 78 7.89844L78 62.1016Q78 62.2955 77.9905 62.4891Q77.981 62.6828 77.962 62.8757Q77.943 63.0687 77.9145 63.2605Q77.8861 63.4523 77.8482 63.6425Q77.8104 63.8326 77.7633 64.0207Q77.7162 64.2088 77.6599 64.3944Q77.6036 64.5799 77.5383 64.7625Q77.473 64.945 77.3988 65.1242Q77.3246 65.3033 77.2417 65.4786Q77.1588 65.6539 77.0674 65.8249Q76.976 65.9959 76.8763 66.1622Q76.7766 66.3285 76.6689 66.4897Q76.5611 66.6509 76.4456 66.8066Q76.3301 66.9624 76.2071 67.1123Q76.0841 67.2622 75.9539 67.4058Q75.8237 67.5495 75.6866 67.6866Q75.5495 67.8237 75.4058 67.9539Q75.2621 68.0841 75.1123 68.2071Q74.9624 68.3301 74.8066 68.4456Q74.6509 68.5611 74.4897 68.6689Q74.3285 68.7766 74.1622 68.8763Q73.9958 68.976 73.8249 69.0674Q73.6538 69.1588 73.4786 69.2417Q73.3033 69.3246 73.1242 69.3988Q72.945 69.473 72.7625 69.5383Q72.5799 69.6036 72.3943 69.6599Q72.2088 69.7162 72.0207 69.7633Q71.8326 69.8104 71.6425 69.8482Q71.4523 69.8861 71.2605 69.9145Q71.0687 69.943 70.8757 69.962Q70.6828 69.981 70.4891 69.9905Q70.2955 70 70.1016 70L31.4867 70L7.89844 70Q7.70454 70 7.51088 69.9905Q7.31722 69.981 7.12426 69.962Q6.93129 69.943 6.7395 69.9145Q6.5477 69.8861 6.35753 69.8482Q6.16736 69.8104 5.97927 69.7633Q5.79119 69.7162 5.60564 69.6599Q5.42009 69.6036 5.23753 69.5383Q5.05497 69.473 4.87584 69.3988Q4.6967 69.3246 4.52142 69.2417Q4.34614 69.1588 4.17514 69.0674Q4.00414 68.976 3.83783 68.8763Q3.67152 68.7766 3.5103 68.6689Q3.34908 68.5611 3.19334 68.4456Q3.0376 68.3301 2.88772 68.2071Q2.73784 68.0841 2.59417 67.9539Q2.4505 67.8237 2.3134 67.6866Q2.17629 67.5495 2.04608 67.4058Q1.91587 67.2622 1.79286 67.1123Q1.66986 66.9624 1.55435 66.8067Q1.43885 66.6509 1.33113 66.4897Q1.2234 66.3285 1.12372 66.1622Q1.02404 65.9959 0.932637 65.8249Q0.841236 65.6539 0.758334 65.4786Q0.675433 65.3033 0.601233 65.1242Q0.527032 64.945 0.46171 64.7625Q0.396389 64.5799 0.340104 64.3944Q0.283819 64.2088 0.236706 64.0207Q0.189593 63.8326 0.151766 63.6425Q0.113939 63.4523 0.0854886 63.2605Q0.0570382 63.0687 0.0380331 62.8757Q0.019028 62.6828 0.00951401 62.4891Q0 62.2955 0 62.1016L0 7.89844Q0 7.70454 0.00951401 7.51088Q0.019028 7.31722 0.0380331 7.12426Q0.0570382 6.93129 0.0854886 6.7395Q0.113939 6.5477 0.151766 6.35753Q0.189593 6.16736 0.236706 5.97927Q0.283819 5.79119 0.340104 5.60564Q0.396389 5.42009 0.46171 5.23753Q0.527032 5.05497 0.601233 4.87584Q0.675433 4.6967 0.758334 4.52142Q0.841236 4.34614 0.932637 4.17514Q1.02404 4.00414 1.12372 3.83783Q1.2234 3.67152 1.33113 3.5103Q1.43885 3.34908 1.55435 3.19334Q1.66986 3.0376 1.79286 2.88772Q1.91587 2.73784 2.04608 2.59417Q2.17629 2.4505 2.3134 2.3134Q2.4505 2.17629 2.59417 2.04608Q2.73784 1.91587 2.88772 1.79286Q3.0376 1.66986 3.19334 1.55435Q3.34908 1.43885 3.5103 1.33113Q3.67152 1.2234 3.83783 1.12372Q4.00414 1.02404 4.17514 0.932637Q4.34614 0.841236 4.52142 0.758334Q4.6967 0.675433 4.87584 0.601233Q5.05497 0.527032 5.23753 0.46171Q5.4201 0.396389 5.60564 0.340104Q5.79119 0.283819 5.97927 0.236706Q6.16736 0.189593 6.35753 0.151766Q6.5477 0.113939 6.7395 0.0854886Q6.93129 0.0570382 7.12426 0.0380331Q7.31722 0.019028 7.51088 0.00951401Q7.70454 0 7.89844 0Z" fill-rule="evenodd" transform="translate(98 90)" />
    <path id="Rectangle" d="M7.89844 0L70.1016 0Q70.2955 0 70.4891 0.00951401Q70.6828 0.019028 70.8757 0.0380331Q71.0687 0.0570382 71.2605 0.0854886Q71.4523 0.113939 71.6425 0.151766Q71.8326 0.189593 72.0207 0.236706Q72.2088 0.283819 72.3943 0.340104Q72.5799 0.396389 72.7625 0.46171Q72.945 0.527032 73.1242 0.601233Q73.3033 0.675433 73.4786 0.758334Q73.6538 0.841236 73.8249 0.932637Q73.9958 1.02404 74.1622 1.12372Q74.3285 1.2234 74.4897 1.33113Q74.6509 1.43885 74.8066 1.55435Q74.9624 1.66986 75.1123 1.79286Q75.2622 1.91587 75.4058 2.04608Q75.5495 2.17629 75.6866 2.3134Q75.8237 2.4505 75.9539 2.59417Q76.0841 2.73784 76.2071 2.88772Q76.3301 3.0376 76.4456 3.19334Q76.5611 3.34908 76.6689 3.5103Q76.7766 3.67152 76.8763 3.83783Q76.976 4.00414 77.0674 4.17514Q77.1588 4.34614 77.2417 4.52142Q77.3246 4.6967 77.3988 4.87584Q77.473 5.05497 77.5383 5.23753Q77.6036 5.4201 77.6599 5.60564Q77.7162 5.79119 77.7633 5.97927Q77.8104 6.16736 77.8482 6.35753Q77.8861 6.5477 77.9145 6.7395Q77.943 6.93129 77.962 7.12426Q77.981 7.31722 77.9905 7.51088Q78 7.70454 78 7.89844L78 62.1016Q78 62.2955 77.9905 62.4891Q77.981 62.6828 77.962 62.8757Q77.943 63.0687 77.9145 63.2605Q77.8861 63.4523 77.8482 63.6425Q77.8104 63.8326 77.7633 64.0207Q77.7162 64.2088 77.6599 64.3944Q77.6036 64.5799 77.5383 64.7625Q77.473 64.945 77.3988 65.1242Q77.3246 65.3033 77.2417 65.4786Q77.1588 65.6539 77.0674 65.8249Q76.976 65.9959 76.8763 66.1622Q76.7766 66.3285 76.6689 66.4897Q76.5611 66.6509 76.4456 66.8066Q76.3301 66.9624 76.2071 67.1123Q76.0841 67.2622 75.9539 67.4058Q75.8237 67.5495 75.6866 67.6866Q75.5495 67.8237 75.4058 67.9539Q75.2621 68.0841 75.1123 68.2071Q74.9624 68.3301 74.8066 68.4456Q74.6509 68.5611 74.4897 68.6689Q74.3285 68.7766 74.1622 68.8763Q73.9958 68.976 73.8249 69.0674Q73.6538 69.1588 73.4786 69.2417Q73.3033 69.3246 73.1242 69.3988Q72.945 69.473 72.7625 69.5383Q72.5799 69.6036 72.3943 69.6599Q72.2088 69.7162 72.0207 69.7633Q71.8326 69.8104 71.6425 69.8482Q71.4523 69.8861 71.2605 69.9145Q71.0687 69.943 70.8757 69.962Q70.6828 69.981 70.4891 69.9905Q70.2955 70 70.1016 70L31.4867 70L7.89844 70Q7.70454 70 7.51088 69.9905Q7.31722 69.981 7.12426 69.962Q6.93129 69.943 6.7395 69.9145Q6.5477 69.8861 6.35753 69.8482Q6.16736 69.8104 5.97927 69.7633Q5.79119 69.7162 5.60564 69.6599Q5.42009 69.6036 5.23753 69.5383Q5.05497 69.473 4.87584 69.3988Q4.6967 69.3246 4.52142 69.2417Q4.34614 69.1588 4.17514 69.0674Q4.00414 68.976 3.83783 68.8763Q3.67152 68.7766 3.5103 68.6689Q3.34908 68.5611 3.19334 68.4456Q3.0376 68.3301 2.88772 68.2071Q2.73784 68.0841 2.59417 67.9539Q2.4505 67.8237 2.3134 67.6866Q2.17629 67.5495 2.04608 67.4058Q1.91587 67.2622 1.79286 67.1123Q1.66986 66.9624 1.55435 66.8067Q1.43885 66.6509 1.33113 66.4897Q1.2234 66.3285 1.12372 66.1622Q1.02404 65.9959 0.932637 65.8249Q0.841236 65.6539 0.758334 65.4786Q0.675433 65.3033 0.601233 65.1242Q0.527032 64.945 0.46171 64.7625Q0.396389 64.5799 0.340104 64.3944Q0.283819 64.2088 0.236706 64.0207Q0.189593 63.8326 0.151766 63.6425Q0.113939 63.4523 0.0854886 63.2605Q0.0570382 63.0687 0.0380331 62.8757Q0.019028 62.6828 0.00951401 62.4891Q0 62.2955 0 62.1016L0 7.89844Q0 7.70454 0.00951401 7.51088Q0.019028 7.31722 0.0380331 7.12426Q0.0570382 6.93129 0.0854886 6.7395Q0.113939 6.5477 0.151766 6.35753Q0.189593 6.16736 0.236706 5.97927Q0.283819 5.79119 0.340104 5.60564Q0.396389 5.42009 0.46171 5.23753Q0.527032 5.05497 0.601233 4.87584Q0.675433 4.6967 0.758334 4.52142Q0.841236 4.34614 0.932637 4.17514Q1.02404 4.00414 1.12372 3.83783Q1.2234 3.67152 1.33113 3.5103Q1.43885 3.34908 1.55435 3.19334Q1.66986 3.0376 1.79286 2.88772Q1.91587 2.73784 2.04608 2.59417Q2.17629 2.4505 2.3134 2.3134Q2.4505 2.17629 2.59417 2.04608Q2.73784 1.91587 2.88772 1.79286Q3.0376 1.66986 3.19334 1.55435Q3.34908 1.43885 3.5103 1.33113Q3.67152 1.2234 3.83783 1.12372Q4.00414 1.02404 4.17514 0.932637Q4.34614 0.841236 4.52142 0.758334Q4.6967 0.675433 4.87584 0.601233Q5.05497 0.527032 5.23753 0.46171Q5.4201 0.396389 5.60564 0.340104Q5.79119 0.283819 5.97927 0.236706Q6.16736 0.189593 6.35753 0.151766Q6.5477 0.113939 6.7395 0.0854886Q6.93129 0.0570382 7.12426 0.0380331Q7.31722 0.019028 7.51088 0.00951401Q7.70454 0 7.89844 0Z" fill-rule="evenodd" transform="translate(186 90)" />
    <path id="Rectangle" d="M7.89844 0L70.1016 0Q70.2955 0 70.4891 0.00951401Q70.6828 0.019028 70.8757 0.0380331Q71.0687 0.0570382 71.2605 0.0854886Q71.4523 0.113939 71.6425 0.151766Q71.8326 0.189593 72.0207 0.236706Q72.2088 0.283819 72.3943 0.340104Q72.5799 0.396389 72.7625 0.46171Q72.945 0.527032 73.1242 0.601233Q73.3033 0.675433 73.4786 0.758334Q73.6538 0.841236 73.8249 0.932637Q73.9958 1.02404 74.1622 1.12372Q74.3285 1.2234 74.4897 1.33113Q74.6509 1.43885 74.8066 1.55435Q74.9624 1.66986 75.1123 1.79286Q75.2622 1.91587 75.4058 2.04608Q75.5495 2.17629 75.6866 2.3134Q75.8237 2.4505 75.9539 2.59417Q76.0841 2.73784 76.2071 2.88772Q76.3301 3.0376 76.4456 3.19334Q76.5611 3.34908 76.6689 3.5103Q76.7766 3.67152 76.8763 3.83783Q76.976 4.00414 77.0674 4.17514Q77.1588 4.34614 77.2417 4.52142Q77.3246 4.6967 77.3988 4.87584Q77.473 5.05497 77.5383 5.23753Q77.6036 5.4201 77.6599 5.60564Q77.7162 5.79119 77.7633 5.97927Q77.8104 6.16736 77.8482 6.35753Q77.8861 6.5477 77.9145 6.7395Q77.943 6.93129 77.962 7.12426Q77.981 7.31722 77.9905 7.51088Q78 7.70454 78 7.89844L78 62.1016Q78 62.2955 77.9905 62.4891Q77.981 62.6828 77.962 62.8757Q77.943 63.0687 77.9145 63.2605Q77.8861 63.4523 77.8482 63.6425Q77.8104 63.8326 77.7633 64.0207Q77.7162 64.2088 77.6599 64.3944Q77.6036 64.5799 77.5383 64.7625Q77.473 64.945 77.3988 65.1242Q77.3246 65.3033 77.2417 65.4786Q77.1588 65.6539 77.0674 65.8249Q76.976 65.9959 76.8763 66.1622Q76.7766 66.3285 76.6689 66.4897Q76.5611 66.6509 76.4456 66.8066Q76.3301 66.9624 76.2071 67.1123Q76.0841 67.2622 75.9539 67.4058Q75.8237 67.5495 75.6866 67.6866Q75.5495 67.8237 75.4058 67.9539Q75.2621 68.0841 75.1123 68.2071Q74.9624 68.3301 74.8066 68.4456Q74.6509 68.5611 74.4897 68.6689Q74.3285 68.7766 74.1622 68.8763Q73.9958 68.976 73.8249 69.0674Q73.6538 69.1588 73.4786 69.2417Q73.3033 69.3246 73.1242 69.3988Q72.945 69.473 72.7625 69.5383Q72.5799 69.6036 72.3943 69.6599Q72.2088 69.7162 72.0207 69.7633Q71.8326 69.8104 71.6425 69.8482Q71.4523 69.8861 71.2605 69.9145Q71.0687 69.943 70.8757 69.962Q70.6828 69.981 70.4891 69.9905Q70.2955 70 70.1016 70L31.4867 70L7.89844 70Q7.70454 70 7.51088 69.9905Q7.31722 69.981 7.12426 69.962Q6.93129 69.943 6.7395 69.9145Q6.5477 69.8861 6.35753 69.8482Q6.16736 69.8104 5.97927 69.7633Q5.79119 69.7162 5.60564 69.6599Q5.42009 69.6036 5.23753 69.5383Q5.05497 69.473 4.87584 69.3988Q4.6967 69.3246 4.52142 69.2417Q4.34614 69.1588 4.17514 69.0674Q4.00414 68.976 3.83783 68.8763Q3.67152 68.7766 3.5103 68.6689Q3.34908 68.5611 3.19334 68.4456Q3.0376 68.3301 2.88772 68.2071Q2.73784 68.0841 2.59417 67.9539Q2.4505 67.8237 2.3134 67.6866Q2.17629 67.5495 2.04608 67.4058Q1.91587 67.2622 1.79286 67.1123Q1.66986 66.9624 1.55435 66.8067Q1.43885 66.6509 1.33113 66.4897Q1.2234 66.3285 1.12372 66.1622Q1.02404 65.9959 0.932637 65.8249Q0.841236 65.6539 0.758334 65.4786Q0.675433 65.3033 0.601233 65.1242Q0.527032 64.945 0.46171 64.7625Q0.396389 64.5799 0.340104 64.3944Q0.283819 64.2088 0.236706 64.0207Q0.189593 63.8326 0.151766 63.6425Q0.113939 63.4523 0.0854886 63.2605Q0.0570382 63.0687 0.0380331 62.8757Q0.019028 62.6828 0.00951401 62.4891Q0 62.2955 0 62.1016L0 7.89844Q0 7.70454 0.00951401 7.51088Q0.019028 7.31722 0.0380331 7.12426Q0.0570382 6.93129 0.0854886 6.7395Q0.113939 6.5477 0.151766 6.35753Q0.189593 6.16736 0.236706 5.97927Q0.283819 5.79119 0.340104 5.60564Q0.396389 5.42009 0.46171 5.23753Q0.527032 5.05497 0.601233 4.87584Q0.675433 4.6967 0.758334 4.52142Q0.841236 4.34614 0.932637 4.17514Q1.02404 4.00414 1.12372 3.83783Q1.2234 3.67152 1.33113 3.5103Q1.43885 3.34908 1.55435 3.19334Q1.66986 3.0376 1.79286 2.88772Q1.91587 2.73784 2.04608 2.59417Q2.17629 2.4505 2.3134 2.3134Q2.4505 2.17629 2.59417 2.04608Q2.73784 1.91587 2.88772 1.79286Q3.0376 1.66986 3.19334 1.55435Q3.34908 1.43885 3.5103 1.33113Q3.67152 1.2234 3.83783 1.12372Q4.00414 1.02404 4.17514 0.932637Q4.34614 0.841236 4.52142 0.758334Q4.6967 0.675433 4.87584 0.601233Q5.05497 0.527032 5.23753 0.46171Q5.4201 0.396389 5.60564 0.340104Q5.79119 0.283819 5.97927 0.236706Q6.16736 0.189593 6.35753 0.151766Q6.5477 0.113939 6.7395 0.0854886Q6.93129 0.0570382 7.12426 0.0380331Q7.31722 0.019028 7.51088 0.00951401Q7.70454 0 7.89844 0Z" fill-rule="evenodd" transform="translate(10 170)" />
    <path id="Rectangle" d="M7.89844 0L70.1016 0Q70.2955 0 70.4891 0.00951401Q70.6828 0.019028 70.8757 0.0380331Q71.0687 0.0570382 71.2605 0.0854886Q71.4523 0.113939 71.6425 0.151766Q71.8326 0.189593 72.0207 0.236706Q72.2088 0.283819 72.3943 0.340104Q72.5799 0.396389 72.7625 0.46171Q72.945 0.527032 73.1242 0.601233Q73.3033 0.675433 73.4786 0.758334Q73.6538 0.841236 73.8249 0.932637Q73.9958 1.02404 74.1622 1.12372Q74.3285 1.2234 74.4897 1.33113Q74.6509 1.43885 74.8066 1.55435Q74.9624 1.66986 75.1123 1.79286Q75.2622 1.91587 75.4058 2.04608Q75.5495 2.17629 75.6866 2.3134Q75.8237 2.4505 75.9539 2.59417Q76.0841 2.73784 76.2071 2.88772Q76.3301 3.0376 76.4456 3.19334Q76.5611 3.34908 76.6689 3.5103Q76.7766 3.67152 76.8763 3.83783Q76.976 4.00414 77.0674 4.17514Q77.1588 4.34614 77.2417 4.52142Q77.3246 4.6967 77.3988 4.87584Q77.473 5.05497 77.5383 5.23753Q77.6036 5.4201 77.6599 5.60564Q77.7162 5.79119 77.7633 5.97927Q77.8104 6.16736 77.8482 6.35753Q77.8861 6.5477 77.9145 6.7395Q77.943 6.93129 77.962 7.12426Q77.981 7.31722 77.9905 7.51088Q78 7.70454 78 7.89844L78 62.1016Q78 62.2955 77.9905 62.4891Q77.981 62.6828 77.962 62.8757Q77.943 63.0687 77.9145 63.2605Q77.8861 63.4523 77.8482 63.6425Q77.8104 63.8326 77.7633 64.0207Q77.7162 64.2088 77.6599 64.3944Q77.6036 64.5799 77.5383 64.7625Q77.473 64.945 77.3988 65.1242Q77.3246 65.3033 77.2417 65.4786Q77.1588 65.6539 77.0674 65.8249Q76.976 65.9959 76.8763 66.1622Q76.7766 66.3285 76.6689 66.4897Q76.5611 66.6509 76.4456 66.8066Q76.3301 66.9624 76.2071 67.1123Q76.0841 67.2622 75.9539 67.4058Q75.8237 67.5495 75.6866 67.6866Q75.5495 67.8237 75.4058 67.9539Q75.2621 68.0841 75.1123 68.2071Q74.9624 68.3301 74.8066 68.4456Q74.6509 68.5611 74.4897 68.6689Q74.3285 68.7766 74.1622 68.8763Q73.9958 68.976 73.8249 69.0674Q73.6538 69.1588 73.4786 69.2417Q73.3033 69.3246 73.1242 69.3988Q72.945 69.473 72.7625 69.5383Q72.5799 69.6036 72.3943 69.6599Q72.2088 69.7162 72.0207 69.7633Q71.8326 69.8104 71.6425 69.8482Q71.4523 69.8861 71.2605 69.9145Q71.0687 69.943 70.8757 69.962Q70.6828 69.981 70.4891 69.9905Q70.2955 70 70.1016 70L31.4867 70L7.89844 70Q7.70454 70 7.51088 69.9905Q7.31722 69.981 7.12426 69.962Q6.93129 69.943 6.7395 69.9145Q6.5477 69.8861 6.35753 69.8482Q6.16736 69.8104 5.97927 69.7633Q5.79119 69.7162 5.60564 69.6599Q5.42009 69.6036 5.23753 69.5383Q5.05497 69.473 4.87584 69.3988Q4.6967 69.3246 4.52142 69.2417Q4.34614 69.1588 4.17514 69.0674Q4.00414 68.976 3.83783 68.8763Q3.67152 68.7766 3.5103 68.6689Q3.34908 68.5611 3.19334 68.4456Q3.0376 68.3301 2.88772 68.2071Q2.73784 68.0841 2.59417 67.9539Q2.4505 67.8237 2.3134 67.6866Q2.17629 67.5495 2.04608 67.4058Q1.91587 67.2622 1.79286 67.1123Q1.66986 66.9624 1.55435 66.8067Q1.43885 66.6509 1.33113 66.4897Q1.2234 66.3285 1.12372 66.1622Q1.02404 65.9959 0.932637 65.8249Q0.841236 65.6539 0.758334 65.4786Q0.675433 65.3033 0.601233 65.1242Q0.527032 64.945 0.46171 64.7625Q0.396389 64.5799 0.340104 64.3944Q0.283819 64.2088 0.236706 64.0207Q0.189593 63.8326 0.151766 63.6425Q0.113939 63.4523 0.0854886 63.2605Q0.0570382 63.0687 0.0380331 62.8757Q0.019028 62.6828 0.00951401 62.4891Q0 62.2955 0 62.1016L0 7.89844Q0 7.70454 0.00951401 7.51088Q0.019028 7.31722 0.0380331 7.12426Q0.0570382 6.93129 0.0854886 6.7395Q0.113939 6.5477 0.151766 6.35753Q0.189593 6.16736 0.236706 5.97927Q0.283819 5.79119 0.340104 5.60564Q0.396389 5.42009 0.46171 5.23753Q0.527032 5.05497 0.601233 4.87584Q0.675433 4.6967 0.758334 4.52142Q0.841236 4.34614 0.932637 4.17514Q1.02404 4.00414 1.12372 3.83783Q1.2234 3.67152 1.33113 3.5103Q1.43885 3.34908 1.55435 3.19334Q1.66986 3.0376 1.79286 2.88772Q1.91587 2.73784 2.04608 2.59417Q2.17629 2.4505 2.3134 2.3134Q2.4505 2.17629 2.59417 2.04608Q2.73784 1.91587 2.88772 1.79286Q3.0376 1.66986 3.19334 1.55435Q3.34908 1.43885 3.5103 1.33113Q3.67152 1.2234 3.83783 1.12372Q4.00414 1.02404 4.17514 0.932637Q4.34614 0.841236 4.52142 0.758334Q4.6967 0.675433 4.87584 0.601233Q5.05497 0.527032 5.23753 0.46171Q5.4201 0.396389 5.60564 0.340104Q5.79119 0.283819 5.97927 0.236706Q6.16736 0.189593 6.35753 0.151766Q6.5477 0.113939 6.7395 0.0854886Q6.93129 0.0570382 7.12426 0.0380331Q7.31722 0.019028 7.51088 0.00951401Q7.70454 0 7.89844 0Z" fill-rule="evenodd" transform="translate(98 170)" />
    <path id="Rectangle" d="M7.89844 0L70.1016 0Q70.2955 0 70.4891 0.00951401Q70.6828 0.019028 70.8757 0.0380331Q71.0687 0.0570382 71.2605 0.0854886Q71.4523 0.113939 71.6425 0.151766Q71.8326 0.189593 72.0207 0.236706Q72.2088 0.283819 72.3943 0.340104Q72.5799 0.396389 72.7625 0.46171Q72.945 0.527032 73.1242 0.601233Q73.3033 0.675433 73.4786 0.758334Q73.6538 0.841236 73.8249 0.932637Q73.9958 1.02404 74.1622 1.12372Q74.3285 1.2234 74.4897 1.33113Q74.6509 1.43885 74.8066 1.55435Q74.9624 1.66986 75.1123 1.79286Q75.2622 1.91587 75.4058 2.04608Q75.5495 2.17629 75.6866 2.3134Q75.8237 2.4505 75.9539 2.59417Q76.0841 2.73784 76.2071 2.88772Q76.3301 3.0376 76.4456 3.19334Q76.5611 3.34908 76.6689 3.5103Q76.7766 3.67152 76.8763 3.83783Q76.976 4.00414 77.0674 4.17514Q77.1588 4.34614 77.2417 4.52142Q77.3246 4.6967 77.3988 4.87584Q77.473 5.05497 77.5383 5.23753Q77.6036 5.4201 77.6599 5.60564Q77.7162 5.79119 77.7633 5.97927Q77.8104 6.16736 77.8482 6.35753Q77.8861 6.5477 77.9145 6.7395Q77.943 6.93129 77.962 7.12426Q77.981 7.31722 77.9905 7.51088Q78 7.70454 78 7.89844L78 62.1016Q78 62.2955 77.9905 62.4891Q77.981 62.6828 77.962 62.8757Q77.943 63.0687 77.9145 63.2605Q77.8861 63.4523 77.8482 63.6425Q77.8104 63.8326 77.7633 64.0207Q77.7162 64.2088 77.6599 64.3944Q77.6036 64.5799 77.5383 64.7625Q77.473 64.945 77.3988 65.1242Q77.3246 65.3033 77.2417 65.4786Q77.1588 65.6539 77.0674 65.8249Q76.976 65.9959 76.8763 66.1622Q76.7766 66.3285 76.6689 66.4897Q76.5611 66.6509 76.4456 66.8066Q76.3301 66.9624 76.2071 67.1123Q76.0841 67.2622 75.9539 67.4058Q75.8237 67.5495 75.6866 67.6866Q75.5495 67.8237 75.4058 67.9539Q75.2621 68.0841 75.1123 68.2071Q74.9624 68.3301 74.8066 68.4456Q74.6509 68.5611 74.4897 68.6689Q74.3285 68.7766 74.1622 68.8763Q73.9958 68.976 73.8249 69.0674Q73.6538 69.1588 73.4786 69.2417Q73.3033 69.3246 73.1242 69.3988Q72.945 69.473 72.7625 69.5383Q72.5799 69.6036 72.3943 69.6599Q72.2088 69.7162 72.0207 69.7633Q71.8326 69.8104 71.6425 69.8482Q71.4523 69.8861 71.2605 69.9145Q71.0687 69.943 70.8757 69.962Q70.6828 69.981 70.4891 69.9905Q70.2955 70 70.1016 70L31.4867 70L7.89844 70Q7.70454 70 7.51088 69.9905Q7.31722 69.981 7.12426 69.962Q6.93129 69.943 6.7395 69.9145Q6.5477 69.8861 6.35753 69.8482Q6.16736 69.8104 5.97927 69.7633Q5.79119 69.7162 5.60564 69.6599Q5.42009 69.6036 5.23753 69.5383Q5.05497 69.473 4.87584 69.3988Q4.6967 69.3246 4.52142 69.2417Q4.34614 69.1588 4.17514 69.0674Q4.00414 68.976 3.83783 68.8763Q3.67152 68.7766 3.5103 68.6689Q3.34908 68.5611 3.19334 68.4456Q3.0376 68.3301 2.88772 68.2071Q2.73784 68.0841 2.59417 67.9539Q2.4505 67.8237 2.3134 67.6866Q2.17629 67.5495 2.04608 67.4058Q1.91587 67.2622 1.79286 67.1123Q1.66986 66.9624 1.55435 66.8067Q1.43885 66.6509 1.33113 66.4897Q1.2234 66.3285 1.12372 66.1622Q1.02404 65.9959 0.932637 65.8249Q0.841236 65.6539 0.758334 65.4786Q0.675433 65.3033 0.601233 65.1242Q0.527032 64.945 0.46171 64.7625Q0.396389 64.5799 0.340104 64.3944Q0.283819 64.2088 0.236706 64.0207Q0.189593 63.8326 0.151766 63.6425Q0.113939 63.4523 0.0854886 63.2605Q0.0570382 63.0687 0.0380331 62.8757Q0.019028 62.6828 0.00951401 62.4891Q0 62.2955 0 62.1016L0 7.89844Q0 7.70454 0.00951401 7.51088Q0.019028 7.31722 0.0380331 7.12426Q0.0570382 6.93129 0.0854886 6.7395Q0.113939 6.5477 0.151766 6.35753Q0.189593 6.16736 0.236706 5.97927Q0.283819 5.79119 0.340104 5.60564Q0.396389 5.42009 0.46171 5.23753Q0.527032 5.05497 0.601233 4.87584Q0.675433 4.6967 0.758334 4.52142Q0.841236 4.34614 0.932637 4.17514Q1.02404 4.00414 1.12372 3.83783Q1.2234 3.67152 1.33113 3.5103Q1.43885 3.34908 1.55435 3.19334Q1.66986 3.0376 1.79286 2.88772Q1.91587 2.73784 2.04608 2.59417Q2.17629 2.4505 2.3134 2.3134Q2.4505 2.17629 2.59417 2.04608Q2.73784 1.91587 2.88772 1.79286Q3.0376 1.66986 3.19334 1.55435Q3.34908 1.43885 3.5103 1.33113Q3.67152 1.2234 3.83783 1.12372Q4.00414 1.02404 4.17514 0.932637Q4.34614 0.841236 4.52142 0.758334Q4.6967 0.675433 4.87584 0.601233Q5.05497 0.527032 5.23753 0.46171Q5.4201 0.396389 5.60564 0.340104Q5.79119 0.283819 5.97927 0.236706Q6.16736 0.189593 6.35753 0.151766Q6.5477 0.113939 6.7395 0.0854886Q6.93129 0.0570382 7.12426 0.0380331Q7.31722 0.019028 7.51088 0.00951401Q7.70454 0 7.89844 0Z" fill-rule="evenodd" transform="translate(98 170)" />
    <path id="Rectangle" d="M7.89844 0L70.1016 0Q70.2955 0 70.4891 0.00951401Q70.6828 0.019028 70.8757 0.0380331Q71.0687 0.0570382 71.2605 0.0854886Q71.4523 0.113939 71.6425 0.151766Q71.8326 0.189593 72.0207 0.236706Q72.2088 0.283819 72.3943 0.340104Q72.5799 0.396389 72.7625 0.46171Q72.945 0.527032 73.1242 0.601233Q73.3033 0.675433 73.4786 0.758334Q73.6538 0.841236 73.8249 0.932637Q73.9958 1.02404 74.1622 1.12372Q74.3285 1.2234 74.4897 1.33113Q74.6509 1.43885 74.8066 1.55435Q74.9624 1.66986 75.1123 1.79286Q75.2622 1.91587 75.4058 2.04608Q75.5495 2.17629 75.6866 2.3134Q75.8237 2.4505 75.9539 2.59417Q76.0841 2.73784 76.2071 2.88772Q76.3301 3.0376 76.4456 3.19334Q76.5611 3.34908 76.6689 3.5103Q76.7766 3.67152 76.8763 3.83783Q76.976 4.00414 77.0674 4.17514Q77.1588 4.34614 77.2417 4.52142Q77.3246 4.6967 77.3988 4.87584Q77.473 5.05497 77.5383 5.23753Q77.6036 5.4201 77.6599 5.60564Q77.7162 5.79119 77.7633 5.97927Q77.8104 6.16736 77.8482 6.35753Q77.8861 6.5477 77.9145 6.7395Q77.943 6.93129 77.962 7.12426Q77.981 7.31722 77.9905 7.51088Q78 7.70454 78 7.89844L78 62.1016Q78 62.2955 77.9905 62.4891Q77.981 62.6828 77.962 62.8757Q77.943 63.0687 77.9145 63.2605Q77.8861 63.4523 77.8482 63.6425Q77.8104 63.8326 77.7633 64.0207Q77.7162 64.2088 77.6599 64.3944Q77.6036 64.5799 77.5383 64.7625Q77.473 64.945 77.3988 65.1242Q77.3246 65.3033 77.2417 65.4786Q77.1588 65.6539 77.0674 65.8249Q76.976 65.9959 76.8763 66.1622Q76.7766 66.3285 76.6689 66.4897Q76.5611 66.6509 76.4456 66.8066Q76.3301 66.9624 76.2071 67.1123Q76.0841 67.2622 75.9539 67.4058Q75.8237 67.5495 75.6866 67.6866Q75.5495 67.8237 75.4058 67.9539Q75.2621 68.0841 75.1123 68.2071Q74.9624 68.3301 74.8066 68.4456Q74.6509 68.5611 74.4897 68.6689Q74.3285 68.7766 74.1622 68.8763Q73.9958 68.976 73.8249 69.0674Q73.6538 69.1588 73.4786 69.2417Q73.3033 69.3246 73.1242 69.3988Q72.945 69.473 72.7625 69.5383Q72.5799 69.6036 72.3943 69.6599Q72.2088 69.7162 72.0207 69.7633Q71.8326 69.8104 71.6425 69.8482Q71.4523 69.8861 71.2605 69.9145Q71.0687 69.943 70.8757 69.962Q70.6828 69.981 70.4891 69.9905Q70.2955 70 70.1016 70L31.4867 70L7.89844 70Q7.70454 70 7.51088 69.9905Q7.31722 69.981 7.12426 69.962Q6.93129 69.943 6.7395 69.9145Q6.5477 69.8861 6.35753 69.8482Q6.16736 69.8104 5.97927 69.7633Q5.79119 69.7162 5.60564 69.6599Q5.42009 69.6036 5.23753 69.5383Q5.05497 69.473 4.87584 69.3988Q4.6967 69.3246 4.52142 69.2417Q4.34614 69.1588 4.17514 69.0674Q4.00414 68.976 3.83783 68.8763Q3.67152 68.7766 3.5103 68.6689Q3.34908 68.5611 3.19334 68.4456Q3.0376 68.3301 2.88772 68.2071Q2.73784 68.0841 2.59417 67.9539Q2.4505 67.8237 2.3134 67.6866Q2.17629 67.5495 2.04608 67.4058Q1.91587 67.2622 1.79286 67.1123Q1.66986 66.9624 1.55435 66.8067Q1.43885 66.6509 1.33113 66.4897Q1.2234 66.3285 1.12372 66.1622Q1.02404 65.9959 0.932637 65.8249Q0.841236 65.6539 0.758334 65.4786Q0.675433 65.3033 0.601233 65.1242Q0.527032 64.945 0.46171 64.7625Q0.396389 64.5799 0.340104 64.3944Q0.283819 64.2088 0.236706 64.0207Q0.189593 63.8326 0.151766 63.6425Q0.113939 63.4523 0.0854886 63.2605Q0.0570382 63.0687 0.0380331 62.8757Q0.019028 62.6828 0.00951401 62.4891Q0 62.2955 0 62.1016L0 7.89844Q0 7.70454 0.00951401 7.51088Q0.019028 7.31722 0.0380331 7.12426Q0.0570382 6.93129 0.0854886 6.7395Q0.113939 6.5477 0.151766 6.35753Q0.189593 6.16736 0.236706 5.97927Q0.283819 5.79119 0.340104 5.60564Q0.396389 5.42009 0.46171 5.23753Q0.527032 5.05497 0.601233 4.87584Q0.675433 4.6967 0.758334 4.52142Q0.841236 4.34614 0.932637 4.17514Q1.02404 4.00414 1.12372 3.83783Q1.2234 3.67152 1.33113 3.5103Q1.43885 3.34908 1.55435 3.19334Q1.66986 3.0376 1.79286 2.88772Q1.91587 2.73784 2.04608 2.59417Q2.17629 2.4505 2.3134 2.3134Q2.4505 2.17629 2.59417 2.04608Q2.73784 1.91587 2.88772 1.79286Q3.0376 1.66986 3.19334 1.55435Q3.34908 1.43885 3.5103 1.33113Q3.67152 1.2234 3.83783 1.12372Q4.00414 1.02404 4.17514 0.932637Q4.34614 0.841236 4.52142 0.758334Q4.6967 0.675433 4.87584 0.601233Q5.05497 0.527032 5.23753 0.46171Q5.4201 0.396389 5.60564 0.340104Q5.79119 0.283819 5.97927 0.236706Q6.16736 0.189593 6.35753 0.151766Q6.5477 0.113939 6.7395 0.0854886Q6.93129 0.0570382 7.12426 0.0380331Q7.31722 0.019028 7.51088 0.00951401Q7.70454 0 7.89844 0Z" fill-rule="evenodd" transform="translate(186 170)" />
    <path id="Rectangle" d="M7.89844 0L70.1016 0Q70.2955 0 70.4891 0.00951401Q70.6828 0.019028 70.8757 0.0380331Q71.0687 0.0570382 71.2605 0.0854886Q71.4523 0.113939 71.6425 0.151766Q71.8326 0.189593 72.0207 0.236706Q72.2088 0.283819 72.3943 0.340104Q72.5799 0.396389 72.7625 0.46171Q72.945 0.527032 73.1242 0.601233Q73.3033 0.675433 73.4786 0.758334Q73.6538 0.841236 73.8249 0.932637Q73.9958 1.02404 74.1622 1.12372Q74.3285 1.2234 74.4897 1.33113Q74.6509 1.43885 74.8066 1.55435Q74.9624 1.66986 75.1123 1.79286Q75.2622 1.91587 75.4058 2.04608Q75.5495 2.17629 75.6866 2.3134Q75.8237 2.4505 75.9539 2.59417Q76.0841 2.73784 76.2071 2.88772Q76.3301 3.0376 76.4456 3.19334Q76.5611 3.34908 76.6689 3.5103Q76.7766 3.67152 76.8763 3.83783Q76.976 4.00414 77.0674 4.17514Q77.1588 4.34614 77.2417 4.52142Q77.3246 4.6967 77.3988 4.87584Q77.473 5.05497 77.5383 5.23753Q77.6036 5.4201 77.6599 5.60564Q77.7162 5.79119 77.7633 5.97927Q77.8104 6.16736 77.8482 6.35753Q77.8861 6.5477 77.9145 6.7395Q77.943 6.93129 77.962 7.12426Q77.981 7.31722 77.9905 7.51088Q78 7.70454 78 7.89844L78 62.1016Q78 62.2955 77.9905 62.4891Q77.981 62.6828 77.962 62.8757Q77.943 63.0687 77.9145 63.2605Q77.8861 63.4523 77.8482 63.6425Q77.8104 63.8326 77.7633 64.0207Q77.7162 64.2088 77.6599 64.3944Q77.6036 64.5799 77.5383 64.7625Q77.473 64.945 77.3988 65.1242Q77.3246 65.3033 77.2417 65.4786Q77.1588 65.6539 77.0674 65.8249Q76.976 65.9959 76.8763 66.1622Q76.7766 66.3285 76.6689 66.4897Q76.5611 66.6509 76.4456 66.8066Q76.3301 66.9624 76.2071 67.1123Q76.0841 67.2622 75.9539 67.4058Q75.8237 67.5495 75.6866 67.6866Q75.5495 67.8237 75.4058 67.9539Q75.2621 68.0841 75.1123 68.2071Q74.9624 68.3301 74.8066 68.4456Q74.6509 68.5611 74.4897 68.6689Q74.3285 68.7766 74.1622 68.8763Q73.9958 68.976 73.8249 69.0674Q73.6538 69.1588 73.4786 69.2417Q73.3033 69.3246 73.1242 69.3988Q72.945 69.473 72.7625 69.5383Q72.5799 69.6036 72.3943 69.6599Q72.2088 69.7162 72.0207 69.7633Q71.8326 69.8104 71.6425 69.8482Q71.4523 69.8861 71.2605 69.9145Q71.0687 69.943 70.8757 69.962Q70.6828 69.981 70.4891 69.9905Q70.2955 70 70.1016 70L31.4867 70L7.89844 70Q7.70454 70 7.51088 69.9905Q7.31722 69.981 7.12426 69.962Q6.93129 69.943 6.7395 69.9145Q6.5477 69.8861 6.35753 69.8482Q6.16736 69.8104 5.97927 69.7633Q5.79119 69.7162 5.60564 69.6599Q5.42009 69.6036 5.23753 69.5383Q5.05497 69.473 4.87584 69.3988Q4.6967 69.3246 4.52142 69.2417Q4.34614 69.1588 4.17514 69.0674Q4.00414 68.976 3.83783 68.8763Q3.67152 68.7766 3.5103 68.6689Q3.34908 68.5611 3.19334 68.4456Q3.0376 68.3301 2.88772 68.2071Q2.73784 68.0841 2.59417 67.9539Q2.4505 67.8237 2.3134 67.6866Q2.17629 67.5495 2.04608 67.4058Q1.91587 67.2622 1.79286 67.1123Q1.66986 66.9624 1.55435 66.8067Q1.43885 66.6509 1.33113 66.4897Q1.2234 66.3285 1.12372 66.1622Q1.02404 65.9959 0.932637 65.8249Q0.841236 65.6539 0.758334 65.4786Q0.675433 65.3033 0.601233 65.1242Q0.527032 64.945 0.46171 64.7625Q0.396389 64.5799 0.340104 64.3944Q0.283819 64.2088 0.236706 64.0207Q0.189593 63.8326 0.151766 63.6425Q0.113939 63.4523 0.0854886 63.2605Q0.0570382 63.0687 0.0380331 62.8757Q0.019028 62.6828 0.00951401 62.4891Q0 62.2955 0 62.1016L0 7.89844Q0 7.70454 0.00951401 7.51088Q0.019028 7.31722 0.0380331 7.12426Q0.0570382 6.93129 0.0854886 6.7395Q0.113939 6.5477 0.151766 6.35753Q0.189593 6.16736 0.236706 5.97927Q0.283819 5.79119 0.340104 5.60564Q0.396389 5.42009 0.46171 5.23753Q0.527032 5.05497 0.601233 4.87584Q0.675433 4.6967 0.758334 4.52142Q0.841236 4.34614 0.932637 4.17514Q1.02404 4.00414 1.12372 3.83783Q1.2234 3.67152 1.33113 3.5103Q1.43885 3.34908 1.55435 3.19334Q1.66986 3.0376 1.79286 2.88772Q1.91587 2.73784 2.04608 2.59417Q2.17629 2.4505 2.3134 2.3134Q2.4505 2.17629 2.59417 2.04608Q2.73784 1.91587 2.88772 1.79286Q3.0376 1.66986 3.19334 1.55435Q3.34908 1.43885 3.5103 1.33113Q3.67152 1.2234 3.83783 1.12372Q4.00414 1.02404 4.17514 0.932637Q4.34614 0.841236 4.52142 0.758334Q4.6967 0.675433 4.87584 0.601233Q5.05497 0.527032 5.23753 0.46171Q5.4201 0.396389 5.60564 0.340104Q5.79119 0.283819 5.97927 0.236706Q6.16736 0.189593 6.35753 0.151766Q6.5477 0.113939 6.7395 0.0854886Q6.93129 0.0570382 7.12426 0.0380331Q7.31722 0.019028 7.51088 0.00951401Q7.70454 0 7.89844 0Z" fill-rule="evenodd" transform="translate(188 250)" />
    <path id="Rectangle" d="M7.89844 0L70.1016 0Q70.2955 0 70.4891 0.00951401Q70.6828 0.019028 70.8757 0.0380331Q71.0687 0.0570382 71.2605 0.0854886Q71.4523 0.113939 71.6425 0.151766Q71.8326 0.189593 72.0207 0.236706Q72.2088 0.283819 72.3943 0.340104Q72.5799 0.396389 72.7625 0.46171Q72.945 0.527032 73.1242 0.601233Q73.3033 0.675433 73.4786 0.758334Q73.6538 0.841236 73.8249 0.932637Q73.9958 1.02404 74.1622 1.12372Q74.3285 1.2234 74.4897 1.33113Q74.6509 1.43885 74.8066 1.55435Q74.9624 1.66986 75.1123 1.79286Q75.2622 1.91587 75.4058 2.04608Q75.5495 2.17629 75.6866 2.3134Q75.8237 2.4505 75.9539 2.59417Q76.0841 2.73784 76.2071 2.88772Q76.3301 3.0376 76.4456 3.19334Q76.5611 3.34908 76.6689 3.5103Q76.7766 3.67152 76.8763 3.83783Q76.976 4.00414 77.0674 4.17514Q77.1588 4.34614 77.2417 4.52142Q77.3246 4.6967 77.3988 4.87584Q77.473 5.05497 77.5383 5.23753Q77.6036 5.4201 77.6599 5.60564Q77.7162 5.79119 77.7633 5.97927Q77.8104 6.16736 77.8482 6.35753Q77.8861 6.5477 77.9145 6.7395Q77.943 6.93129 77.962 7.12426Q77.981 7.31722 77.9905 7.51088Q78 7.70454 78 7.89844L78 62.1016Q78 62.2955 77.9905 62.4891Q77.981 62.6828 77.962 62.8757Q77.943 63.0687 77.9145 63.2605Q77.8861 63.4523 77.8482 63.6425Q77.8104 63.8326 77.7633 64.0207Q77.7162 64.2088 77.6599 64.3944Q77.6036 64.5799 77.5383 64.7625Q77.473 64.945 77.3988 65.1242Q77.3246 65.3033 77.2417 65.4786Q77.1588 65.6539 77.0674 65.8249Q76.976 65.9959 76.8763 66.1622Q76.7766 66.3285 76.6689 66.4897Q76.5611 66.6509 76.4456 66.8066Q76.3301 66.9624 76.2071 67.1123Q76.0841 67.2622 75.9539 67.4058Q75.8237 67.5495 75.6866 67.6866Q75.5495 67.8237 75.4058 67.9539Q75.2621 68.0841 75.1123 68.2071Q74.9624 68.3301 74.8066 68.4456Q74.6509 68.5611 74.4897 68.6689Q74.3285 68.7766 74.1622 68.8763Q73.9958 68.976 73.8249 69.0674Q73.6538 69.1588 73.4786 69.2417Q73.3033 69.3246 73.1242 69.3988Q72.945 69.473 72.7625 69.5383Q72.5799 69.6036 72.3943 69.6599Q72.2088 69.7162 72.0207 69.7633Q71.8326 69.8104 71.6425 69.8482Q71.4523 69.8861 71.2605 69.9145Q71.0687 69.943 70.8757 69.962Q70.6828 69.981 70.4891 69.9905Q70.2955 70 70.1016 70L31.4867 70L7.89844 70Q7.70454 70 7.51088 69.9905Q7.31722 69.981 7.12426 69.962Q6.93129 69.943 6.7395 69.9145Q6.5477 69.8861 6.35753 69.8482Q6.16736 69.8104 5.97927 69.7633Q5.79119 69.7162 5.60564 69.6599Q5.42009 69.6036 5.23753 69.5383Q5.05497 69.473 4.87584 69.3988Q4.6967 69.3246 4.52142 69.2417Q4.34614 69.1588 4.17514 69.0674Q4.00414 68.976 3.83783 68.8763Q3.67152 68.7766 3.5103 68.6689Q3.34908 68.5611 3.19334 68.4456Q3.0376 68.3301 2.88772 68.2071Q2.73784 68.0841 2.59417 67.9539Q2.4505 67.8237 2.3134 67.6866Q2.17629 67.5495 2.04608 67.4058Q1.91587 67.2622 1.79286 67.1123Q1.66986 66.9624 1.55435 66.8067Q1.43885 66.6509 1.33113 66.4897Q1.2234 66.3285 1.12372 66.1622Q1.02404 65.9959 0.932637 65.8249Q0.841236 65.6539 0.758334 65.4786Q0.675433 65.3033 0.601233 65.1242Q0.527032 64.945 0.46171 64.7625Q0.396389 64.5799 0.340104 64.3944Q0.283819 64.2088 0.236706 64.0207Q0.189593 63.8326 0.151766 63.6425Q0.113939 63.4523 0.0854886 63.2605Q0.0570382 63.0687 0.0380331 62.8757Q0.019028 62.6828 0.00951401 62.4891Q0 62.2955 0 62.1016L0 7.89844Q0 7.70454 0.00951401 7.51088Q0.019028 7.31722 0.0380331 7.12426Q0.0570382 6.93129 0.0854886 6.7395Q0.113939 6.5477 0.151766 6.35753Q0.189593 6.16736 0.236706 5.97927Q0.283819 5.79119 0.340104 5.60564Q0.396389 5.42009 0.46171 5.23753Q0.527032 5.05497 0.601233 4.87584Q0.675433 4.6967 0.758334 4.52142Q0.841236 4.34614 0.932637 4.17514Q1.02404 4.00414 1.12372 3.83783Q1.2234 3.67152 1.33113 3.5103Q1.43885 3.34908 1.55435 3.19334Q1.66986 3.0376 1.79286 2.88772Q1.91587 2.73784 2.04608 2.59417Q2.17629 2.4505 2.3134 2.3134Q2.4505 2.17629 2.59417 2.04608Q2.73784 1.91587 2.88772 1.79286Q3.0376 1.66986 3.19334 1.55435Q3.34908 1.43885 3.5103 1.33113Q3.67152 1.2234 3.83783 1.12372Q4.00414 1.02404 4.17514 0.932637Q4.34614 0.841236 4.52142 0.758334Q4.6967 0.675433 4.87584 0.601233Q5.05497 0.527032 5.23753 0.46171Q5.4201 0.396389 5.60564 0.340104Q5.79119 0.283819 5.97927 0.236706Q6.16736 0.189593 6.35753 0.151766Q6.5477 0.113939 6.7395 0.0854886Q6.93129 0.0570382 7.12426 0.0380331Q7.31722 0.019028 7.51088 0.00951401Q7.70454 0 7.89844 0Z" fill-rule="evenodd" transform="translate(100 250)" />
    <path id="Rectangle" d="M7.89844 0L70.1016 0Q70.2955 0 70.4891 0.00951401Q70.6828 0.019028 70.8757 0.0380331Q71.0687 0.0570382 71.2605 0.0854886Q71.4523 0.113939 71.6425 0.151766Q71.8326 0.189593 72.0207 0.236706Q72.2088 0.283819 72.3943 0.340104Q72.5799 0.396389 72.7625 0.46171Q72.945 0.527032 73.1242 0.601233Q73.3033 0.675433 73.4786 0.758334Q73.6538 0.841236 73.8249 0.932637Q73.9958 1.02404 74.1622 1.12372Q74.3285 1.2234 74.4897 1.33113Q74.6509 1.43885 74.8066 1.55435Q74.9624 1.66986 75.1123 1.79286Q75.2622 1.91587 75.4058 2.04608Q75.5495 2.17629 75.6866 2.3134Q75.8237 2.4505 75.9539 2.59417Q76.0841 2.73784 76.2071 2.88772Q76.3301 3.0376 76.4456 3.19334Q76.5611 3.34908 76.6689 3.5103Q76.7766 3.67152 76.8763 3.83783Q76.976 4.00414 77.0674 4.17514Q77.1588 4.34614 77.2417 4.52142Q77.3246 4.6967 77.3988 4.87584Q77.473 5.05497 77.5383 5.23753Q77.6036 5.4201 77.6599 5.60564Q77.7162 5.79119 77.7633 5.97927Q77.8104 6.16736 77.8482 6.35753Q77.8861 6.5477 77.9145 6.7395Q77.943 6.93129 77.962 7.12426Q77.981 7.31722 77.9905 7.51088Q78 7.70454 78 7.89844L78 62.1016Q78 62.2955 77.9905 62.4891Q77.981 62.6828 77.962 62.8757Q77.943 63.0687 77.9145 63.2605Q77.8861 63.4523 77.8482 63.6425Q77.8104 63.8326 77.7633 64.0207Q77.7162 64.2088 77.6599 64.3944Q77.6036 64.5799 77.5383 64.7625Q77.473 64.945 77.3988 65.1242Q77.3246 65.3033 77.2417 65.4786Q77.1588 65.6539 77.0674 65.8249Q76.976 65.9959 76.8763 66.1622Q76.7766 66.3285 76.6689 66.4897Q76.5611 66.6509 76.4456 66.8066Q76.3301 66.9624 76.2071 67.1123Q76.0841 67.2622 75.9539 67.4058Q75.8237 67.5495 75.6866 67.6866Q75.5495 67.8237 75.4058 67.9539Q75.2621 68.0841 75.1123 68.2071Q74.9624 68.3301 74.8066 68.4456Q74.6509 68.5611 74.4897 68.6689Q74.3285 68.7766 74.1622 68.8763Q73.9958 68.976 73.8249 69.0674Q73.6538 69.1588 73.4786 69.2417Q73.3033 69.3246 73.1242 69.3988Q72.945 69.473 72.7625 69.5383Q72.5799 69.6036 72.3943 69.6599Q72.2088 69.7162 72.0207 69.7633Q71.8326 69.8104 71.6425 69.8482Q71.4523 69.8861 71.2605 69.9145Q71.0687 69.943 70.8757 69.962Q70.6828 69.981 70.4891 69.9905Q70.2955 70 70.1016 70L31.4867 70L7.89844 70Q7.70454 70 7.51088 69.9905Q7.31722 69.981 7.12426 69.962Q6.93129 69.943 6.7395 69.9145Q6.5477 69.8861 6.35753 69.8482Q6.16736 69.8104 5.97927 69.7633Q5.79119 69.7162 5.60564 69.6599Q5.42009 69.6036 5.23753 69.5383Q5.05497 69.473 4.87584 69.3988Q4.6967 69.3246 4.52142 69.2417Q4.34614 69.1588 4.17514 69.0674Q4.00414 68.976 3.83783 68.8763Q3.67152 68.7766 3.5103 68.6689Q3.34908 68.5611 3.19334 68.4456Q3.0376 68.3301 2.88772 68.2071Q2.73784 68.0841 2.59417 67.9539Q2.4505 67.8237 2.3134 67.6866Q2.17629 67.5495 2.04608 67.4058Q1.91587 67.2622 1.79286 67.1123Q1.66986 66.9624 1.55435 66.8067Q1.43885 66.6509 1.33113 66.4897Q1.2234 66.3285 1.12372 66.1622Q1.02404 65.9959 0.932637 65.8249Q0.841236 65.6539 0.758334 65.4786Q0.675433 65.3033 0.601233 65.1242Q0.527032 64.945 0.46171 64.7625Q0.396389 64.5799 0.340104 64.3944Q0.283819 64.2088 0.236706 64.0207Q0.189593 63.8326 0.151766 63.6425Q0.113939 63.4523 0.0854886 63.2605Q0.0570382 63.0687 0.0380331 62.8757Q0.019028 62.6828 0.00951401 62.4891Q0 62.2955 0 62.1016L0 7.89844Q0 7.70454 0.00951401 7.51088Q0.019028 7.31722 0.0380331 7.12426Q0.0570382 6.93129 0.0854886 6.7395Q0.113939 6.5477 0.151766 6.35753Q0.189593 6.16736 0.236706 5.97927Q0.283819 5.79119 0.340104 5.60564Q0.396389 5.42009 0.46171 5.23753Q0.527032 5.05497 0.601233 4.87584Q0.675433 4.6967 0.758334 4.52142Q0.841236 4.34614 0.932637 4.17514Q1.02404 4.00414 1.12372 3.83783Q1.2234 3.67152 1.33113 3.5103Q1.43885 3.34908 1.55435 3.19334Q1.66986 3.0376 1.79286 2.88772Q1.91587 2.73784 2.04608 2.59417Q2.17629 2.4505 2.3134 2.3134Q2.4505 2.17629 2.59417 2.04608Q2.73784 1.91587 2.88772 1.79286Q3.0376 1.66986 3.19334 1.55435Q3.34908 1.43885 3.5103 1.33113Q3.67152 1.2234 3.83783 1.12372Q4.00414 1.02404 4.17514 0.932637Q4.34614 0.841236 4.52142 0.758334Q4.6967 0.675433 4.87584 0.601233Q5.05497 0.527032 5.23753 0.46171Q5.4201 0.396389 5.60564 0.340104Q5.79119 0.283819 5.97927 0.236706Q6.16736 0.189593 6.35753 0.151766Q6.5477 0.113939 6.7395 0.0854886Q6.93129 0.0570382 7.12426 0.0380331Q7.31722 0.019028 7.51088 0.00951401Q7.70454 0 7.89844 0Z" fill-rule="evenodd" transform="translate(12 250)" />
  </g>
</svg>