<?xml version="1.0" encoding="utf-8"?>
<svg viewBox="0 0 270 270" fill="none" xmlns="http://www.w3.org/2000/svg">
  <g>
    <rect />
    <path id="Rectangle" d="M242 0C246.419 0 250 3.58112 250 8L250 22C250 26.4189 246.419 30 242 30L8 30C3.58112 30 0 26.4189 0 22L0 8C0 3.58112 3.58112 0 8 0L242 0Z"  transform="translate(10 10)" />
    <path id="Rectangle" d="M242 0C246.419 0 250 3.58112 250 8L250 22C250 26.4189 246.419 30 242 30L8 30C3.58112 30 0 26.4189 0 22L0 8C0 3.58112 3.58112 0 8 0L242 0Z"  transform="translate(10 230)" />
    <path id="Rectangle" d="M242 0C246.419 0 250 3.58112 250 8L250 162C250 166.419 246.419 170 242 170L8 170C3.58112 170 0 166.419 0 162L0 8C0 3.58112 3.58112 0 8 0L242 0Z"  transform="translate(10 50)" />
  </g>
</svg>