<?xml version="1.0" encoding="utf-8"?>
<svg viewBox="0 0 270 270" fill="none" xmlns="http://www.w3.org/2000/svg">
  <g>
    <rect />
    <path id="Rectangle" d="M242 0C246.419 0 250 3.58112 250 8L250 22C250 26.4189 246.419 30 242 30L8 30C3.58112 30 0 26.4189 0 22L0 8C0 3.58112 3.58112 0 8 0L242 0Z"  transform="translate(10 10)" />
    <path id="Rectangle" d="M42 0C46.4189 0 50 3.58112 50 8L50 162C50 166.419 46.4189 170 42 170L8 170C3.58112 170 0 166.419 0 162L0 8C0 3.58112 3.58112 0 8 0L42 0Z"  transform="translate(10 50)" />
    <path id="Rectangle" d="M242 0C246.419 0 250 3.58112 250 8L250 22C250 26.4189 246.419 30 242 30L8 30C3.58112 30 0 26.4189 0 22L0 8C0 3.58112 3.58112 0 8 0L242 0Z"  transform="translate(10 230)" />
    <path id="Rectangle" d="M182 0C186.419 0 190 3.58112 190 8L190 162C190 166.419 186.419 170 182 170L8 170C3.58112 170 0 166.419 0 162L0 8C0 3.58112 3.58112 0 8 0L182 0Z"  transform="translate(70 50)" />
  </g>
</svg>